<?xml version="1.0" encoding="utf-8"?>
<!-- Generator: Adobe Illustrator 24.3.0, SVG Export Plug-In . SVG Version: 6.00 Build 0)  -->
<svg version="1.0" id="katman_1" xmlns="http://www.w3.org/2000/svg" xmlns:xlink="http://www.w3.org/1999/xlink" x="0px" y="0px"
	 viewBox="0 0 598 444" style="enable-background:new 0 0 598 444;" xml:space="preserve">
<style type="text/css">
	.st0{fill:#18B4F4;}
	.st1{fill:#FD6B3C;}
	.st2{fill:#A97FF2;}
</style>
<g>
	<g>
		<path class="st0" d="M139.16,197.92c0,4.61-1.02,9.17-3.01,13.33c-1.99,4.16-4.88,7.83-8.47,10.72l-82.5-46.85
			c-0.32-0.18-0.61-0.4-0.87-0.65c-0.41-0.41-0.74-0.89-0.97-1.42c-0.22-0.53-0.34-1.11-0.34-1.69c0-1.16,0.46-2.27,1.28-3.08
			c0.82-0.82,1.93-1.28,3.08-1.28h60.89c8.2,0,16.06,3.26,21.85,9.06C135.9,181.85,139.16,189.72,139.16,197.92z"/>
		<path class="st1" d="M139.16,246.02c0,4.06-0.8,8.08-2.35,11.84c-1.55,3.75-3.83,7.16-6.7,10.03c-2.87,2.87-6.28,5.15-10.03,6.7
			c-3.75,1.56-7.77,2.35-11.83,2.35H47.36c-0.86-0.01-1.7-0.27-2.42-0.76c-0.71-0.49-1.26-1.17-1.58-1.98
			c-0.32-0.8-0.4-1.68-0.22-2.52c0.18-0.84,0.6-1.62,1.22-2.22c0.25-0.25,0.52-0.46,0.82-0.64l32.47-18.44l50.03-28.41
			c3.59,2.9,6.48,6.56,8.47,10.72C138.13,236.86,139.16,241.41,139.16,246.02z"/>
		<path class="st2" d="M127.68,221.97l-50.03,28.42l-32.47,18.44c-0.31,0.17-0.6,0.39-0.86,0.63c12.38-12.7,19.3-29.75,19.29-47.49
			c0.02-17.74-6.9-34.79-19.28-47.5c0.26,0.25,0.56,0.47,0.87,0.65L127.68,221.97z"/>
	</g>
	<path d="M206.78,207.32c14.26,0,22.32,11.4,22.32,25.21c0,13.81-8.06,25.12-22.32,25.12c-7.41,0-13.08-2.97-16.21-8l-1.29,6.86
		h-8.92v-66.25h11.05v24.46C194.08,210.62,199.36,207.32,206.78,207.32z M204.55,247.91c8.34,0,13.52-6.76,13.52-15.38
		c0-8.8-5.19-15.48-13.52-15.48c-8.33,0-13.53,6.66-13.53,15.48C191.02,241.16,196.12,247.91,204.55,247.91z M267.91,236.7v-28.26
		h11.02v27.7c0,12.36-5.65,21.5-21.21,21.5c-15.57,0-21.21-9.17-21.21-21.5v-27.7h11.02v28.26c0,7.5,3.52,11.21,10.17,11.21
		C264.37,247.91,267.91,244.2,267.91,236.7z M287.76,193.61c-0.04-0.97,0.13-1.93,0.48-2.83c0.35-0.9,0.89-1.72,1.58-2.4
		c0.69-0.68,1.51-1.22,2.41-1.57c0.9-0.35,1.87-0.51,2.84-0.47c4.19,0,7.2,3.02,7.2,7.31s-3.01,7.1-7.2,7.1
		C290.88,200.75,287.76,197.79,287.76,193.61z M484.43,193.61c-0.04-0.96,0.13-1.93,0.48-2.83c0.35-0.9,0.89-1.71,1.57-2.4
		c0.68-0.68,1.5-1.22,2.4-1.57c0.9-0.35,1.86-0.52,2.82-0.48c4.19,0,7.2,3.02,7.2,7.31s-3.02,7.1-7.2,7.1
		C487.51,200.75,484.43,197.79,484.43,193.61z M470.49,242.55c4.19,0,7.2,3.02,7.2,7.27s-3.01,7.11-7.2,7.11s-7.27-2.92-7.27-7.11
		c-0.04-0.96,0.12-1.93,0.48-2.83c0.35-0.9,0.89-1.72,1.57-2.4c0.68-0.68,1.5-1.22,2.4-1.57
		C468.56,242.67,469.52,242.51,470.49,242.55z M466.72,207.97l1.57,0.1v10.28c-0.83-0.12-1.66-0.18-2.5-0.19
		c-7.78,0-12.41,4.08-12.41,13.35v25.03h-11.02v-48.09h8.9l1.28,6.67C454.3,212.05,458.36,207.97,466.72,207.97z M289.5,208.43
		h11.02v48.1H289.5V208.43z M311.55,256.53v-66.27h11.02v66.28L311.55,256.53z M368.06,190.26h11.02v66.28h-8.9l-1.29-6.86
		c-3.05,5.01-8.72,8-16.21,8c-14.18,0-22.24-11.4-22.24-25.12s8.06-25.21,22.24-25.21c7.5,0,12.69,3.33,15.38,7.41V190.26z
		 M354.98,217.06c-8.33,0-13.52,6.67-13.52,15.48c0,8.62,5.19,15.38,13.52,15.38s13.52-6.76,13.52-15.38
		c0.01-8.83-5.08-15.49-13.51-15.49L354.98,217.06z M432.9,243.37c-3.42,8.62-11.4,14.27-21.86,14.27
		c-14.53,0-23.98-10.85-23.98-25.21c0-13.99,9.64-25.11,23.9-25.11s23.62,10.84,23.62,24.93c0.05,1.15-0.05,2.3-0.3,3.42h-36.4
		c0.83,7.6,5.74,12.51,13.43,12.51c5.28,0,9.64-2.6,11.67-7.41L432.9,243.37z M398.07,227.53h25.57
		c-0.93-6.67-5.56-11.22-12.69-11.22C403.81,216.31,399.18,220.95,398.07,227.53z M486.18,208.43h11.02v48.1h-11.02V208.43z
		 M505.07,232.53c0-13.53,9.64-25.21,24.92-25.21S555,219,555,232.53s-9.63,25.12-25.01,25.12S505.07,246.06,505.07,232.53z
		 M529.99,247.91c8.07,0,13.99-6.11,13.99-15.38c0-9.27-5.92-15.48-13.99-15.48c-8.07,0-13.91,6.11-13.91,15.48
		C516.08,241.89,522.02,247.91,529.99,247.91z"/>
</g>
</svg>
