<svg width="596" height="591" viewBox="0 0 596 591" fill="none" xmlns="http://www.w3.org/2000/svg">
<rect x="1" y="1" width="594" height="589" rx="19" fill="#E0E0E0"/>
<rect x="1" y="1" width="594" height="589" rx="19" stroke="#404040" stroke-width="2"/>
<path d="M58.7614 272V257.455H67.5398V259.017H60.5227V263.932H67.0852V265.494H60.5227V270.438H67.6534V272H58.7614ZM71.7372 261.091L74.3509 265.551L76.9645 261.091H78.8963L75.3736 266.545L78.8963 272H76.9645L74.3509 267.767L71.7372 272H69.8054L73.2713 266.545L69.8054 261.091H71.7372ZM81.288 276.091V261.091H82.9073V262.824H83.1062C83.2293 262.634 83.3997 262.393 83.6175 262.099C83.8401 261.801 84.1573 261.536 84.5692 261.304C84.9859 261.067 85.5494 260.949 86.2596 260.949C87.1781 260.949 87.9878 261.179 88.6886 261.638C89.3893 262.097 89.9362 262.748 90.3292 263.591C90.7222 264.434 90.9187 265.428 90.9187 266.574C90.9187 267.729 90.7222 268.731 90.3292 269.578C89.9362 270.421 89.3917 271.074 88.6957 271.538C87.9996 271.998 87.1971 272.227 86.288 272.227C85.5872 272.227 85.0262 272.111 84.6048 271.879C84.1834 271.643 83.859 271.375 83.6317 271.077C83.4045 270.774 83.2293 270.523 83.1062 270.324H82.9641V276.091H81.288ZM82.9357 266.545C82.9357 267.369 83.0565 268.096 83.2979 268.726C83.5394 269.351 83.8922 269.841 84.3562 270.196C84.8202 270.546 85.3884 270.722 86.0607 270.722C86.7615 270.722 87.3462 270.537 87.815 270.168C88.2885 269.794 88.6436 269.292 88.8803 268.662C89.1218 268.027 89.2425 267.322 89.2425 266.545C89.2425 265.778 89.1242 265.087 88.8874 264.472C88.6554 263.851 88.3027 263.361 87.8292 263.001C87.3604 262.637 86.771 262.455 86.0607 262.455C85.3789 262.455 84.806 262.627 84.342 262.973C83.878 263.314 83.5276 263.792 83.2908 264.408C83.0541 265.018 82.9357 265.731 82.9357 266.545ZM93.4755 272V261.091H95.0948V262.739H95.2085C95.4073 262.199 95.7672 261.761 96.288 261.425C96.8088 261.089 97.396 260.92 98.0494 260.92C98.1725 260.92 98.3263 260.923 98.511 260.928C98.6957 260.932 98.8353 260.939 98.93 260.949V262.653C98.8732 262.639 98.743 262.618 98.5394 262.589C98.3406 262.556 98.1299 262.54 97.9073 262.54C97.377 262.54 96.9035 262.651 96.4869 262.874C96.0749 263.091 95.7482 263.394 95.5067 263.783C95.27 264.166 95.1516 264.604 95.1516 265.097V272H93.4755ZM105.159 272.227C104.108 272.227 103.201 271.995 102.439 271.531C101.681 271.062 101.096 270.409 100.684 269.571C100.277 268.728 100.074 267.748 100.074 266.631C100.074 265.513 100.277 264.528 100.684 263.676C101.096 262.819 101.669 262.152 102.403 261.673C103.142 261.19 104.003 260.949 104.988 260.949C105.556 260.949 106.118 261.044 106.672 261.233C107.225 261.422 107.73 261.73 108.184 262.156C108.639 262.578 109.001 263.136 109.271 263.832C109.541 264.528 109.676 265.385 109.676 266.403V267.114H101.267V265.665H107.971C107.971 265.049 107.848 264.5 107.602 264.017C107.36 263.534 107.015 263.153 106.565 262.874C106.12 262.594 105.594 262.455 104.988 262.455C104.321 262.455 103.743 262.62 103.255 262.952C102.772 263.278 102.401 263.705 102.14 264.23C101.88 264.756 101.75 265.319 101.75 265.92V266.886C101.75 267.71 101.892 268.409 102.176 268.982C102.465 269.55 102.865 269.983 103.376 270.281C103.887 270.575 104.482 270.722 105.159 270.722C105.599 270.722 105.997 270.66 106.352 270.537C106.712 270.409 107.022 270.22 107.282 269.969C107.543 269.713 107.744 269.396 107.886 269.017L109.505 269.472C109.335 270.021 109.048 270.504 108.646 270.92C108.243 271.332 107.746 271.654 107.154 271.886C106.563 272.114 105.897 272.227 105.159 272.227ZM119.953 263.534L118.447 263.96C118.352 263.709 118.213 263.465 118.028 263.229C117.848 262.987 117.602 262.788 117.289 262.632C116.977 262.476 116.577 262.398 116.089 262.398C115.422 262.398 114.865 262.552 114.42 262.859C113.98 263.162 113.76 263.548 113.76 264.017C113.76 264.434 113.911 264.763 114.214 265.004C114.517 265.246 114.991 265.447 115.635 265.608L117.254 266.006C118.229 266.242 118.956 266.605 119.434 267.092C119.913 267.575 120.152 268.198 120.152 268.96C120.152 269.585 119.972 270.144 119.612 270.636C119.257 271.129 118.76 271.517 118.12 271.801C117.481 272.085 116.738 272.227 115.89 272.227C114.778 272.227 113.857 271.986 113.127 271.503C112.398 271.02 111.937 270.314 111.743 269.386L113.333 268.989C113.485 269.576 113.771 270.016 114.193 270.31C114.619 270.603 115.175 270.75 115.862 270.75C116.643 270.75 117.263 270.584 117.723 270.253C118.187 269.917 118.419 269.514 118.419 269.045C118.419 268.667 118.286 268.349 118.021 268.094C117.756 267.833 117.349 267.639 116.799 267.511L114.981 267.085C113.982 266.848 113.248 266.482 112.779 265.984C112.315 265.482 112.083 264.855 112.083 264.102C112.083 263.487 112.256 262.942 112.602 262.469C112.952 261.995 113.428 261.624 114.029 261.354C114.636 261.084 115.322 260.949 116.089 260.949C117.169 260.949 118.016 261.186 118.632 261.659C119.252 262.133 119.692 262.758 119.953 263.534ZM130.402 263.534L128.896 263.96C128.802 263.709 128.662 263.465 128.477 263.229C128.297 262.987 128.051 262.788 127.739 262.632C127.426 262.476 127.026 262.398 126.538 262.398C125.871 262.398 125.314 262.552 124.869 262.859C124.429 263.162 124.209 263.548 124.209 264.017C124.209 264.434 124.36 264.763 124.663 265.004C124.966 265.246 125.44 265.447 126.084 265.608L127.703 266.006C128.679 266.242 129.405 266.605 129.884 267.092C130.362 267.575 130.601 268.198 130.601 268.96C130.601 269.585 130.421 270.144 130.061 270.636C129.706 271.129 129.209 271.517 128.57 271.801C127.93 272.085 127.187 272.227 126.339 272.227C125.227 272.227 124.306 271.986 123.577 271.503C122.848 271.02 122.386 270.314 122.192 269.386L123.783 268.989C123.934 269.576 124.221 270.016 124.642 270.31C125.068 270.603 125.625 270.75 126.311 270.75C127.092 270.75 127.713 270.584 128.172 270.253C128.636 269.917 128.868 269.514 128.868 269.045C128.868 268.667 128.735 268.349 128.47 268.094C128.205 267.833 127.798 267.639 127.249 267.511L125.43 267.085C124.431 266.848 123.697 266.482 123.229 265.984C122.765 265.482 122.533 264.855 122.533 264.102C122.533 263.487 122.705 262.942 123.051 262.469C123.402 261.995 123.877 261.624 124.479 261.354C125.085 261.084 125.771 260.949 126.538 260.949C127.618 260.949 128.465 261.186 129.081 261.659C129.701 262.133 130.142 262.758 130.402 263.534Z" fill="black"/>
<path d="M27.9368 86V66.3636H35.4538C36.8729 66.3636 38.0522 66.5874 38.9918 67.0348C39.9379 67.4759 40.6442 68.0799 41.1108 68.8469C41.5838 69.614 41.8203 70.4833 41.8203 71.4549C41.8203 72.2539 41.6669 72.9379 41.3601 73.5067C41.0533 74.0692 40.641 74.5263 40.1232 74.8778C39.6055 75.2294 39.027 75.4819 38.3878 75.6353V75.8271C39.0845 75.8654 39.7525 76.0795 40.3917 76.4695C41.0373 76.853 41.5646 77.3963 41.9737 78.0994C42.3828 78.8026 42.5874 79.6527 42.5874 80.6499C42.5874 81.6662 42.3413 82.5803 41.8491 83.392C41.3569 84.1974 40.6154 84.8335 39.6246 85.3001C38.6339 85.7667 37.3874 86 35.8853 86H27.9368ZM31.494 83.0277H35.3196C36.6108 83.0277 37.5408 82.7816 38.1097 82.2894C38.685 81.7908 38.9727 81.1516 38.9727 80.3718C38.9727 79.7901 38.8288 79.266 38.5412 78.7994C38.2536 78.3263 37.8445 77.9556 37.3139 77.6871C36.7834 77.4123 36.1506 77.2749 35.4155 77.2749H31.494V83.0277ZM31.494 74.7148H35.0128C35.6264 74.7148 36.1793 74.603 36.6715 74.3793C37.1637 74.1491 37.5504 73.8263 37.8317 73.4109C38.1193 72.989 38.2631 72.4904 38.2631 71.9151C38.2631 71.1545 37.9947 70.5281 37.4577 70.0359C36.9272 69.5437 36.1378 69.2976 35.0895 69.2976H31.494V74.7148ZM49.7664 86.2972C48.8332 86.2972 47.9926 86.131 47.2448 85.7987C46.5033 85.4599 45.9152 84.9613 45.4806 84.3029C45.0523 83.6445 44.8382 82.8327 44.8382 81.8675C44.8382 81.0366 44.9916 80.3494 45.2984 79.8061C45.6052 79.2628 46.0239 78.8281 46.5544 78.5021C47.085 78.1761 47.6826 77.93 48.3474 77.7638C49.0186 77.5913 49.7121 77.4666 50.428 77.3899C51.2909 77.3004 51.9909 77.2205 52.5278 77.1502C53.0647 77.0735 53.4546 76.9585 53.6975 76.805C53.9468 76.6452 54.0715 76.3991 54.0715 76.0668V76.0092C54.0715 75.2869 53.8573 74.7276 53.4291 74.3313C53.0008 73.935 52.384 73.7369 51.5786 73.7369C50.7284 73.7369 50.0541 73.9222 49.5555 74.293C49.0633 74.6637 48.7309 75.1016 48.5583 75.6065L45.3176 75.1463C45.5732 74.2514 45.9951 73.5036 46.5832 72.9027C47.1713 72.2955 47.8904 71.8416 48.7405 71.5412C49.5906 71.2344 50.5303 71.081 51.5594 71.081C52.2689 71.081 52.9752 71.1641 53.6784 71.3303C54.3815 71.4964 55.0239 71.7713 55.6056 72.1548C56.1872 72.532 56.6539 73.0465 57.0054 73.6985C57.3634 74.3505 57.5423 75.1655 57.5423 76.1435V86H54.2057V83.9769H54.0906C53.8797 84.386 53.5825 84.7695 53.199 85.1275C52.8218 85.479 52.3456 85.7635 51.7703 85.9808C51.2014 86.1918 50.5335 86.2972 49.7664 86.2972ZM50.6677 83.7468C51.3644 83.7468 51.9685 83.6094 52.4798 83.3345C52.9912 83.0533 53.3843 82.6825 53.6592 82.2223C53.9404 81.7621 54.0811 81.2603 54.0811 80.717V78.9815C53.9724 79.071 53.787 79.1541 53.5249 79.2308C53.2693 79.3075 52.9816 79.3746 52.662 79.4322C52.3424 79.4897 52.026 79.5408 51.7128 79.5856C51.3996 79.6303 51.1279 79.6687 50.8978 79.7006C50.3801 79.771 49.9166 79.886 49.5075 80.0458C49.0985 80.2056 48.7757 80.4293 48.5392 80.717C48.3026 80.9982 48.1844 81.3626 48.1844 81.81C48.1844 82.4492 48.4177 82.9318 48.8843 83.2578C49.3509 83.5838 49.9454 83.7468 50.6677 83.7468ZM67.4564 86.2876C65.9862 86.2876 64.7238 85.9648 63.6691 85.3192C62.6208 84.6737 61.8122 83.782 61.2433 82.6442C60.6808 81.5 60.3996 80.1832 60.3996 78.6939C60.3996 77.1982 60.6872 75.8782 61.2625 74.734C61.8378 73.5835 62.6496 72.6886 63.6979 72.0494C64.7526 71.4038 65.999 71.081 67.4372 71.081C68.6325 71.081 69.6904 71.3015 70.6109 71.7425C71.5377 72.1772 72.276 72.794 72.8257 73.593C73.3754 74.3857 73.6887 75.3125 73.7654 76.3736H70.4479C70.3137 75.6641 69.9941 75.0728 69.4891 74.5998C68.9905 74.1204 68.3225 73.8807 67.4852 73.8807C66.7757 73.8807 66.1524 74.0724 65.6155 74.456C65.0786 74.8331 64.6599 75.3764 64.3595 76.0859C64.0654 76.7955 63.9184 77.6456 63.9184 78.6364C63.9184 79.6399 64.0654 80.5028 64.3595 81.2251C64.6535 81.9411 65.0658 82.494 65.5963 82.8839C66.1333 83.2674 66.7629 83.4592 67.4852 83.4592C67.9965 83.4592 68.4536 83.3633 68.8563 83.1715C69.2654 82.9734 69.6073 82.6889 69.8822 82.3182C70.157 81.9474 70.3456 81.4968 70.4479 80.9663H73.7654C73.6823 82.0082 73.3754 82.9318 72.8449 83.7372C72.3144 84.5362 71.5921 85.1626 70.678 85.6165C69.7639 86.0639 68.6901 86.2876 67.4564 86.2876ZM79.7795 81.3786L79.7699 77.1886H80.326L85.6186 71.2727H89.6744L83.1641 78.5213H82.445L79.7795 81.3786ZM76.6154 86V66.3636H80.0863V86H76.6154ZM85.8583 86L81.0643 79.2979L83.4038 76.853L90.0099 86H85.8583ZM97.9009 86.2876C96.4244 86.2876 95.1491 85.9808 94.0753 85.3672C93.0078 84.7472 92.1864 83.8714 91.6112 82.7401C91.0359 81.6023 90.7482 80.2631 90.7482 78.7227C90.7482 77.2077 91.0359 75.8782 91.6112 74.734C92.1928 73.5835 93.0046 72.6886 94.0465 72.0494C95.0884 71.4038 96.3125 71.081 97.7188 71.081C98.6264 71.081 99.483 71.228 100.288 71.522C101.1 71.8097 101.816 72.2571 102.436 72.8643C103.063 73.4716 103.555 74.245 103.913 75.1847C104.271 76.1179 104.45 77.2301 104.45 78.5213V79.5856H92.3782V77.2461H101.123C101.116 76.5813 100.972 75.9901 100.691 75.4723C100.41 74.9482 100.017 74.5359 99.5117 74.2354C99.0131 73.935 98.4315 73.7848 97.7667 73.7848C97.0572 73.7848 96.4339 73.9574 95.897 74.3026C95.3601 74.6413 94.9414 75.0888 94.641 75.6449C94.3469 76.1946 94.1967 76.7987 94.1903 77.457V79.4993C94.1903 80.3558 94.3469 81.0909 94.6602 81.7045C94.9734 82.3118 95.4112 82.7784 95.9737 83.1044C96.5362 83.424 97.1946 83.5838 97.9489 83.5838C98.4538 83.5838 98.9109 83.5135 99.32 83.3729C99.729 83.2259 100.084 83.0117 100.384 82.7305C100.685 82.4492 100.912 82.1009 101.065 81.6854L104.306 82.0497C104.101 82.9062 103.711 83.6541 103.136 84.2933C102.567 84.9261 101.838 85.4183 100.95 85.7699C100.061 86.1151 99.0451 86.2876 97.9009 86.2876ZM110.857 77.3707V86H107.386V71.2727H110.703V73.7752H110.876C111.215 72.9506 111.755 72.2955 112.496 71.8097C113.244 71.3239 114.168 71.081 115.267 71.081C116.284 71.081 117.169 71.2983 117.923 71.733C118.684 72.1676 119.272 72.7972 119.687 73.6218C120.109 74.4464 120.317 75.4467 120.311 76.6229V86H116.84V77.1598C116.84 76.1754 116.584 75.4052 116.073 74.8491C115.568 74.293 114.868 74.0149 113.973 74.0149C113.366 74.0149 112.826 74.1491 112.353 74.4176C111.886 74.6797 111.518 75.06 111.25 75.5586C110.988 76.0572 110.857 76.6612 110.857 77.3707ZM129.304 86.2589C128.147 86.2589 127.112 85.9616 126.198 85.3672C125.284 84.7727 124.561 83.9098 124.031 82.7784C123.5 81.647 123.235 80.2727 123.235 78.6555C123.235 77.0192 123.503 75.6385 124.04 74.5135C124.584 73.3821 125.316 72.5288 126.236 71.9535C127.157 71.3718 128.182 71.081 129.314 71.081C130.177 71.081 130.886 71.228 131.442 71.522C131.998 71.8097 132.44 72.158 132.766 72.5671C133.092 72.9698 133.344 73.3501 133.523 73.7081H133.667V66.3636H137.147V86H133.734V83.6797H133.523C133.344 84.0376 133.085 84.418 132.746 84.8207C132.408 85.217 131.96 85.5558 131.404 85.837C130.848 86.1183 130.148 86.2589 129.304 86.2589ZM130.273 83.4112C131.008 83.4112 131.634 83.2131 132.152 82.8168C132.67 82.4141 133.063 81.8548 133.331 81.1388C133.6 80.4229 133.734 79.5888 133.734 78.6364C133.734 77.6839 133.6 76.8562 133.331 76.1531C133.069 75.4499 132.679 74.9034 132.161 74.5135C131.65 74.1236 131.021 73.9286 130.273 73.9286C129.499 73.9286 128.854 74.13 128.336 74.5327C127.818 74.9354 127.428 75.4915 127.166 76.201C126.904 76.9105 126.773 77.7223 126.773 78.6364C126.773 79.5568 126.904 80.3782 127.166 81.1005C127.435 81.8164 127.828 82.3821 128.345 82.7976C128.87 83.2067 129.512 83.4112 130.273 83.4112ZM146.834 69.3455V66.3636H162.501V69.3455H156.431V86H152.903V69.3455H146.834ZM169.656 86.2876C168.217 86.2876 166.971 85.9712 165.916 85.3384C164.862 84.7056 164.043 83.8203 163.462 82.6825C162.886 81.5447 162.599 80.2152 162.599 78.6939C162.599 77.1726 162.886 75.8398 163.462 74.6957C164.043 73.5515 164.862 72.663 165.916 72.0302C166.971 71.3974 168.217 71.081 169.656 71.081C171.094 71.081 172.34 71.3974 173.395 72.0302C174.45 72.663 175.265 73.5515 175.84 74.6957C176.422 75.8398 176.712 77.1726 176.712 78.6939C176.712 80.2152 176.422 81.5447 175.84 82.6825C175.265 83.8203 174.45 84.7056 173.395 85.3384C172.34 85.9712 171.094 86.2876 169.656 86.2876ZM169.675 83.5071C170.455 83.5071 171.107 83.293 171.631 82.8647C172.155 82.43 172.545 81.8484 172.801 81.1197C173.063 80.391 173.194 79.5792 173.194 78.6843C173.194 77.783 173.063 76.968 172.801 76.2393C172.545 75.5043 172.155 74.9194 171.631 74.4847C171.107 74.0501 170.455 73.8327 169.675 73.8327C168.876 73.8327 168.211 74.0501 167.68 74.4847C167.156 74.9194 166.763 75.5043 166.501 76.2393C166.245 76.968 166.118 77.783 166.118 78.6843C166.118 79.5792 166.245 80.391 166.501 81.1197C166.763 81.8484 167.156 82.43 167.68 82.8647C168.211 83.293 168.876 83.5071 169.675 83.5071ZM186.082 86.2876C184.644 86.2876 183.398 85.9712 182.343 85.3384C181.288 84.7056 180.47 83.8203 179.888 82.6825C179.313 81.5447 179.026 80.2152 179.026 78.6939C179.026 77.1726 179.313 75.8398 179.888 74.6957C180.47 73.5515 181.288 72.663 182.343 72.0302C183.398 71.3974 184.644 71.081 186.082 71.081C187.521 71.081 188.767 71.3974 189.822 72.0302C190.876 72.663 191.691 73.5515 192.267 74.6957C192.848 75.8398 193.139 77.1726 193.139 78.6939C193.139 80.2152 192.848 81.5447 192.267 82.6825C191.691 83.8203 190.876 84.7056 189.822 85.3384C188.767 85.9712 187.521 86.2876 186.082 86.2876ZM186.102 83.5071C186.881 83.5071 187.533 83.293 188.058 82.8647C188.582 82.43 188.972 81.8484 189.227 81.1197C189.489 80.391 189.62 79.5792 189.62 78.6843C189.62 77.783 189.489 76.968 189.227 76.2393C188.972 75.5043 188.582 74.9194 188.058 74.4847C187.533 74.0501 186.881 73.8327 186.102 73.8327C185.303 73.8327 184.638 74.0501 184.107 74.4847C183.583 74.9194 183.19 75.5043 182.928 76.2393C182.672 76.968 182.544 77.783 182.544 78.6843C182.544 79.5792 182.672 80.391 182.928 81.1197C183.19 81.8484 183.583 82.43 184.107 82.8647C184.638 83.293 185.303 83.5071 186.102 83.5071ZM199.556 66.3636V86H196.085V66.3636H199.556ZM214.765 75.1655L211.601 75.5107C211.512 75.1911 211.355 74.8906 211.131 74.6094C210.914 74.3281 210.62 74.1012 210.249 73.9286C209.878 73.756 209.425 73.6697 208.888 73.6697C208.165 73.6697 207.558 73.8263 207.066 74.1396C206.58 74.4528 206.34 74.8587 206.347 75.3572C206.34 75.7855 206.497 76.1339 206.817 76.4023C207.143 76.6708 207.68 76.8913 208.427 77.0639L210.939 77.6009C212.333 77.9013 213.368 78.3775 214.046 79.0295C214.73 79.6815 215.075 80.5348 215.081 81.5895C215.075 82.5163 214.803 83.3345 214.267 84.044C213.736 84.7472 212.998 85.2969 212.052 85.6932C211.106 86.0895 210.019 86.2876 208.792 86.2876C206.989 86.2876 205.538 85.9105 204.439 85.1562C203.339 84.3956 202.684 83.3377 202.473 81.9826L205.858 81.6566C206.011 82.3214 206.337 82.8232 206.836 83.1619C207.334 83.5007 207.983 83.6701 208.782 83.6701C209.607 83.6701 210.268 83.5007 210.767 83.1619C211.272 82.8232 211.524 82.4045 211.524 81.9059C211.524 81.484 211.361 81.1357 211.035 80.8608C210.716 80.5859 210.217 80.375 209.54 80.228L207.028 79.7006C205.615 79.4066 204.57 78.9112 203.892 78.2145C203.215 77.5114 202.879 76.6229 202.885 75.549C202.879 74.6413 203.125 73.8551 203.624 73.1903C204.129 72.5192 204.829 72.0014 205.724 71.6371C206.625 71.2663 207.664 71.081 208.84 71.081C210.566 71.081 211.924 71.4485 212.915 72.1836C213.912 72.9187 214.529 73.9126 214.765 75.1655Z" fill="black"/>
<path d="M60.5479 475H58.7866C58.6824 474.493 58.5001 474.048 58.2397 473.665C57.984 473.281 57.6715 472.959 57.3022 472.699C56.9376 472.434 56.5328 472.235 56.0877 472.102C55.6426 471.97 55.1786 471.903 54.6957 471.903C53.815 471.903 53.0172 472.126 52.3022 472.571C51.592 473.016 51.0262 473.672 50.6048 474.538C50.1881 475.405 49.9798 476.468 49.9798 477.727C49.9798 478.987 50.1881 480.05 50.6048 480.916C51.0262 481.783 51.592 482.438 52.3022 482.884C53.0172 483.329 53.815 483.551 54.6957 483.551C55.1786 483.551 55.6426 483.485 56.0877 483.352C56.5328 483.22 56.9376 483.023 57.3022 482.763C57.6715 482.498 57.984 482.173 58.2397 481.79C58.5001 481.402 58.6824 480.956 58.7866 480.455H60.5479C60.4154 481.198 60.1739 481.863 59.8235 482.45C59.4731 483.037 59.0375 483.537 58.5167 483.949C57.9959 484.356 57.4111 484.666 56.7624 484.879C56.1185 485.092 55.4296 485.199 54.6957 485.199C53.4551 485.199 52.3519 484.896 51.386 484.29C50.4201 483.684 49.6602 482.822 49.1062 481.705C48.5522 480.587 48.2752 479.261 48.2752 477.727C48.2752 476.193 48.5522 474.867 49.1062 473.75C49.6602 472.633 50.4201 471.771 51.386 471.165C52.3519 470.559 53.4551 470.256 54.6957 470.256C55.4296 470.256 56.1185 470.362 56.7624 470.575C57.4111 470.788 57.9959 471.101 58.5167 471.513C59.0375 471.92 59.4731 472.417 59.8235 473.004C60.1739 473.587 60.4154 474.252 60.5479 475ZM67.5987 485.227C66.6139 485.227 65.7498 484.993 65.0064 484.524C64.2678 484.055 63.6901 483.4 63.2734 482.557C62.8615 481.714 62.6555 480.729 62.6555 479.602C62.6555 478.466 62.8615 477.474 63.2734 476.626C63.6901 475.779 64.2678 475.121 65.0064 474.652C65.7498 474.183 66.6139 473.949 67.5987 473.949C68.5836 473.949 69.4453 474.183 70.1839 474.652C70.9273 475.121 71.505 475.779 71.9169 476.626C72.3336 477.474 72.5419 478.466 72.5419 479.602C72.5419 480.729 72.3336 481.714 71.9169 482.557C71.505 483.4 70.9273 484.055 70.1839 484.524C69.4453 484.993 68.5836 485.227 67.5987 485.227ZM67.5987 483.722C68.3468 483.722 68.9624 483.53 69.4453 483.146C69.9283 482.763 70.2857 482.259 70.5178 481.634C70.7498 481.009 70.8658 480.331 70.8658 479.602C70.8658 478.873 70.7498 478.194 70.5178 477.564C70.2857 476.934 69.9283 476.425 69.4453 476.037C68.9624 475.649 68.3468 475.455 67.5987 475.455C66.8506 475.455 66.2351 475.649 65.7521 476.037C65.2692 476.425 64.9117 476.934 64.6797 477.564C64.4477 478.194 64.3317 478.873 64.3317 479.602C64.3317 480.331 64.4477 481.009 64.6797 481.634C64.9117 482.259 65.2692 482.763 65.7521 483.146C66.2351 483.53 66.8506 483.722 67.5987 483.722ZM79.5323 485.227C78.5096 485.227 77.6289 484.986 76.8903 484.503C76.1516 484.02 75.5835 483.355 75.1857 482.507C74.788 481.66 74.5891 480.691 74.5891 479.602C74.5891 478.494 74.7927 477.517 75.1999 476.669C75.6119 475.817 76.1848 475.152 76.9187 474.673C77.6573 474.19 78.5191 473.949 79.5039 473.949C80.271 473.949 80.9622 474.091 81.5778 474.375C82.1933 474.659 82.6976 475.057 83.0906 475.568C83.4835 476.08 83.7274 476.676 83.8221 477.358H82.146C82.0181 476.861 81.734 476.42 81.2937 476.037C80.8581 475.649 80.271 475.455 79.5323 475.455C78.8789 475.455 78.306 475.625 77.8136 475.966C77.3259 476.302 76.9447 476.778 76.6701 477.393C76.4002 478.004 76.2653 478.722 76.2653 479.545C76.2653 480.388 76.3978 481.122 76.663 481.747C76.9329 482.372 77.3117 482.857 77.7994 483.203C78.2918 483.549 78.8694 483.722 79.5323 483.722C79.9679 483.722 80.3633 483.646 80.7184 483.494C81.0735 483.343 81.3742 483.125 81.6204 482.841C81.8666 482.557 82.0418 482.216 82.146 481.818H83.8221C83.7274 482.462 83.493 483.042 83.119 483.558C82.7496 484.07 82.2596 484.477 81.6488 484.78C81.0427 485.078 80.3372 485.227 79.5323 485.227ZM87.8349 481.023L87.8065 478.949H88.1474L92.9201 474.091H94.994L89.9087 479.233H89.7667L87.8349 481.023ZM86.2724 485V470.455H87.9485V485H86.2724ZM93.2042 485L88.9428 479.602L90.136 478.438L95.3349 485H93.2042ZM97.1513 485V474.091H98.7706V475.739H98.8842C99.0831 475.199 99.4429 474.761 99.9638 474.425C100.485 474.089 101.072 473.92 101.725 473.92C101.848 473.92 102.002 473.923 102.187 473.928C102.371 473.932 102.511 473.939 102.606 473.949V475.653C102.549 475.639 102.419 475.618 102.215 475.589C102.016 475.556 101.806 475.54 101.583 475.54C101.053 475.54 100.579 475.651 100.163 475.874C99.7507 476.091 99.424 476.394 99.1825 476.783C98.9458 477.166 98.8274 477.604 98.8274 478.097V485H97.1513ZM108.692 485.227C107.708 485.227 106.844 484.993 106.1 484.524C105.362 484.055 104.784 483.4 104.367 482.557C103.955 481.714 103.749 480.729 103.749 479.602C103.749 478.466 103.955 477.474 104.367 476.626C104.784 475.779 105.362 475.121 106.1 474.652C106.844 474.183 107.708 473.949 108.692 473.949C109.677 473.949 110.539 474.183 111.278 474.652C112.021 475.121 112.599 475.779 113.011 476.626C113.427 477.474 113.636 478.466 113.636 479.602C113.636 480.729 113.427 481.714 113.011 482.557C112.599 483.4 112.021 484.055 111.278 484.524C110.539 484.993 109.677 485.227 108.692 485.227ZM108.692 483.722C109.441 483.722 110.056 483.53 110.539 483.146C111.022 482.763 111.379 482.259 111.612 481.634C111.844 481.009 111.96 480.331 111.96 479.602C111.96 478.873 111.844 478.194 111.612 477.564C111.379 476.934 111.022 476.425 110.539 476.037C110.056 475.649 109.441 475.455 108.692 475.455C107.944 475.455 107.329 475.649 106.846 476.037C106.363 476.425 106.005 476.934 105.773 477.564C105.541 478.194 105.425 478.873 105.425 479.602C105.425 480.331 105.541 481.009 105.773 481.634C106.005 482.259 106.363 482.763 106.846 483.146C107.329 483.53 107.944 483.722 108.692 483.722ZM119.404 485.256C118.713 485.256 118.086 485.125 117.522 484.865C116.959 484.6 116.511 484.219 116.18 483.722C115.849 483.22 115.683 482.614 115.683 481.903C115.683 481.278 115.806 480.772 116.052 480.384C116.298 479.991 116.627 479.683 117.039 479.46C117.451 479.238 117.906 479.072 118.403 478.963C118.905 478.849 119.409 478.759 119.916 478.693C120.579 478.608 121.116 478.544 121.528 478.501C121.945 478.454 122.248 478.376 122.437 478.267C122.631 478.158 122.728 477.969 122.728 477.699V477.642C122.728 476.941 122.537 476.397 122.153 476.009C121.774 475.62 121.199 475.426 120.427 475.426C119.627 475.426 119 475.601 118.545 475.952C118.091 476.302 117.771 476.676 117.586 477.074L115.995 476.506C116.279 475.843 116.658 475.327 117.132 474.957C117.61 474.583 118.131 474.323 118.694 474.176C119.262 474.025 119.821 473.949 120.37 473.949C120.721 473.949 121.123 473.991 121.578 474.077C122.037 474.157 122.48 474.325 122.906 474.581C123.337 474.837 123.694 475.223 123.978 475.739C124.262 476.255 124.404 476.946 124.404 477.812V485H122.728V483.523H122.643C122.529 483.759 122.34 484.013 122.075 484.283C121.81 484.553 121.457 484.782 121.017 484.972C120.576 485.161 120.039 485.256 119.404 485.256ZM119.66 483.75C120.323 483.75 120.882 483.62 121.336 483.359C121.796 483.099 122.141 482.763 122.373 482.351C122.61 481.939 122.728 481.506 122.728 481.051V479.517C122.657 479.602 122.501 479.68 122.26 479.751C122.023 479.818 121.748 479.877 121.436 479.929C121.128 479.976 120.827 480.019 120.534 480.057C120.245 480.09 120.011 480.118 119.831 480.142C119.395 480.199 118.988 480.291 118.609 480.419C118.235 480.542 117.932 480.729 117.7 480.98C117.473 481.226 117.359 481.562 117.359 481.989C117.359 482.571 117.574 483.011 118.005 483.31C118.441 483.603 118.993 483.75 119.66 483.75ZM131.896 485.227C130.873 485.227 129.992 484.986 129.254 484.503C128.515 484.02 127.947 483.355 127.549 482.507C127.151 481.66 126.952 480.691 126.952 479.602C126.952 478.494 127.156 477.517 127.563 476.669C127.975 475.817 128.548 475.152 129.282 474.673C130.021 474.19 130.882 473.949 131.867 473.949C132.634 473.949 133.326 474.091 133.941 474.375C134.557 474.659 135.061 475.057 135.454 475.568C135.847 476.08 136.091 476.676 136.185 477.358H134.509C134.381 476.861 134.097 476.42 133.657 476.037C133.221 475.649 132.634 475.455 131.896 475.455C131.242 475.455 130.669 475.625 130.177 475.966C129.689 476.302 129.308 476.778 129.033 477.393C128.763 478.004 128.629 478.722 128.629 479.545C128.629 480.388 128.761 481.122 129.026 481.747C129.296 482.372 129.675 482.857 130.163 483.203C130.655 483.549 131.233 483.722 131.896 483.722C132.331 483.722 132.727 483.646 133.082 483.494C133.437 483.343 133.737 483.125 133.984 482.841C134.23 482.557 134.405 482.216 134.509 481.818H136.185C136.091 482.462 135.856 483.042 135.482 483.558C135.113 484.07 134.623 484.477 134.012 484.78C133.406 485.078 132.701 485.227 131.896 485.227ZM140.312 478.438V485H138.636V470.455H140.312V475.795H140.454C140.71 475.232 141.093 474.785 141.604 474.453C142.121 474.117 142.807 473.949 143.664 473.949C144.407 473.949 145.058 474.098 145.617 474.396C146.176 474.69 146.609 475.142 146.917 475.753C147.229 476.359 147.386 477.131 147.386 478.068V485H145.71V478.182C145.71 477.315 145.485 476.645 145.035 476.172C144.59 475.694 143.972 475.455 143.181 475.455C142.632 475.455 142.139 475.571 141.704 475.803C141.273 476.035 140.932 476.373 140.681 476.818C140.435 477.263 140.312 477.803 140.312 478.438ZM77.0661 509V494.455H78.8274V507.438H85.5888V509H77.0661ZM91.299 509.256C90.6077 509.256 89.9804 509.125 89.4169 508.865C88.8535 508.6 88.406 508.219 88.0746 507.722C87.7431 507.22 87.5774 506.614 87.5774 505.903C87.5774 505.278 87.7005 504.772 87.9467 504.384C88.1929 503.991 88.522 503.683 88.9339 503.46C89.3459 503.238 89.8004 503.072 90.2976 502.963C90.7995 502.849 91.3037 502.759 91.8104 502.693C92.4732 502.608 93.0107 502.544 93.4226 502.501C93.8393 502.454 94.1423 502.376 94.3317 502.267C94.5258 502.158 94.6229 501.969 94.6229 501.699V501.642C94.6229 500.941 94.4311 500.397 94.0476 500.009C93.6688 499.62 93.0935 499.426 92.3217 499.426C91.5215 499.426 90.8942 499.601 90.4396 499.952C89.9851 500.302 89.6655 500.676 89.4808 501.074L87.8899 500.506C88.174 499.843 88.5528 499.327 89.0263 498.957C89.5045 498.583 90.0253 498.323 90.5888 498.176C91.157 498.025 91.7157 497.949 92.2649 497.949C92.6153 497.949 93.0178 497.991 93.4723 498.077C93.9316 498.157 94.3743 498.325 94.8004 498.581C95.2313 498.837 95.5888 499.223 95.8729 499.739C96.157 500.255 96.299 500.946 96.299 501.812V509H94.6229V507.523H94.5376C94.424 507.759 94.2346 508.013 93.9695 508.283C93.7043 508.553 93.3516 508.782 92.9112 508.972C92.4709 509.161 91.9335 509.256 91.299 509.256ZM91.5547 507.75C92.2176 507.75 92.7763 507.62 93.2308 507.359C93.6901 507.099 94.0357 506.763 94.2678 506.351C94.5045 505.939 94.6229 505.506 94.6229 505.051V503.517C94.5518 503.602 94.3956 503.68 94.1541 503.751C93.9174 503.818 93.6428 503.877 93.3303 503.929C93.0225 503.976 92.7218 504.019 92.4283 504.057C92.1394 504.09 91.9051 504.118 91.7251 504.142C91.2895 504.199 90.8823 504.291 90.5036 504.419C90.1295 504.542 89.8265 504.729 89.5945 504.98C89.3672 505.226 89.2536 505.562 89.2536 505.989C89.2536 506.571 89.469 507.011 89.8999 507.31C90.3355 507.603 90.8871 507.75 91.5547 507.75ZM99.5856 509V494.455H101.262V499.824H101.404C101.527 499.634 101.697 499.393 101.915 499.099C102.138 498.801 102.455 498.536 102.867 498.304C103.283 498.067 103.847 497.949 104.557 497.949C105.476 497.949 106.285 498.179 106.986 498.638C107.687 499.097 108.234 499.748 108.627 500.591C109.02 501.434 109.216 502.428 109.216 503.574C109.216 504.729 109.02 505.731 108.627 506.578C108.234 507.421 107.689 508.074 106.993 508.538C106.297 508.998 105.495 509.227 104.586 509.227C103.885 509.227 103.324 509.111 102.902 508.879C102.481 508.643 102.157 508.375 101.929 508.077C101.702 507.774 101.527 507.523 101.404 507.324H101.205V509H99.5856ZM101.233 503.545C101.233 504.369 101.354 505.096 101.596 505.726C101.837 506.351 102.19 506.841 102.654 507.196C103.118 507.546 103.686 507.722 104.358 507.722C105.059 507.722 105.644 507.537 106.113 507.168C106.586 506.794 106.941 506.292 107.178 505.662C107.419 505.027 107.54 504.322 107.54 503.545C107.54 502.778 107.422 502.087 107.185 501.472C106.953 500.851 106.6 500.361 106.127 500.001C105.658 499.637 105.069 499.455 104.358 499.455C103.676 499.455 103.104 499.627 102.64 499.973C102.176 500.314 101.825 500.792 101.588 501.408C101.352 502.018 101.233 502.731 101.233 503.545ZM119.507 500.534L118.002 500.96C117.907 500.709 117.767 500.465 117.583 500.229C117.403 499.987 117.157 499.788 116.844 499.632C116.532 499.476 116.132 499.398 115.644 499.398C114.976 499.398 114.42 499.552 113.975 499.859C113.534 500.162 113.314 500.548 113.314 501.017C113.314 501.434 113.466 501.763 113.769 502.004C114.072 502.246 114.545 502.447 115.189 502.608L116.809 503.006C117.784 503.242 118.511 503.605 118.989 504.092C119.467 504.575 119.706 505.198 119.706 505.96C119.706 506.585 119.526 507.144 119.167 507.636C118.811 508.129 118.314 508.517 117.675 508.801C117.036 509.085 116.292 509.227 115.445 509.227C114.332 509.227 113.411 508.986 112.682 508.503C111.953 508.02 111.491 507.314 111.297 506.386L112.888 505.989C113.04 506.576 113.326 507.016 113.748 507.31C114.174 507.603 114.73 507.75 115.417 507.75C116.198 507.75 116.818 507.584 117.277 507.253C117.741 506.917 117.973 506.514 117.973 506.045C117.973 505.667 117.841 505.349 117.576 505.094C117.31 504.833 116.903 504.639 116.354 504.511L114.536 504.085C113.537 503.848 112.803 503.482 112.334 502.984C111.87 502.482 111.638 501.855 111.638 501.102C111.638 500.487 111.811 499.942 112.157 499.469C112.507 498.995 112.983 498.624 113.584 498.354C114.19 498.084 114.877 497.949 115.644 497.949C116.723 497.949 117.571 498.186 118.186 498.659C118.807 499.133 119.247 499.758 119.507 500.534Z" fill="black"/>
<path d="M217.278 261.091V262.511H211.625V261.091H217.278ZM213.273 258.477H214.949V268.875C214.949 269.348 215.018 269.704 215.155 269.94C215.297 270.172 215.477 270.329 215.695 270.409C215.917 270.485 216.152 270.523 216.398 270.523C216.582 270.523 216.734 270.513 216.852 270.494C216.971 270.471 217.065 270.452 217.136 270.438L217.477 271.943C217.364 271.986 217.205 272.028 217.001 272.071C216.798 272.118 216.54 272.142 216.227 272.142C215.754 272.142 215.29 272.04 214.835 271.837C214.385 271.633 214.011 271.323 213.713 270.906C213.42 270.49 213.273 269.964 213.273 269.33V258.477ZM220.261 272V257.455H225.176C226.313 257.455 227.245 257.649 227.974 258.037C228.704 258.42 229.243 258.948 229.594 259.621C229.944 260.293 230.119 261.058 230.119 261.915C230.119 262.772 229.944 263.532 229.594 264.195C229.243 264.857 228.706 265.378 227.982 265.757C227.257 266.131 226.331 266.318 225.205 266.318H221.227V264.727H225.148C225.924 264.727 226.549 264.614 227.023 264.386C227.501 264.159 227.847 263.837 228.06 263.42C228.277 262.999 228.386 262.497 228.386 261.915C228.386 261.332 228.277 260.823 228.06 260.388C227.842 259.952 227.494 259.616 227.016 259.379C226.537 259.138 225.905 259.017 225.119 259.017H222.023V272H220.261ZM227.108 265.466L230.688 272H228.642L225.119 265.466H227.108ZM233.054 272V257.455H237.969C239.11 257.455 240.043 257.661 240.767 258.072C241.497 258.48 242.036 259.031 242.387 259.727C242.737 260.423 242.912 261.2 242.912 262.057C242.912 262.914 242.737 263.693 242.387 264.393C242.041 265.094 241.506 265.653 240.782 266.07C240.057 266.482 239.129 266.688 237.998 266.688H234.475V265.125H237.941C238.722 265.125 239.349 264.99 239.823 264.72C240.296 264.45 240.64 264.086 240.853 263.626C241.07 263.162 241.179 262.639 241.179 262.057C241.179 261.474 241.07 260.954 240.853 260.494C240.64 260.035 240.294 259.675 239.816 259.415C239.337 259.15 238.703 259.017 237.912 259.017H234.816V272H233.054ZM257.454 262H255.693C255.589 261.493 255.406 261.048 255.146 260.665C254.89 260.281 254.578 259.959 254.208 259.699C253.844 259.434 253.439 259.235 252.994 259.102C252.549 258.97 252.085 258.903 251.602 258.903C250.721 258.903 249.923 259.126 249.208 259.571C248.498 260.016 247.932 260.672 247.511 261.538C247.094 262.405 246.886 263.468 246.886 264.727C246.886 265.987 247.094 267.05 247.511 267.916C247.932 268.783 248.498 269.438 249.208 269.884C249.923 270.329 250.721 270.551 251.602 270.551C252.085 270.551 252.549 270.485 252.994 270.352C253.439 270.22 253.844 270.023 254.208 269.763C254.578 269.498 254.89 269.173 255.146 268.79C255.406 268.402 255.589 267.956 255.693 267.455H257.454C257.322 268.198 257.08 268.863 256.73 269.45C256.379 270.037 255.944 270.537 255.423 270.949C254.902 271.356 254.317 271.666 253.669 271.879C253.025 272.092 252.336 272.199 251.602 272.199C250.361 272.199 249.258 271.896 248.292 271.29C247.326 270.684 246.566 269.822 246.012 268.705C245.458 267.587 245.181 266.261 245.181 264.727C245.181 263.193 245.458 261.867 246.012 260.75C246.566 259.633 247.326 258.771 248.292 258.165C249.258 257.559 250.361 257.256 251.602 257.256C252.336 257.256 253.025 257.362 253.669 257.575C254.317 257.788 254.902 258.101 255.423 258.513C255.944 258.92 256.379 259.417 256.73 260.004C257.08 260.587 257.322 261.252 257.454 262Z" fill="black"/>
<path d="M200.238 485V470.455H205.153C206.294 470.455 207.227 470.661 207.951 471.072C208.68 471.48 209.22 472.031 209.57 472.727C209.921 473.423 210.096 474.2 210.096 475.057C210.096 475.914 209.921 476.693 209.57 477.393C209.225 478.094 208.69 478.653 207.965 479.07C207.241 479.482 206.313 479.688 205.181 479.688H201.658V478.125H205.124C205.906 478.125 206.533 477.99 207.006 477.72C207.48 477.45 207.823 477.086 208.036 476.626C208.254 476.162 208.363 475.639 208.363 475.057C208.363 474.474 208.254 473.954 208.036 473.494C207.823 473.035 207.478 472.675 206.999 472.415C206.521 472.15 205.887 472.017 205.096 472.017H201.999V485H200.238ZM217.021 485.227C216.036 485.227 215.172 484.993 214.428 484.524C213.69 484.055 213.112 483.4 212.695 482.557C212.283 481.714 212.077 480.729 212.077 479.602C212.077 478.466 212.283 477.474 212.695 476.626C213.112 475.779 213.69 475.121 214.428 474.652C215.172 474.183 216.036 473.949 217.021 473.949C218.005 473.949 218.867 474.183 219.606 474.652C220.349 475.121 220.927 475.779 221.339 476.626C221.755 477.474 221.964 478.466 221.964 479.602C221.964 480.729 221.755 481.714 221.339 482.557C220.927 483.4 220.349 484.055 219.606 484.524C218.867 484.993 218.005 485.227 217.021 485.227ZM217.021 483.722C217.769 483.722 218.384 483.53 218.867 483.146C219.35 482.763 219.708 482.259 219.94 481.634C220.172 481.009 220.288 480.331 220.288 479.602C220.288 478.873 220.172 478.194 219.94 477.564C219.708 476.934 219.35 476.425 218.867 476.037C218.384 475.649 217.769 475.455 217.021 475.455C216.272 475.455 215.657 475.649 215.174 476.037C214.691 476.425 214.334 476.934 214.102 477.564C213.87 478.194 213.754 478.873 213.754 479.602C213.754 480.331 213.87 481.009 214.102 481.634C214.334 482.259 214.691 482.763 215.174 483.146C215.657 483.53 216.272 483.722 217.021 483.722ZM232.25 476.534L230.744 476.96C230.649 476.709 230.51 476.465 230.325 476.229C230.145 475.987 229.899 475.788 229.586 475.632C229.274 475.476 228.874 475.398 228.386 475.398C227.718 475.398 227.162 475.552 226.717 475.859C226.277 476.162 226.056 476.548 226.056 477.017C226.056 477.434 226.208 477.763 226.511 478.004C226.814 478.246 227.288 478.447 227.931 478.608L229.551 479.006C230.526 479.242 231.253 479.605 231.731 480.092C232.209 480.575 232.449 481.198 232.449 481.96C232.449 482.585 232.269 483.144 231.909 483.636C231.554 484.129 231.056 484.517 230.417 484.801C229.778 485.085 229.035 485.227 228.187 485.227C227.074 485.227 226.154 484.986 225.424 484.503C224.695 484.02 224.234 483.314 224.039 482.386L225.63 481.989C225.782 482.576 226.068 483.016 226.49 483.31C226.916 483.603 227.472 483.75 228.159 483.75C228.94 483.75 229.56 483.584 230.02 483.253C230.484 482.917 230.716 482.514 230.716 482.045C230.716 481.667 230.583 481.349 230.318 481.094C230.053 480.833 229.645 480.639 229.096 480.511L227.278 480.085C226.279 479.848 225.545 479.482 225.076 478.984C224.612 478.482 224.38 477.855 224.38 477.102C224.38 476.487 224.553 475.942 224.899 475.469C225.249 474.995 225.725 474.624 226.326 474.354C226.932 474.084 227.619 473.949 228.386 473.949C229.466 473.949 230.313 474.186 230.929 474.659C231.549 475.133 231.989 475.758 232.25 476.534ZM239.716 474.091V475.511H234.062V474.091H239.716ZM235.71 471.477H237.386V481.875C237.386 482.348 237.455 482.704 237.592 482.94C237.734 483.172 237.914 483.329 238.132 483.409C238.355 483.485 238.589 483.523 238.835 483.523C239.02 483.523 239.171 483.513 239.29 483.494C239.408 483.471 239.503 483.452 239.574 483.438L239.915 484.943C239.801 484.986 239.643 485.028 239.439 485.071C239.235 485.118 238.977 485.142 238.665 485.142C238.191 485.142 237.727 485.04 237.273 484.837C236.823 484.633 236.449 484.323 236.151 483.906C235.857 483.49 235.71 482.964 235.71 482.33V471.477ZM246.523 489.318C245.714 489.318 245.018 489.214 244.435 489.006C243.853 488.802 243.368 488.532 242.979 488.196C242.596 487.865 242.29 487.509 242.063 487.131L243.398 486.193C243.55 486.392 243.742 486.619 243.974 486.875C244.206 487.135 244.523 487.36 244.925 487.55C245.333 487.744 245.865 487.841 246.523 487.841C247.404 487.841 248.131 487.628 248.704 487.202C249.277 486.776 249.563 486.108 249.563 485.199V482.983H249.421C249.298 483.182 249.123 483.428 248.896 483.722C248.673 484.01 248.351 484.268 247.93 484.496C247.513 484.718 246.95 484.83 246.239 484.83C245.359 484.83 244.568 484.621 243.867 484.205C243.171 483.788 242.62 483.182 242.212 482.386C241.81 481.591 241.609 480.625 241.609 479.489C241.609 478.371 241.805 477.398 242.198 476.57C242.591 475.736 243.138 475.092 243.839 474.638C244.54 474.179 245.349 473.949 246.268 473.949C246.978 473.949 247.541 474.067 247.958 474.304C248.379 474.536 248.701 474.801 248.924 475.099C249.151 475.393 249.326 475.634 249.45 475.824H249.62V474.091H251.239V485.312C251.239 486.25 251.026 487.012 250.6 487.599C250.179 488.191 249.611 488.625 248.896 488.899C248.185 489.179 247.395 489.318 246.523 489.318ZM246.467 483.324C247.139 483.324 247.707 483.17 248.171 482.862C248.635 482.554 248.988 482.112 249.229 481.534C249.471 480.956 249.592 480.265 249.592 479.46C249.592 478.674 249.473 477.981 249.237 477.379C249 476.778 248.649 476.307 248.185 475.966C247.721 475.625 247.148 475.455 246.467 475.455C245.756 475.455 245.165 475.634 244.691 475.994C244.222 476.354 243.87 476.837 243.633 477.443C243.401 478.049 243.285 478.722 243.285 479.46C243.285 480.218 243.403 480.888 243.64 481.47C243.881 482.048 244.237 482.502 244.705 482.834C245.179 483.161 245.766 483.324 246.467 483.324ZM254.308 485V474.091H255.927V475.739H256.04C256.239 475.199 256.599 474.761 257.12 474.425C257.641 474.089 258.228 473.92 258.881 473.92C259.004 473.92 259.158 473.923 259.343 473.928C259.528 473.932 259.667 473.939 259.762 473.949V475.653C259.705 475.639 259.575 475.618 259.371 475.589C259.173 475.556 258.962 475.54 258.739 475.54C258.209 475.54 257.736 475.651 257.319 475.874C256.907 476.091 256.58 476.394 256.339 476.783C256.102 477.166 255.984 477.604 255.984 478.097V485H254.308ZM265.991 485.227C264.94 485.227 264.033 484.995 263.271 484.531C262.513 484.062 261.928 483.409 261.516 482.571C261.109 481.728 260.906 480.748 260.906 479.631C260.906 478.513 261.109 477.528 261.516 476.676C261.928 475.819 262.501 475.152 263.235 474.673C263.974 474.19 264.835 473.949 265.82 473.949C266.388 473.949 266.95 474.044 267.504 474.233C268.058 474.422 268.562 474.73 269.016 475.156C269.471 475.578 269.833 476.136 270.103 476.832C270.373 477.528 270.508 478.385 270.508 479.403V480.114H262.099V478.665H268.803C268.803 478.049 268.68 477.5 268.434 477.017C268.192 476.534 267.847 476.153 267.397 475.874C266.952 475.594 266.426 475.455 265.82 475.455C265.153 475.455 264.575 475.62 264.087 475.952C263.604 476.278 263.233 476.705 262.972 477.23C262.712 477.756 262.582 478.319 262.582 478.92V479.886C262.582 480.71 262.724 481.409 263.008 481.982C263.297 482.55 263.697 482.983 264.208 483.281C264.719 483.575 265.314 483.722 265.991 483.722C266.431 483.722 266.829 483.66 267.184 483.537C267.544 483.409 267.854 483.22 268.114 482.969C268.375 482.713 268.576 482.396 268.718 482.017L270.337 482.472C270.167 483.021 269.88 483.504 269.478 483.92C269.076 484.332 268.578 484.654 267.987 484.886C267.395 485.114 266.729 485.227 265.991 485.227ZM225.097 498.091C225.012 497.371 224.666 496.812 224.06 496.415C223.454 496.017 222.71 495.818 221.83 495.818C221.186 495.818 220.622 495.922 220.139 496.131C219.661 496.339 219.287 496.625 219.017 496.99C218.752 497.355 218.619 497.769 218.619 498.233C218.619 498.621 218.712 498.955 218.896 499.234C219.086 499.509 219.327 499.739 219.621 499.923C219.914 500.103 220.222 500.252 220.544 500.371C220.866 500.484 221.162 500.577 221.432 500.648L222.909 501.045C223.288 501.145 223.709 501.282 224.173 501.457C224.642 501.633 225.09 501.872 225.516 502.175C225.947 502.473 226.302 502.857 226.581 503.325C226.861 503.794 227 504.369 227 505.051C227 505.837 226.794 506.547 226.382 507.182C225.975 507.816 225.378 508.321 224.593 508.695C223.811 509.069 222.862 509.256 221.744 509.256C220.703 509.256 219.801 509.088 219.039 508.751C218.281 508.415 217.684 507.946 217.249 507.345C216.818 506.744 216.574 506.045 216.517 505.25H218.335C218.383 505.799 218.567 506.254 218.889 506.614C219.216 506.969 219.628 507.234 220.125 507.409C220.627 507.58 221.167 507.665 221.744 507.665C222.417 507.665 223.021 507.556 223.556 507.338C224.091 507.116 224.514 506.808 224.827 506.415C225.139 506.017 225.296 505.553 225.296 505.023C225.296 504.54 225.161 504.147 224.891 503.844C224.621 503.541 224.266 503.295 223.825 503.105C223.385 502.916 222.909 502.75 222.398 502.608L220.608 502.097C219.472 501.77 218.572 501.304 217.909 500.697C217.246 500.091 216.915 499.298 216.915 498.318C216.915 497.504 217.135 496.794 217.575 496.188C218.021 495.577 218.617 495.103 219.365 494.767C220.118 494.426 220.959 494.256 221.887 494.256C222.824 494.256 223.657 494.424 224.387 494.76C225.116 495.091 225.693 495.546 226.119 496.124C226.55 496.701 226.778 497.357 226.801 498.091H225.097ZM235.18 504.455H237.112L238.731 506.585L239.157 507.153L241.572 510.364H239.64L238.05 508.233L237.652 507.693L235.18 504.455ZM242.169 501.727C242.169 503.261 241.892 504.587 241.338 505.705C240.784 506.822 240.024 507.684 239.058 508.29C238.092 508.896 236.989 509.199 235.748 509.199C234.508 509.199 233.405 508.896 232.439 508.29C231.473 507.684 230.713 506.822 230.159 505.705C229.605 504.587 229.328 503.261 229.328 501.727C229.328 500.193 229.605 498.867 230.159 497.75C230.713 496.633 231.473 495.771 232.439 495.165C233.405 494.559 234.508 494.256 235.748 494.256C236.989 494.256 238.092 494.559 239.058 495.165C240.024 495.771 240.784 496.633 241.338 497.75C241.892 498.867 242.169 500.193 242.169 501.727ZM240.464 501.727C240.464 500.468 240.254 499.405 239.832 498.538C239.416 497.672 238.85 497.016 238.135 496.571C237.425 496.126 236.629 495.903 235.748 495.903C234.868 495.903 234.07 496.126 233.355 496.571C232.645 497.016 232.079 497.672 231.657 498.538C231.241 499.405 231.032 500.468 231.032 501.727C231.032 502.987 231.241 504.05 231.657 504.916C232.079 505.783 232.645 506.438 233.355 506.884C234.07 507.329 234.868 507.551 235.748 507.551C236.629 507.551 237.425 507.329 238.135 506.884C238.85 506.438 239.416 505.783 239.832 504.916C240.254 504.05 240.464 502.987 240.464 501.727ZM245.131 509V494.455H246.892V507.438H253.653V509H245.131Z" fill="black"/>
<path d="M326.761 272V257.455H331.676C332.817 257.455 333.75 257.661 334.474 258.072C335.204 258.48 335.743 259.031 336.094 259.727C336.444 260.423 336.619 261.2 336.619 262.057C336.619 262.914 336.444 263.693 336.094 264.393C335.748 265.094 335.213 265.653 334.489 266.07C333.764 266.482 332.836 266.688 331.705 266.688H328.182V265.125H331.648C332.429 265.125 333.056 264.99 333.53 264.72C334.003 264.45 334.347 264.086 334.56 263.626C334.777 263.162 334.886 262.639 334.886 262.057C334.886 261.474 334.777 260.954 334.56 260.494C334.347 260.035 334.001 259.675 333.523 259.415C333.045 259.15 332.41 259.017 331.619 259.017H328.523V272H326.761ZM339.229 272V261.091H340.849V262.739H340.962C341.161 262.199 341.521 261.761 342.042 261.425C342.563 261.089 343.15 260.92 343.803 260.92C343.926 260.92 344.08 260.923 344.265 260.928C344.45 260.932 344.589 260.939 344.684 260.949V262.653C344.627 262.639 344.497 262.618 344.293 262.589C344.094 262.556 343.884 262.54 343.661 262.54C343.131 262.54 342.657 262.651 342.241 262.874C341.829 263.091 341.502 263.394 341.261 263.783C341.024 264.166 340.906 264.604 340.906 265.097V272H339.229ZM346.671 272V261.091H348.347V272H346.671ZM347.523 259.273C347.196 259.273 346.915 259.161 346.678 258.939C346.446 258.716 346.33 258.449 346.33 258.136C346.33 257.824 346.446 257.556 346.678 257.334C346.915 257.111 347.196 257 347.523 257C347.85 257 348.129 257.111 348.361 257.334C348.598 257.556 348.716 257.824 348.716 258.136C348.716 258.449 348.598 258.716 348.361 258.939C348.129 259.161 347.85 259.273 347.523 259.273ZM359.144 263.534L357.638 263.96C357.544 263.709 357.404 263.465 357.219 263.229C357.04 262.987 356.793 262.788 356.481 262.632C356.168 262.476 355.768 262.398 355.281 262.398C354.613 262.398 354.057 262.552 353.612 262.859C353.171 263.162 352.951 263.548 352.951 264.017C352.951 264.434 353.103 264.763 353.406 265.004C353.709 265.246 354.182 265.447 354.826 265.608L356.445 266.006C357.421 266.242 358.147 266.605 358.626 267.092C359.104 267.575 359.343 268.198 359.343 268.96C359.343 269.585 359.163 270.144 358.803 270.636C358.448 271.129 357.951 271.517 357.312 271.801C356.673 272.085 355.929 272.227 355.082 272.227C353.969 272.227 353.048 271.986 352.319 271.503C351.59 271.02 351.128 270.314 350.934 269.386L352.525 268.989C352.676 269.576 352.963 270.016 353.384 270.31C353.81 270.603 354.367 270.75 355.053 270.75C355.835 270.75 356.455 270.584 356.914 270.253C357.378 269.917 357.61 269.514 357.61 269.045C357.61 268.667 357.478 268.349 357.212 268.094C356.947 267.833 356.54 267.639 355.991 267.511L354.173 267.085C353.174 266.848 352.44 266.482 351.971 265.984C351.507 265.482 351.275 264.855 351.275 264.102C351.275 263.487 351.448 262.942 351.793 262.469C352.144 261.995 352.62 261.624 353.221 261.354C353.827 261.084 354.513 260.949 355.281 260.949C356.36 260.949 357.208 261.186 357.823 261.659C358.443 262.133 358.884 262.758 359.144 263.534ZM361.866 272V261.091H363.485V262.795H363.627C363.855 262.213 364.222 261.761 364.728 261.439C365.235 261.112 365.843 260.949 366.554 260.949C367.273 260.949 367.872 261.112 368.35 261.439C368.833 261.761 369.21 262.213 369.48 262.795H369.593C369.873 262.232 370.292 261.785 370.85 261.453C371.409 261.117 372.079 260.949 372.86 260.949C373.836 260.949 374.634 261.254 375.254 261.865C375.874 262.471 376.184 263.416 376.184 264.699V272H374.508V264.699C374.508 263.894 374.288 263.319 373.848 262.973C373.407 262.627 372.889 262.455 372.292 262.455C371.525 262.455 370.931 262.687 370.51 263.151C370.088 263.61 369.877 264.192 369.877 264.898V272H368.173V264.528C368.173 263.908 367.972 263.409 367.569 263.03C367.167 262.646 366.648 262.455 366.014 262.455C365.578 262.455 365.171 262.571 364.792 262.803C364.418 263.035 364.115 263.357 363.883 263.768C363.656 264.176 363.542 264.647 363.542 265.182V272H361.866ZM382.459 272.256C381.768 272.256 381.141 272.125 380.577 271.865C380.014 271.6 379.566 271.219 379.235 270.722C378.903 270.22 378.738 269.614 378.738 268.903C378.738 268.278 378.861 267.772 379.107 267.384C379.353 266.991 379.682 266.683 380.094 266.46C380.506 266.238 380.961 266.072 381.458 265.963C381.96 265.849 382.464 265.759 382.971 265.693C383.633 265.608 384.171 265.544 384.583 265.501C384.999 265.454 385.302 265.376 385.492 265.267C385.686 265.158 385.783 264.969 385.783 264.699V264.642C385.783 263.941 385.591 263.397 385.208 263.009C384.829 262.62 384.254 262.426 383.482 262.426C382.682 262.426 382.054 262.601 381.6 262.952C381.145 263.302 380.826 263.676 380.641 264.074L379.05 263.506C379.334 262.843 379.713 262.327 380.186 261.957C380.665 261.583 381.185 261.323 381.749 261.176C382.317 261.025 382.876 260.949 383.425 260.949C383.775 260.949 384.178 260.991 384.632 261.077C385.092 261.157 385.534 261.325 385.961 261.581C386.391 261.837 386.749 262.223 387.033 262.739C387.317 263.255 387.459 263.946 387.459 264.812V272H385.783V270.523H385.698C385.584 270.759 385.395 271.013 385.13 271.283C384.864 271.553 384.512 271.782 384.071 271.972C383.631 272.161 383.094 272.256 382.459 272.256ZM382.715 270.75C383.378 270.75 383.936 270.62 384.391 270.359C384.85 270.099 385.196 269.763 385.428 269.351C385.665 268.939 385.783 268.506 385.783 268.051V266.517C385.712 266.602 385.556 266.68 385.314 266.751C385.078 266.818 384.803 266.877 384.49 266.929C384.183 266.976 383.882 267.019 383.588 267.057C383.3 267.09 383.065 267.118 382.885 267.142C382.45 267.199 382.042 267.291 381.664 267.419C381.29 267.542 380.987 267.729 380.755 267.98C380.527 268.226 380.414 268.562 380.414 268.989C380.414 269.571 380.629 270.011 381.06 270.31C381.496 270.603 382.047 270.75 382.715 270.75Z" fill="black"/>
<path d="M316.761 470.455H318.864L323.807 482.528H323.977L328.92 470.455H331.023V485H329.375V473.949H329.233L324.688 485H323.097L318.551 473.949H318.409V485H316.761V470.455ZM338.759 485.227C337.774 485.227 336.91 484.993 336.167 484.524C335.428 484.055 334.85 483.4 334.434 482.557C334.022 481.714 333.816 480.729 333.816 479.602C333.816 478.466 334.022 477.474 334.434 476.626C334.85 475.779 335.428 475.121 336.167 474.652C336.91 474.183 337.774 473.949 338.759 473.949C339.744 473.949 340.605 474.183 341.344 474.652C342.087 475.121 342.665 475.779 343.077 476.626C343.494 477.474 343.702 478.466 343.702 479.602C343.702 480.729 343.494 481.714 343.077 482.557C342.665 483.4 342.087 484.055 341.344 484.524C340.605 484.993 339.744 485.227 338.759 485.227ZM338.759 483.722C339.507 483.722 340.123 483.53 340.605 483.146C341.088 482.763 341.446 482.259 341.678 481.634C341.91 481.009 342.026 480.331 342.026 479.602C342.026 478.873 341.91 478.194 341.678 477.564C341.446 476.934 341.088 476.425 340.605 476.037C340.123 475.649 339.507 475.455 338.759 475.455C338.011 475.455 337.395 475.649 336.912 476.037C336.429 476.425 336.072 476.934 335.84 477.564C335.608 478.194 335.492 478.873 335.492 479.602C335.492 480.331 335.608 481.009 335.84 481.634C336.072 482.259 336.429 482.763 336.912 483.146C337.395 483.53 338.011 483.722 338.759 483.722ZM347.937 478.438V485H346.261V474.091H347.88V475.795H348.022C348.278 475.241 348.666 474.796 349.187 474.46C349.708 474.119 350.38 473.949 351.204 473.949C351.942 473.949 352.589 474.1 353.143 474.403C353.697 474.702 354.128 475.156 354.435 475.767C354.743 476.373 354.897 477.14 354.897 478.068V485H353.221V478.182C353.221 477.325 352.998 476.657 352.553 476.179C352.108 475.696 351.497 475.455 350.721 475.455C350.186 475.455 349.708 475.571 349.286 475.803C348.87 476.035 348.54 476.373 348.299 476.818C348.058 477.263 347.937 477.803 347.937 478.438ZM362.363 489.318C361.554 489.318 360.858 489.214 360.275 489.006C359.693 488.802 359.208 488.532 358.819 488.196C358.436 487.865 358.13 487.509 357.903 487.131L359.238 486.193C359.39 486.392 359.582 486.619 359.814 486.875C360.046 487.135 360.363 487.36 360.765 487.55C361.172 487.744 361.705 487.841 362.363 487.841C363.244 487.841 363.971 487.628 364.544 487.202C365.117 486.776 365.403 486.108 365.403 485.199V482.983H365.261C365.138 483.182 364.963 483.428 364.735 483.722C364.513 484.01 364.191 484.268 363.77 484.496C363.353 484.718 362.789 484.83 362.079 484.83C361.199 484.83 360.408 484.621 359.707 484.205C359.011 483.788 358.459 483.182 358.052 482.386C357.65 481.591 357.449 480.625 357.449 479.489C357.449 478.371 357.645 477.398 358.038 476.57C358.431 475.736 358.978 475.092 359.679 474.638C360.379 474.179 361.189 473.949 362.108 473.949C362.818 473.949 363.381 474.067 363.798 474.304C364.219 474.536 364.541 474.801 364.764 475.099C364.991 475.393 365.166 475.634 365.289 475.824H365.46V474.091H367.079V485.312C367.079 486.25 366.866 487.012 366.44 487.599C366.019 488.191 365.45 488.625 364.735 488.899C364.025 489.179 363.234 489.318 362.363 489.318ZM362.306 483.324C362.979 483.324 363.547 483.17 364.011 482.862C364.475 482.554 364.828 482.112 365.069 481.534C365.311 480.956 365.431 480.265 365.431 479.46C365.431 478.674 365.313 477.981 365.076 477.379C364.84 476.778 364.489 476.307 364.025 475.966C363.561 475.625 362.988 475.455 362.306 475.455C361.596 475.455 361.004 475.634 360.531 475.994C360.062 476.354 359.709 476.837 359.473 477.443C359.241 478.049 359.125 478.722 359.125 479.46C359.125 480.218 359.243 480.888 359.48 481.47C359.721 482.048 360.076 482.502 360.545 482.834C361.019 483.161 361.606 483.324 362.306 483.324ZM374.579 485.227C373.594 485.227 372.73 484.993 371.987 484.524C371.248 484.055 370.671 483.4 370.254 482.557C369.842 481.714 369.636 480.729 369.636 479.602C369.636 478.466 369.842 477.474 370.254 476.626C370.671 475.779 371.248 475.121 371.987 474.652C372.73 474.183 373.594 473.949 374.579 473.949C375.564 473.949 376.426 474.183 377.164 474.652C377.908 475.121 378.485 475.779 378.897 476.626C379.314 477.474 379.522 478.466 379.522 479.602C379.522 480.729 379.314 481.714 378.897 482.557C378.485 483.4 377.908 484.055 377.164 484.524C376.426 484.993 375.564 485.227 374.579 485.227ZM374.579 483.722C375.327 483.722 375.943 483.53 376.426 483.146C376.909 482.763 377.266 482.259 377.498 481.634C377.73 481.009 377.846 480.331 377.846 479.602C377.846 478.873 377.73 478.194 377.498 477.564C377.266 476.934 376.909 476.425 376.426 476.037C375.943 475.649 375.327 475.455 374.579 475.455C373.831 475.455 373.216 475.649 372.733 476.037C372.25 476.425 371.892 476.934 371.66 477.564C371.428 478.194 371.312 478.873 371.312 479.602C371.312 480.331 371.428 481.009 371.66 481.634C371.892 482.259 372.25 482.763 372.733 483.146C373.216 483.53 373.831 483.722 374.579 483.722ZM386.797 485H382.308V470.455H386.996C388.407 470.455 389.614 470.746 390.618 471.328C391.622 471.906 392.391 472.737 392.926 473.821C393.461 474.901 393.729 476.193 393.729 477.699C393.729 479.214 393.459 480.518 392.919 481.612C392.379 482.701 391.593 483.539 390.561 484.126C389.529 484.709 388.274 485 386.797 485ZM384.07 483.438H386.683C387.886 483.438 388.883 483.205 389.673 482.741C390.464 482.277 391.054 481.617 391.442 480.76C391.83 479.903 392.024 478.883 392.024 477.699C392.024 476.525 391.832 475.514 391.449 474.666C391.065 473.814 390.492 473.161 389.73 472.706C388.968 472.247 388.018 472.017 386.882 472.017H384.07V483.438ZM396.683 485V470.455H401.768C402.782 470.455 403.617 470.63 404.276 470.98C404.934 471.326 405.424 471.792 405.746 472.379C406.068 472.962 406.229 473.608 406.229 474.318C406.229 474.943 406.117 475.459 405.895 475.866C405.677 476.274 405.388 476.596 405.028 476.832C404.673 477.069 404.287 477.244 403.871 477.358V477.5C404.316 477.528 404.763 477.685 405.213 477.969C405.663 478.253 406.039 478.66 406.342 479.19C406.645 479.721 406.797 480.369 406.797 481.136C406.797 481.866 406.631 482.521 406.3 483.104C405.968 483.686 405.445 484.148 404.73 484.489C404.015 484.83 403.085 485 401.939 485H396.683ZM398.445 483.438H401.939C403.089 483.438 403.906 483.215 404.389 482.77C404.877 482.32 405.121 481.776 405.121 481.136C405.121 480.644 404.995 480.189 404.744 479.773C404.493 479.351 404.136 479.015 403.672 478.764C403.208 478.509 402.659 478.381 402.024 478.381H398.445V483.438ZM398.445 476.847H401.712C402.242 476.847 402.72 476.742 403.146 476.534C403.577 476.326 403.918 476.032 404.169 475.653C404.425 475.275 404.553 474.83 404.553 474.318C404.553 473.679 404.33 473.137 403.885 472.692C403.44 472.242 402.734 472.017 401.768 472.017H398.445V476.847Z" fill="black"/>
<path d="M462.761 272V257.455H467.676C468.817 257.455 469.75 257.661 470.474 258.072C471.204 258.48 471.743 259.031 472.094 259.727C472.444 260.423 472.619 261.2 472.619 262.057C472.619 262.914 472.444 263.693 472.094 264.393C471.748 265.094 471.213 265.653 470.489 266.07C469.764 266.482 468.836 266.688 467.705 266.688H464.182V265.125H467.648C468.429 265.125 469.056 264.99 469.53 264.72C470.003 264.45 470.347 264.086 470.56 263.626C470.777 263.162 470.886 262.639 470.886 262.057C470.886 261.474 470.777 260.954 470.56 260.494C470.347 260.035 470.001 259.675 469.523 259.415C469.045 259.15 468.41 259.017 467.619 259.017H464.523V272H462.761ZM482.104 267.54V261.091H483.781V272H482.104V270.153H481.991C481.735 270.707 481.337 271.179 480.798 271.567C480.258 271.95 479.576 272.142 478.752 272.142C478.07 272.142 477.464 271.993 476.934 271.695C476.404 271.392 475.987 270.937 475.684 270.331C475.381 269.72 475.229 268.951 475.229 268.023V261.091H476.906V267.909C476.906 268.705 477.128 269.339 477.573 269.812C478.023 270.286 478.596 270.523 479.292 270.523C479.709 270.523 480.132 270.416 480.563 270.203C480.999 269.99 481.363 269.663 481.657 269.223C481.955 268.783 482.104 268.222 482.104 267.54ZM494.578 263.534L493.072 263.96C492.977 263.709 492.838 263.465 492.653 263.229C492.473 262.987 492.227 262.788 491.914 262.632C491.602 262.476 491.202 262.398 490.714 262.398C490.047 262.398 489.49 262.552 489.045 262.859C488.605 263.162 488.385 263.548 488.385 264.017C488.385 264.434 488.536 264.763 488.839 265.004C489.142 265.246 489.616 265.447 490.26 265.608L491.879 266.006C492.854 266.242 493.581 266.605 494.059 267.092C494.538 267.575 494.777 268.198 494.777 268.96C494.777 269.585 494.597 270.144 494.237 270.636C493.882 271.129 493.385 271.517 492.745 271.801C492.106 272.085 491.363 272.227 490.515 272.227C489.403 272.227 488.482 271.986 487.752 271.503C487.023 271.02 486.562 270.314 486.368 269.386L487.958 268.989C488.11 269.576 488.396 270.016 488.818 270.31C489.244 270.603 489.8 270.75 490.487 270.75C491.268 270.75 491.888 270.584 492.348 270.253C492.812 269.917 493.044 269.514 493.044 269.045C493.044 268.667 492.911 268.349 492.646 268.094C492.381 267.833 491.974 267.639 491.424 267.511L489.606 267.085C488.607 266.848 487.873 266.482 487.404 265.984C486.94 265.482 486.708 264.855 486.708 264.102C486.708 263.487 486.881 262.942 487.227 262.469C487.577 261.995 488.053 261.624 488.654 261.354C489.261 261.084 489.947 260.949 490.714 260.949C491.794 260.949 492.641 261.186 493.257 261.659C493.877 262.133 494.317 262.758 494.578 263.534ZM498.976 265.438V272H497.3V257.455H498.976V262.795H499.118C499.374 262.232 499.757 261.785 500.268 261.453C500.785 261.117 501.471 260.949 502.328 260.949C503.071 260.949 503.723 261.098 504.281 261.396C504.84 261.69 505.273 262.142 505.581 262.753C505.893 263.359 506.05 264.131 506.05 265.068V272H504.374V265.182C504.374 264.315 504.149 263.645 503.699 263.172C503.254 262.694 502.636 262.455 501.845 262.455C501.296 262.455 500.804 262.571 500.368 262.803C499.937 263.035 499.596 263.373 499.345 263.818C499.099 264.263 498.976 264.803 498.976 265.438ZM513.69 272.227C512.639 272.227 511.732 271.995 510.97 271.531C510.212 271.062 509.627 270.409 509.216 269.571C508.808 268.728 508.605 267.748 508.605 266.631C508.605 265.513 508.808 264.528 509.216 263.676C509.627 262.819 510.2 262.152 510.934 261.673C511.673 261.19 512.535 260.949 513.52 260.949C514.088 260.949 514.649 261.044 515.203 261.233C515.757 261.422 516.261 261.73 516.716 262.156C517.17 262.578 517.532 263.136 517.802 263.832C518.072 264.528 518.207 265.385 518.207 266.403V267.114H509.798V265.665H516.502C516.502 265.049 516.379 264.5 516.133 264.017C515.892 263.534 515.546 263.153 515.096 262.874C514.651 262.594 514.126 262.455 513.52 262.455C512.852 262.455 512.274 262.62 511.787 262.952C511.304 263.278 510.932 263.705 510.672 264.23C510.411 264.756 510.281 265.319 510.281 265.92V266.886C510.281 267.71 510.423 268.409 510.707 268.982C510.996 269.55 511.396 269.983 511.907 270.281C512.419 270.575 513.013 270.722 513.69 270.722C514.13 270.722 514.528 270.66 514.883 270.537C515.243 270.409 515.553 270.22 515.814 269.969C516.074 269.713 516.275 269.396 516.417 269.017L518.037 269.472C517.866 270.021 517.58 270.504 517.177 270.92C516.775 271.332 516.278 271.654 515.686 271.886C515.094 272.114 514.429 272.227 513.69 272.227ZM520.757 272V261.091H522.376V262.739H522.49C522.689 262.199 523.048 261.761 523.569 261.425C524.09 261.089 524.677 260.92 525.331 260.92C525.454 260.92 525.608 260.923 525.792 260.928C525.977 260.932 526.117 260.939 526.211 260.949V262.653C526.154 262.639 526.024 262.618 525.821 262.589C525.622 262.556 525.411 262.54 525.189 262.54C524.658 262.54 524.185 262.651 523.768 262.874C523.356 263.091 523.029 263.394 522.788 263.783C522.551 264.166 522.433 264.604 522.433 265.097V272H520.757Z" fill="black"/>
<path d="M478.761 485V470.455H483.676C484.813 470.455 485.745 470.649 486.474 471.037C487.204 471.42 487.743 471.948 488.094 472.621C488.444 473.293 488.619 474.058 488.619 474.915C488.619 475.772 488.444 476.532 488.094 477.195C487.743 477.857 487.206 478.378 486.482 478.757C485.757 479.131 484.831 479.318 483.705 479.318H479.727V477.727H483.648C484.424 477.727 485.049 477.614 485.523 477.386C486.001 477.159 486.347 476.837 486.56 476.42C486.777 475.999 486.886 475.497 486.886 474.915C486.886 474.332 486.777 473.823 486.56 473.388C486.342 472.952 485.994 472.616 485.516 472.379C485.037 472.138 484.405 472.017 483.619 472.017H480.523V485H478.761ZM485.608 478.466L489.188 485H487.142L483.619 478.466H485.608ZM495.784 485.227C494.733 485.227 493.826 484.995 493.064 484.531C492.306 484.062 491.721 483.409 491.309 482.571C490.902 481.728 490.699 480.748 490.699 479.631C490.699 478.513 490.902 477.528 491.309 476.676C491.721 475.819 492.294 475.152 493.028 474.673C493.767 474.19 494.628 473.949 495.613 473.949C496.181 473.949 496.743 474.044 497.297 474.233C497.85 474.422 498.355 474.73 498.809 475.156C499.264 475.578 499.626 476.136 499.896 476.832C500.166 477.528 500.301 478.385 500.301 479.403V480.114H491.892V478.665H498.596C498.596 478.049 498.473 477.5 498.227 477.017C497.985 476.534 497.64 476.153 497.19 475.874C496.745 475.594 496.219 475.455 495.613 475.455C494.946 475.455 494.368 475.62 493.88 475.952C493.397 476.278 493.026 476.705 492.765 477.23C492.505 477.756 492.375 478.319 492.375 478.92V479.886C492.375 480.71 492.517 481.409 492.801 481.982C493.09 482.55 493.49 482.983 494.001 483.281C494.512 483.575 495.107 483.722 495.784 483.722C496.224 483.722 496.622 483.66 496.977 483.537C497.337 483.409 497.647 483.22 497.907 482.969C498.168 482.713 498.369 482.396 498.511 482.017L500.13 482.472C499.96 483.021 499.673 483.504 499.271 483.92C498.868 484.332 498.371 484.654 497.779 484.886C497.188 485.114 496.522 485.227 495.784 485.227ZM506.97 485.227C506.061 485.227 505.258 484.998 504.562 484.538C503.866 484.074 503.322 483.421 502.929 482.578C502.536 481.731 502.339 480.729 502.339 479.574C502.339 478.428 502.536 477.434 502.929 476.591C503.322 475.748 503.868 475.097 504.569 474.638C505.27 474.179 506.08 473.949 506.998 473.949C507.708 473.949 508.27 474.067 508.681 474.304C509.098 474.536 509.415 474.801 509.633 475.099C509.856 475.393 510.029 475.634 510.152 475.824H510.294V470.455H511.97V485H510.35V483.324H510.152C510.029 483.523 509.853 483.774 509.626 484.077C509.399 484.375 509.074 484.643 508.653 484.879C508.232 485.111 507.671 485.227 506.97 485.227ZM507.197 483.722C507.869 483.722 508.438 483.546 508.902 483.196C509.366 482.841 509.718 482.351 509.96 481.726C510.201 481.096 510.322 480.369 510.322 479.545C510.322 478.731 510.204 478.018 509.967 477.408C509.73 476.792 509.38 476.314 508.916 475.973C508.452 475.627 507.879 475.455 507.197 475.455C506.487 475.455 505.895 475.637 505.422 476.001C504.953 476.361 504.6 476.851 504.363 477.472C504.131 478.087 504.015 478.778 504.015 479.545C504.015 480.322 504.134 481.027 504.37 481.662C504.612 482.292 504.967 482.794 505.436 483.168C505.909 483.537 506.496 483.722 507.197 483.722ZM515.272 485V474.091H516.949V485H515.272ZM516.125 472.273C515.798 472.273 515.516 472.161 515.279 471.939C515.047 471.716 514.931 471.449 514.931 471.136C514.931 470.824 515.047 470.556 515.279 470.334C515.516 470.111 515.798 470 516.125 470C516.451 470 516.731 470.111 516.963 470.334C517.199 470.556 517.318 470.824 517.318 471.136C517.318 471.449 517.199 471.716 516.963 471.939C516.731 472.161 516.451 472.273 516.125 472.273ZM527.746 476.534L526.24 476.96C526.145 476.709 526.006 476.465 525.821 476.229C525.641 475.987 525.395 475.788 525.082 475.632C524.77 475.476 524.37 475.398 523.882 475.398C523.214 475.398 522.658 475.552 522.213 475.859C521.773 476.162 521.553 476.548 521.553 477.017C521.553 477.434 521.704 477.763 522.007 478.004C522.31 478.246 522.784 478.447 523.428 478.608L525.047 479.006C526.022 479.242 526.749 479.605 527.227 480.092C527.705 480.575 527.945 481.198 527.945 481.96C527.945 482.585 527.765 483.144 527.405 483.636C527.05 484.129 526.553 484.517 525.913 484.801C525.274 485.085 524.531 485.227 523.683 485.227C522.571 485.227 521.65 484.986 520.92 484.503C520.191 484.02 519.73 483.314 519.536 482.386L521.126 481.989C521.278 482.576 521.564 483.016 521.986 483.31C522.412 483.603 522.968 483.75 523.655 483.75C524.436 483.75 525.056 483.584 525.516 483.253C525.98 482.917 526.212 482.514 526.212 482.045C526.212 481.667 526.079 481.349 525.814 481.094C525.549 480.833 525.142 480.639 524.592 480.511L522.774 480.085C521.775 479.848 521.041 479.482 520.572 478.984C520.108 478.482 519.876 477.855 519.876 477.102C519.876 476.487 520.049 475.942 520.395 475.469C520.745 474.995 521.221 474.624 521.822 474.354C522.429 474.084 523.115 473.949 523.882 473.949C524.962 473.949 525.809 474.186 526.425 474.659C527.045 475.133 527.485 475.758 527.746 476.534Z" fill="black"/>
<path d="M26 26C30.4183 26 34 22.4183 34 18C34 13.5817 30.4183 10 26 10C21.5817 10 18 13.5817 18 18C18 22.4183 21.5817 26 26 26Z" fill="#404040"/>
<path d="M50 26C54.4183 26 58 22.4183 58 18C58 13.5817 54.4183 10 50 10C45.5817 10 42 13.5817 42 18C42 22.4183 45.5817 26 50 26Z" fill="#404040"/>
<path d="M74 26C78.4183 26 82 22.4183 82 18C82 13.5817 78.4183 10 74 10C69.5817 10 66 13.5817 66 18C66 22.4183 69.5817 26 74 26Z" fill="#404040"/>
<rect x="2.78784" y="34" width="590.424" height="2" fill="#404040"/>
<g clip-path="url(#clip0_122_680)">
<g clip-path="url(#clip1_122_680)">
<path d="M135 198.96C133.836 199.4 132.55 199.399 131.387 198.957C130.223 198.515 129.262 197.662 128.683 196.56L117.183 180.657L115.517 178.433L102.173 196.58C101.63 197.636 100.721 198.458 99.615 198.893C98.5096 199.327 97.2837 199.344 96.1667 198.94L113.36 175.873L97.3667 155.037C98.5167 154.622 99.7743 154.617 100.928 155.021C102.081 155.425 103.06 156.215 103.7 157.257L115.62 173.357L127.607 157.323C128.154 156.286 129.064 155.486 130.163 155.075C131.262 154.665 132.473 154.672 133.567 155.097L127.36 163.333L118.953 174.277C118.72 174.485 118.533 174.74 118.405 175.026C118.277 175.311 118.211 175.62 118.211 175.933C118.211 176.246 118.277 176.555 118.405 176.841C118.533 177.126 118.72 177.382 118.953 177.59L134.967 198.963L135 198.96ZM55.0067 175.587L56.4067 168.67C60.2534 154.993 75.9334 149.303 86.72 157.77C93.0367 162.733 94.6134 169.76 94.3034 177.68H58.72C58.1434 191.823 68.35 200.363 81.4 196C83.5156 195.238 85.4092 193.964 86.9112 192.291C88.4133 190.618 89.4769 188.598 90.0067 186.413C90.6967 184.193 91.8334 183.813 93.92 184.453C93.5723 187.161 92.6151 189.755 91.1203 192.04C89.6255 194.324 87.6321 196.24 85.29 197.643C81.4214 199.759 76.9828 200.598 72.6088 200.04C68.2348 199.481 64.1494 197.554 60.9367 194.533C57.7601 190.958 55.8403 186.442 55.47 181.673C55.47 180.89 55.2034 180.157 55.0234 179.453C55.0071 178.166 54.9994 176.878 55 175.59L55.0067 175.587ZM58.7634 174.633H90.9434C90.7434 164.38 84.2734 157.107 75.6434 157.04C66.0367 156.907 59.1634 164.02 58.74 174.587L58.7634 174.633Z" fill="black"/>
</g>
</g>
<g clip-path="url(#clip2_122_680)">
<path d="M203.152 197.556H210.193V201.139H203.152V209.271C203.137 209.854 203.217 210.436 203.388 210.994C203.517 211.409 203.747 211.784 204.057 212.087C204.355 212.369 204.718 212.573 205.114 212.682C205.509 212.788 205.916 212.845 206.325 212.854L206.5 212.854C206.868 212.854 207.249 212.854 207.641 212.802L207.874 212.773L208.325 212.722C208.473 212.705 208.619 212.686 208.763 212.662L208.974 212.628L209.372 212.569C209.5 212.549 209.625 212.529 209.748 212.505L210.042 212.446C210.089 212.436 210.134 212.427 210.179 212.417L210.432 212.36C210.472 212.351 210.511 212.342 210.549 212.332L211.022 215.671C210.641 215.886 210.238 216.059 209.82 216.185C209.346 216.335 208.863 216.455 208.374 216.543C207.862 216.639 207.329 216.711 206.772 216.764C206.215 216.816 205.679 216.84 205.142 216.84C204.192 216.854 203.246 216.718 202.339 216.438C201.53 216.185 200.791 215.745 200.184 215.153C199.558 214.538 199.086 213.783 198.806 212.951C198.458 211.916 198.293 210.829 198.317 209.737V201.139H194V197.556H198.305V192.923H203.152V197.556ZM220.409 206.961V216.474H215.511V191.015H224.038C225.327 190.999 226.613 191.167 227.855 191.513C228.916 191.807 229.91 192.303 230.783 192.976C231.585 193.617 232.222 194.444 232.637 195.386C233.093 196.433 233.317 197.566 233.294 198.709C233.305 199.538 233.195 200.365 232.969 201.163C232.582 202.551 231.749 203.771 230.598 204.635C230.013 205.079 229.379 205.455 228.708 205.755L234.163 216.261V216.49H228.896L224.122 206.961H220.409ZM220.414 202.967H224.038C224.719 202.981 225.398 202.872 226.041 202.646C226.579 202.454 227.061 202.133 227.446 201.71C227.746 201.374 227.976 200.982 228.123 200.557C228.267 200.12 228.345 199.665 228.355 199.206L228.356 199.034C228.368 198.423 228.264 197.815 228.051 197.242C227.86 196.743 227.546 196.301 227.138 195.957C226.746 195.639 226.295 195.402 225.812 195.258C225.294 195.106 224.759 195.024 224.22 195.013L220.414 195.012V202.967ZM242.145 216.474H237.255V191.015H245.934C247.209 190.997 248.477 191.201 249.683 191.618C250.735 191.982 251.707 192.55 252.542 193.289C253.319 194.013 253.934 194.895 254.345 195.876C254.752 196.868 254.968 197.929 254.981 199L254.981 199.215C254.993 200.303 254.776 201.382 254.345 202.381C253.93 203.334 253.315 204.186 252.542 204.88C251.704 205.619 250.728 206.184 249.671 206.543C248.464 206.955 247.196 207.156 245.922 207.137H242.141L242.145 216.474ZM242.145 203.152H245.926C246.545 203.165 247.161 203.057 247.74 202.835C248.225 202.644 248.665 202.352 249.03 201.979C249.365 201.619 249.623 201.194 249.787 200.729C249.957 200.255 250.043 199.755 250.043 199.251C250.047 198.688 249.96 198.127 249.787 197.592C249.628 197.095 249.371 196.636 249.03 196.242C248.67 195.85 248.23 195.54 247.74 195.334C247.164 195.1 246.547 194.987 245.926 195H242.145V203.152ZM275.151 211.963C274.702 212.955 274.06 213.847 273.261 214.586C272.439 215.325 271.479 215.893 270.437 216.257C269.347 216.632 268.206 216.828 267.055 216.84L266.808 216.84C265.827 216.852 264.85 216.716 263.909 216.438C263.048 216.18 262.236 215.781 261.506 215.257C260.845 214.77 260.26 214.186 259.771 213.525C259.257 212.833 258.826 212.082 258.49 211.288C258.139 210.42 257.88 209.518 257.717 208.596C257.532 207.568 257.441 206.526 257.444 205.482V202.055C257.442 201.074 257.524 200.094 257.689 199.126C257.824 198.341 258.034 197.571 258.313 196.825L258.422 196.547C258.776 195.615 259.27 194.742 259.888 193.96C260.472 193.22 261.165 192.572 261.942 192.039C262.64 191.587 263.402 191.242 264.201 191.015C264.981 190.792 265.787 190.672 266.597 190.658L266.84 190.657C268.106 190.636 269.365 190.837 270.561 191.252C272.656 191.974 274.333 193.576 275.155 195.639C275.616 196.784 275.898 197.992 275.992 199.223H271.114C271.085 198.542 270.972 197.867 270.777 197.214C270.62 196.687 270.356 196.199 270 195.78C269.64 195.399 269.196 195.109 268.703 194.932C268.105 194.727 267.476 194.629 266.844 194.643C266.483 194.642 266.123 194.683 265.771 194.767C265.451 194.846 265.144 194.969 264.858 195.133C264.368 195.434 263.956 195.847 263.656 196.338C263.306 196.901 263.036 197.511 262.855 198.15C262.697 198.732 262.587 199.326 262.527 199.926C262.454 200.62 262.419 201.317 262.423 202.015V205.474C262.415 206.384 262.47 207.292 262.587 208.194C262.677 208.908 262.849 209.609 263.1 210.283C263.25 210.667 263.447 211.031 263.684 211.368C263.898 211.676 264.161 211.948 264.461 212.171C264.778 212.406 265.135 212.581 265.515 212.686C265.937 212.803 266.374 212.86 266.812 212.854C267.397 212.861 267.979 212.779 268.539 212.609C269.029 212.458 269.477 212.194 269.848 211.838C270.229 211.459 270.52 210.999 270.701 210.492C270.933 209.857 271.068 209.191 271.102 208.516H276C275.929 209.707 275.642 210.875 275.151 211.963Z" fill="#398CCB"/>
<path d="M253.7 148.69L266.027 155.829V170.116L253.7 177.255L248.227 174.08L234.92 181.787L221.692 174.124L216.296 177.255L203.969 170.103V155.829L216.296 148.69L228.624 155.829V170.103L224.894 172.267L234.92 178.074L245.025 172.223L241.372 170.103V155.829L253.7 148.69ZM244.576 159.549V168.263L252.098 172.618V163.904L244.576 159.549ZM262.823 159.537L255.302 163.892V172.618L262.823 168.251V159.537ZM207.173 159.537V168.251L214.694 172.606V163.892L207.173 159.537ZM225.42 159.537L217.898 163.892V172.606L225.42 168.251V159.537ZM253.7 152.41L246.178 156.765L253.7 161.124L261.221 156.765L253.7 152.41ZM216.296 152.398L208.775 156.765L216.296 161.112L223.818 156.765L216.296 152.398ZM222.428 130.253V133.961L211.022 140.57V151.743L207.818 153.599V138.714L222.428 130.253ZM234.756 119L247.091 126.139V130.065L262.022 138.714V153.507L258.818 151.651V140.57L247.091 133.777V140.418L234.764 147.557L222.436 140.418V126.139L234.756 119ZM225.64 129.847V138.562L233.154 142.917V134.207L225.64 129.847ZM243.879 129.847L236.366 134.207V142.913L243.879 138.562V129.847ZM234.756 122.712L227.242 127.067L234.756 131.422L242.277 127.067L234.756 122.712Z" fill="#398CCB"/>
</g>
<path fill-rule="evenodd" clip-rule="evenodd" d="M380.025 197.525L348.848 206.82C348.63 206.886 348.4 206.894 348.178 206.844C347.957 206.794 347.752 206.688 347.584 206.535C347.416 206.383 347.291 206.189 347.22 205.974C347.149 205.758 347.135 205.528 347.18 205.305L358.32 151.528C358.367 151.308 358.482 151.108 358.648 150.957C358.815 150.806 359.024 150.711 359.247 150.685C359.47 150.659 359.696 150.704 359.892 150.813C360.089 150.922 360.246 151.089 360.343 151.293L380.965 195.445C381.058 195.641 381.106 195.855 381.108 196.072C381.11 196.289 381.064 196.504 380.975 196.702C380.886 196.9 380.754 197.076 380.59 197.218C380.426 197.36 380.234 197.465 380.025 197.525ZM385.373 195.33L361.5 144.208C361.207 143.577 360.747 143.038 360.17 142.649C359.594 142.26 358.922 142.036 358.228 142C357.533 141.952 356.839 142.097 356.221 142.419C355.604 142.74 355.087 143.226 354.728 143.823L328.84 186.12C328.445 186.76 328.24 187.499 328.248 188.252C328.256 189.004 328.477 189.738 328.885 190.37L341.545 210.143C342.022 210.881 342.726 211.446 343.55 211.752C344.375 212.057 345.277 212.087 346.12 211.838L382.87 200.88C383.425 200.718 383.939 200.438 384.375 200.059C384.811 199.68 385.16 199.211 385.398 198.684C385.636 198.157 385.756 197.584 385.751 197.006C385.747 196.428 385.616 195.858 385.37 195.335L385.373 195.33Z" fill="#0C344B"/>
<g clip-path="url(#clip3_122_680)">
<path d="M493.999 216.707V196.698C493.999 196.656 494.022 196.614 494.062 196.593L519.798 181.746C519.836 181.725 519.86 181.685 519.859 181.641V175.953C519.86 175.909 519.838 175.869 519.801 175.847C519.763 175.825 519.717 175.825 519.68 175.848L494.179 190.56C494.142 190.582 494.096 190.583 494.059 190.561C494.022 190.539 493.999 190.498 494.001 190.455V184.762C494.001 184.72 494.022 184.68 494.06 184.659L519.798 169.813C519.835 169.791 519.858 169.751 519.859 169.708V164.02C519.857 163.977 519.835 163.939 519.798 163.917C519.762 163.896 519.717 163.895 519.68 163.915L494.179 178.625C494.143 178.648 494.096 178.649 494.058 178.628C494.02 178.606 493.998 178.565 493.999 178.522V172.831C493.999 172.789 494.022 172.749 494.062 172.728L519.798 157.888C519.836 157.867 519.859 157.827 519.859 157.783V152.019C519.856 151.935 519.812 151.858 519.741 151.813L494.119 137.032C494.045 136.989 493.955 136.989 493.881 137.032L489.008 139.845C488.971 139.865 488.947 139.905 488.947 139.948C488.947 139.99 488.971 140.03 489.008 140.051L514.508 154.761C514.544 154.783 514.565 154.822 514.565 154.863C514.565 154.905 514.544 154.944 514.508 154.966L509.635 157.777C509.56 157.817 509.47 157.817 509.396 157.777L483.776 143C483.698 142.955 483.602 142.955 483.524 143L478.665 145.808C478.628 145.829 478.604 145.868 478.604 145.911C478.604 145.954 478.628 145.993 478.665 146.014L504.161 160.726C504.2 160.746 504.224 160.786 504.224 160.83C504.224 160.874 504.2 160.914 504.161 160.934L499.288 163.744C499.21 163.79 499.114 163.79 499.036 163.744L473.433 148.963C473.355 148.918 473.259 148.918 473.181 148.963L468.141 151.879V201.928C468.141 201.97 468.162 202.012 468.202 202.031L473.134 204.877C473.171 204.899 473.218 204.9 473.255 204.878C473.292 204.856 473.314 204.815 473.313 204.772V155.071C473.312 155.029 473.335 154.989 473.372 154.967C473.409 154.946 473.455 154.946 473.491 154.968L478.428 157.815C478.461 157.836 478.484 157.876 478.484 157.92V207.893C478.484 207.935 478.505 207.977 478.543 207.998L483.475 210.847C483.513 210.868 483.559 210.868 483.597 210.847C483.634 210.825 483.658 210.785 483.658 210.742V161.035C483.656 160.992 483.679 160.951 483.716 160.929C483.753 160.907 483.799 160.907 483.836 160.93L488.769 163.774C488.806 163.795 488.829 163.837 488.829 163.879V213.861C488.829 213.903 488.85 213.943 488.886 213.966L493.833 216.808C493.869 216.825 493.911 216.823 493.945 216.802C493.979 216.781 494 216.745 494.001 216.705L493.999 216.707Z" fill="#300D4F"/>
</g>
<g clip-path="url(#clip4_122_680)">
<path d="M113.817 414.85C115.816 406.813 115.473 398.371 112.827 390.522C110.181 382.674 105.344 375.747 98.8867 370.56C104.783 367.17 111.468 365.392 118.27 365.407C120.85 365.407 123.42 365.657 125.95 366.16L127.017 361.887C124.137 361.297 121.206 361 118.267 361C110.024 360.984 101.949 363.333 95 367.767C88.0518 363.334 79.9785 360.985 71.7367 361C68.7967 361 65.8667 361.297 62.9867 361.887L64.05 366.16C66.5814 365.658 69.156 365.406 71.7367 365.407C78.5394 365.393 85.2263 367.168 91.1267 370.553C85.8492 374.791 81.6368 380.205 78.8265 386.362C76.0163 392.519 74.6862 399.249 74.9428 406.012C75.1994 412.776 77.0355 419.385 80.3041 425.312C83.5728 431.239 88.1833 436.318 93.7667 440.143L95.0167 441L96.26 440.143C105.007 434.14 111.26 425.143 113.827 414.85H113.817ZM92.8 433.85C87.0505 428.885 82.878 422.347 80.7963 415.041C78.7146 407.735 78.8143 399.98 81.0834 392.73C83.3076 396.425 86.0676 399.769 89.2734 402.653C90.3855 403.656 91.2742 404.881 91.8818 406.25C92.4894 407.618 92.8022 409.099 92.8 410.597V433.85ZM95.0034 401.66C92.0497 399.468 89.4204 396.87 87.1934 393.943C85.767 392.069 84.9947 389.779 84.9947 387.423C84.9947 385.068 85.767 382.778 87.1934 380.903C89.4185 377.953 92.0527 375.334 95.0167 373.127C98.0167 375.363 100.673 378.02 102.917 381.013C104.297 382.857 105.043 385.097 105.043 387.4C105.043 389.703 104.297 391.943 102.917 393.787C100.666 396.774 98.0016 399.425 95.0034 401.66ZM97.2 433.85V410.597C97.1986 409.099 97.5125 407.618 98.1213 406.249C98.73 404.88 99.62 403.655 100.733 402.653C103.939 399.77 106.697 396.426 108.917 392.73C111.183 399.98 111.281 407.735 109.199 415.04C107.118 422.345 102.947 428.883 97.2 433.85Z" fill="black"/>
</g>
<path d="M362.55 436L360.672 435.378C360.672 435.378 360.922 425.878 357.485 425.21C355.235 422.59 357.817 313.358 366.042 424.838C364.482 425.629 363.288 426.993 362.71 428.645C362.4 431.084 362.347 433.549 362.55 436Z" fill="url(#paint0_linear_122_680)"/>
<path d="M363.565 426.822C368.564 423.059 372.392 417.955 374.605 412.102C376.818 406.25 377.324 399.889 376.065 393.76C372.39 377.547 363.688 372.217 362.75 370.182C361.941 368.915 361.251 367.576 360.688 366.182L361.38 411.355C361.38 411.355 359.945 425.16 363.565 426.822Z" fill="url(#paint1_linear_122_680)"/>
<path d="M359.717 427.422C359.717 427.422 344.415 417 345.3 398.562C345.382 393.004 346.657 387.528 349.037 382.505C351.417 377.481 354.848 373.027 359.097 369.442C359.594 369.021 359.988 368.492 360.251 367.895C360.514 367.299 360.638 366.651 360.615 366C361.567 368.05 361.412 396.607 361.512 399.947C361.9 412.94 360.79 424.97 359.717 427.422Z" fill="url(#paint2_linear_122_680)"/>
<g clip-path="url(#clip5_122_680)">
<path d="M530.866 415.42C526.596 417.645 504.48 426.739 499.771 429.193C495.063 431.648 492.447 431.624 488.728 429.846C485.008 428.068 461.473 418.561 457.233 416.535C455.114 415.522 454 414.667 454 413.86V405.774C454 405.774 484.64 399.103 489.587 397.329C494.533 395.554 496.25 395.49 500.459 397.032C504.669 398.574 529.84 403.115 534 404.639C534 404.639 533.998 411.861 533.998 412.611C533.999 413.41 533.039 414.287 530.866 415.42Z" fill="#912626"/>
<path d="M530.864 407.381C526.595 409.606 504.479 418.699 499.771 421.154C495.063 423.609 492.447 423.585 488.728 421.807C485.008 420.03 461.473 410.522 457.234 408.496C452.995 406.47 452.906 405.075 457.07 403.444C461.235 401.813 484.64 392.63 489.588 390.856C494.534 389.082 496.25 389.017 500.459 390.559C504.669 392.101 526.652 400.852 530.812 402.375C534.973 403.9 535.133 405.156 530.864 407.381Z" fill="#C6302B"/>
<path d="M530.866 402.336C526.596 404.561 504.48 413.655 499.771 416.11C495.063 418.564 492.447 418.54 488.728 416.762C485.008 414.985 461.473 405.477 457.233 403.451C455.114 402.438 454 401.584 454 400.777V392.689C454 392.689 484.64 386.019 489.587 384.245C494.533 382.47 496.25 382.406 500.459 383.948C504.669 385.49 529.84 390.03 534 391.554C534 391.554 533.998 398.777 533.998 399.527C533.999 400.326 533.039 401.203 530.866 402.336Z" fill="#912626"/>
<path d="M530.864 394.297C526.595 396.522 504.479 405.615 499.771 408.071C495.063 410.525 492.447 410.501 488.728 408.723C485.008 406.946 461.473 397.438 457.234 395.412C452.995 393.386 452.906 391.991 457.07 390.36C461.235 388.73 484.64 379.546 489.588 377.772C494.534 375.998 496.25 375.933 500.459 377.475C504.669 379.017 526.652 387.767 530.812 389.291C534.973 390.816 535.133 392.072 530.864 394.297Z" fill="#C6302B"/>
<path d="M530.866 388.766C526.596 390.992 504.48 400.086 499.771 402.541C495.063 404.995 492.447 404.971 488.728 403.193C485.008 401.416 461.473 391.908 457.233 389.882C455.114 388.869 454 388.015 454 387.208V379.12C454 379.12 484.64 372.451 489.587 370.676C494.533 368.901 496.25 368.837 500.459 370.379C504.669 371.922 529.84 376.462 534 377.986C534 377.986 533.998 385.208 533.998 385.959C533.999 386.757 533.039 387.634 530.866 388.766Z" fill="#912626"/>
<path d="M530.864 380.728C526.595 382.953 504.479 392.047 499.771 394.501C495.063 396.956 492.447 396.932 488.728 395.154C485.008 393.377 461.473 383.869 457.234 381.843C452.995 379.817 452.906 378.422 457.07 376.791C461.235 375.16 484.64 365.978 489.588 364.203C494.534 362.428 496.25 362.364 500.459 363.907C504.669 365.449 526.652 374.199 530.812 375.723C534.973 377.246 535.133 378.503 530.864 380.728Z" fill="#C6302B"/>
<path d="M503.776 372.862L496.898 373.576L495.358 377.281L492.871 373.146L484.929 372.432L490.855 370.295L489.077 367.015L494.626 369.185L499.856 367.472L498.443 370.864L503.776 372.862Z" fill="white"/>
<path d="M494.947 390.836L482.111 385.512L500.505 382.689L494.947 390.836Z" fill="white"/>
<path d="M477.15 374.921C482.58 374.921 486.982 376.627 486.982 378.732C486.982 380.836 482.58 382.542 477.15 382.542C471.721 382.542 467.319 380.836 467.319 378.732C467.319 376.627 471.721 374.921 477.15 374.921Z" fill="white"/>
<path d="M511.905 373.874L522.791 378.176L511.914 382.474L511.905 373.874Z" fill="#621B1C"/>
<path d="M499.861 378.638L511.905 373.874L511.914 382.474L510.733 382.936L499.861 378.638Z" fill="#9A2928"/>
</g>
<path d="M267.487 404.905C267.022 403.496 265.804 402.515 264.228 402.279C263.485 402.169 262.634 402.216 261.627 402.423C259.872 402.785 258.57 402.923 257.619 402.95C261.206 396.894 264.123 389.988 265.802 383.487C268.517 372.975 267.066 368.186 265.371 366.02C260.884 360.287 254.338 357.207 246.44 357.113C242.227 357.061 238.529 357.893 236.599 358.491C234.803 358.174 232.871 357.997 230.845 357.965C227.046 357.904 223.689 358.732 220.821 360.434C219.233 359.897 216.684 359.14 213.741 358.657C206.819 357.521 201.241 358.406 197.16 361.289C192.219 364.779 189.928 370.844 190.352 379.313C190.486 382.002 191.991 390.184 194.359 397.944C195.72 402.404 197.172 406.107 198.673 408.953C200.803 412.988 203.081 415.364 205.639 416.217C207.073 416.695 209.678 417.029 212.417 414.747C212.765 415.168 213.228 415.586 213.843 415.974C214.624 416.466 215.579 416.869 216.532 417.107C219.969 417.966 223.188 417.752 225.934 416.547C225.951 417.036 225.964 417.502 225.975 417.905C225.993 418.559 226.012 419.2 226.036 419.799C226.198 423.852 226.474 427.003 227.291 429.208C227.336 429.329 227.396 429.514 227.46 429.71C227.867 430.958 228.549 433.047 230.283 434.683C232.078 436.378 234.25 436.898 236.239 436.898C237.237 436.898 238.189 436.767 239.023 436.588C241.999 435.95 245.379 434.979 247.824 431.498C250.135 428.207 251.259 423.25 251.462 415.44C251.489 415.219 251.513 415.008 251.536 414.807L251.585 414.395L252.129 414.442L252.269 414.452C255.3 414.59 259.006 413.947 261.282 412.89C263.081 412.055 268.844 409.013 267.487 404.905Z" fill="black"/>
<path d="M262.305 405.704C253.293 407.563 252.673 404.512 252.673 404.512C262.188 390.392 266.166 372.47 262.734 368.084C253.369 356.119 237.158 361.778 236.888 361.924L236.801 361.94C235.02 361.57 233.028 361.35 230.788 361.314C226.71 361.247 223.617 362.383 221.27 364.163C221.27 364.163 192.351 352.249 193.697 379.146C193.983 384.868 201.898 422.441 211.338 411.092C214.789 406.942 218.123 403.433 218.123 403.433C219.779 404.533 221.761 405.094 223.84 404.893L224.001 404.756C223.951 405.271 223.974 405.775 224.066 406.372C221.634 409.089 222.348 409.566 217.487 410.567C212.567 411.581 215.457 413.385 217.344 413.858C219.631 414.429 224.924 415.24 228.499 410.234L228.357 410.805C229.31 411.569 229.979 415.77 229.867 419.578C229.755 423.387 229.68 426.002 230.43 428.044C231.181 430.087 231.93 434.682 238.321 433.313C243.661 432.168 246.429 429.202 246.814 424.255C247.087 420.738 247.706 421.258 247.745 418.114L248.241 416.625C248.812 411.858 248.331 410.319 251.621 411.035L252.421 411.105C254.843 411.215 258.012 410.715 259.873 409.851C263.878 407.992 266.254 404.888 262.304 405.704H262.305Z" fill="#336791"/>
<path d="M222.962 381.705C222.15 381.591 221.415 381.696 221.043 381.978C220.834 382.136 220.769 382.32 220.751 382.446C220.704 382.781 220.939 383.151 221.083 383.342C221.491 383.883 222.087 384.255 222.677 384.336C222.762 384.348 222.847 384.354 222.932 384.354C223.915 384.354 224.809 383.588 224.888 383.023C224.987 382.315 223.959 381.843 222.962 381.705ZM249.867 381.727C249.789 381.172 248.802 381.014 247.865 381.144C246.929 381.275 246.022 381.697 246.098 382.253C246.158 382.685 246.939 383.424 247.863 383.424C247.941 383.424 248.02 383.418 248.1 383.407C248.717 383.322 249.169 382.93 249.384 382.704C249.712 382.36 249.901 381.976 249.867 381.727Z" fill="white"/>
<path d="M265.304 405.492C264.96 404.453 263.854 404.119 262.016 404.499C256.56 405.625 254.606 404.845 253.965 404.372C258.206 397.912 261.695 390.102 263.577 382.815C264.468 379.364 264.961 376.159 265.001 373.546C265.045 370.678 264.557 368.571 263.55 367.284C259.489 362.094 253.528 359.311 246.313 359.234C241.352 359.179 237.162 360.448 236.349 360.805C234.638 360.379 232.773 360.118 230.742 360.085C227.019 360.025 223.8 360.916 221.135 362.733C219.978 362.302 216.986 361.275 213.328 360.686C207.003 359.668 201.977 360.439 198.39 362.98C194.11 366.012 192.135 371.432 192.517 379.089C192.646 381.665 194.114 389.59 196.43 397.18C199.479 407.169 202.794 412.824 206.281 413.987C206.689 414.123 207.16 414.218 207.679 414.218C208.951 414.218 210.511 413.645 212.134 411.694C214.113 409.32 216.16 407.003 218.273 404.747C219.644 405.482 221.15 405.893 222.691 405.935C222.694 405.975 222.698 406.015 222.701 406.055C222.436 406.371 222.176 406.692 221.922 407.017C220.855 408.372 220.633 408.654 217.198 409.362C216.22 409.563 213.625 410.098 213.587 411.918C213.545 413.905 216.655 414.74 217.009 414.829C218.244 415.138 219.433 415.29 220.567 415.29C223.326 415.29 225.753 414.384 227.693 412.629C227.634 419.716 227.929 426.699 228.78 428.827C229.477 430.569 231.179 434.825 236.557 434.825C237.346 434.825 238.215 434.733 239.17 434.528C244.782 433.325 247.22 430.845 248.162 425.376C248.667 422.453 249.533 415.474 249.94 411.73C250.799 411.999 251.906 412.121 253.102 412.121C255.596 412.121 258.475 411.591 260.28 410.753C262.308 409.811 265.967 407.5 265.304 405.492ZM251.938 380.195C251.92 381.301 251.768 382.304 251.606 383.351C251.433 384.478 251.253 385.642 251.208 387.056C251.164 388.432 251.335 389.862 251.502 391.245C251.837 394.039 252.182 396.915 250.848 399.754C250.627 399.361 250.429 398.955 250.257 398.539C250.092 398.137 249.732 397.492 249.233 396.598C247.294 393.121 242.753 384.977 245.078 381.654C245.77 380.665 247.527 379.648 251.938 380.195ZM246.592 361.472C253.056 361.615 258.17 364.033 261.791 368.66C264.568 372.209 261.51 388.356 252.658 402.287C252.569 402.174 252.479 402.061 252.389 401.949L252.277 401.809C254.565 398.031 254.117 394.293 253.719 390.979C253.555 389.619 253.401 388.334 253.44 387.128C253.481 385.849 253.65 384.752 253.814 383.691C254.015 382.384 254.219 381.032 254.163 379.438C254.205 379.27 254.222 379.073 254.2 378.838C254.056 377.309 252.31 372.734 248.753 368.593C246.807 366.328 243.969 363.793 240.094 362.083C241.761 361.738 244.04 361.415 246.592 361.472ZM210.416 410.266C208.629 412.416 207.394 412.004 206.988 411.869C204.342 410.986 201.273 405.395 198.566 396.528C196.225 388.856 194.856 381.141 194.748 378.978C194.406 372.136 196.064 367.368 199.677 364.805C205.557 360.635 215.225 363.131 219.109 364.397C219.053 364.452 218.995 364.504 218.94 364.56C212.565 370.997 212.717 381.996 212.732 382.669C212.732 382.928 212.754 383.295 212.783 383.8C212.893 385.65 213.097 389.093 212.552 392.992C212.045 396.616 213.162 400.162 215.616 402.722C215.868 402.985 216.132 403.234 216.409 403.47C215.317 404.64 212.943 407.227 210.416 410.266ZM217.228 401.177C215.251 399.114 214.352 396.243 214.764 393.302C215.339 389.183 215.127 385.595 215.013 383.668C214.997 383.399 214.982 383.162 214.974 382.976C215.905 382.15 220.221 379.838 223.299 380.543C224.703 380.865 225.559 381.821 225.914 383.466C227.755 391.982 226.158 395.531 224.874 398.384C224.61 398.971 224.36 399.527 224.146 400.101L223.981 400.545C223.562 401.669 223.172 402.713 222.931 403.704C220.829 403.698 218.783 402.8 217.228 401.177V401.177ZM217.551 412.662C216.937 412.509 216.385 412.242 216.061 412.022C216.332 411.894 216.813 411.721 217.648 411.549C221.69 410.717 222.314 410.13 223.677 408.399C223.989 408.002 224.344 407.552 224.834 407.005L224.835 407.004C225.565 406.186 225.9 406.325 226.506 406.576C226.997 406.779 227.475 407.395 227.669 408.072C227.761 408.392 227.864 409 227.527 409.472C224.68 413.459 220.531 413.408 217.551 412.662ZM238.702 432.345C233.758 433.404 232.007 430.881 230.854 427.997C230.109 426.135 229.743 417.74 230.003 408.468C230.006 408.345 229.989 408.225 229.955 408.113C229.924 407.892 229.878 407.673 229.816 407.458C229.43 406.109 228.489 404.981 227.361 404.513C226.912 404.327 226.089 403.986 225.1 404.239C225.311 403.37 225.677 402.389 226.073 401.326L226.24 400.879C226.427 400.375 226.662 399.853 226.911 399.3C228.254 396.316 230.094 392.228 228.097 382.994C227.349 379.535 224.852 377.846 221.065 378.239C218.796 378.473 216.719 379.389 215.683 379.914C215.461 380.027 215.257 380.136 215.067 380.242C215.356 376.757 216.448 370.245 220.533 366.124C223.106 363.53 226.532 362.249 230.705 362.318C238.93 362.452 244.204 366.673 247.18 370.19C249.745 373.221 251.134 376.274 251.688 377.921C247.52 377.497 244.685 378.319 243.248 380.374C240.122 384.843 244.958 393.517 247.283 397.686C247.709 398.45 248.077 399.11 248.193 399.391C248.95 401.225 249.93 402.45 250.645 403.344C250.865 403.618 251.077 403.884 251.239 404.116C249.977 404.48 247.709 405.321 247.916 409.524C247.749 411.633 246.564 421.508 245.962 424.996C245.167 429.605 243.471 431.322 238.702 432.345V432.345ZM259.34 408.728C258.049 409.327 255.889 409.776 253.836 409.873C251.57 409.979 250.416 409.619 250.144 409.397C250.017 406.778 250.992 406.504 252.024 406.215C252.186 406.169 252.344 406.125 252.497 406.071C252.592 406.149 252.695 406.225 252.809 406.3C254.631 407.503 257.881 407.632 262.468 406.685L262.519 406.675C261.9 407.254 260.841 408.03 259.34 408.728Z" fill="white"/>
<defs>
<linearGradient id="paint0_linear_122_680" x1="349.929" y1="401.631" x2="371.508" y2="408.954" gradientUnits="userSpaceOnUse">
<stop offset="0.231" stop-color="#999875"/>
<stop offset="0.563" stop-color="#9B9977"/>
<stop offset="0.683" stop-color="#A09F7E"/>
<stop offset="0.768" stop-color="#A9A889"/>
<stop offset="0.837" stop-color="#B7B69A"/>
<stop offset="0.896" stop-color="#C9C7B0"/>
<stop offset="0.948" stop-color="#DEDDCB"/>
<stop offset="0.994" stop-color="#F8F6EB"/>
<stop offset="1" stop-color="#FBF9EF"/>
</linearGradient>
<linearGradient id="paint1_linear_122_680" x1="357.842" y1="365.86" x2="367.382" y2="425.432" gradientUnits="userSpaceOnUse">
<stop stop-color="#48A547"/>
<stop offset="1" stop-color="#3F9143"/>
</linearGradient>
<linearGradient id="paint2_linear_122_680" x1="343.984" y1="400.388" x2="369.585" y2="391.814" gradientUnits="userSpaceOnUse">
<stop stop-color="#41A247"/>
<stop offset="0.352" stop-color="#4BA74B"/>
<stop offset="0.956" stop-color="#67B554"/>
<stop offset="1" stop-color="#69B655"/>
</linearGradient>
<clipPath id="clip0_122_680">
<rect width="80" height="80" fill="white" transform="translate(55 137)"/>
</clipPath>
<clipPath id="clip1_122_680">
<rect width="80" height="80" fill="white" transform="translate(55 137)"/>
</clipPath>
<clipPath id="clip2_122_680">
<rect width="82" height="98" fill="white" transform="translate(194 119)"/>
</clipPath>
<clipPath id="clip3_122_680">
<rect width="80" height="80" fill="white" transform="translate(454 137)"/>
</clipPath>
<clipPath id="clip4_122_680">
<rect width="80" height="80" fill="white" transform="translate(55 361)"/>
</clipPath>
<clipPath id="clip5_122_680">
<rect width="80" height="80" fill="white" transform="translate(454 357)"/>
</clipPath>
</defs>
</svg>
