<svg width="64" height="24" viewBox="0 0 64 24" fill="none" xmlns="http://www.w3.org/2000/svg">
<path d="M8 16C12.4183 16 16 12.4183 16 8C16 3.58172 12.4183 0 8 0C3.58172 0 0 3.58172 0 8C0 12.4183 3.58172 16 8 16Z" fill="#404040"/>
<path d="M32 16C36.4183 16 40 12.4183 40 8C40 3.58172 36.4183 0 32 0C27.5817 0 24 3.58172 24 8C24 12.4183 27.5817 16 32 16Z" fill="#404040"/>
<path d="M56 16C60.4183 16 64 12.4183 64 8C64 3.58172 60.4183 0 56 0C51.5817 0 48 3.58172 48 8C48 12.4183 51.5817 16 56 16Z" fill="#404040"/>
</svg>
