<svg width="596" height="591" viewBox="0 0 596 591" fill="none" xmlns="http://www.w3.org/2000/svg">
<rect x="1" y="1" width="594" height="589" rx="19" fill="#E0E0E0"/>
<rect x="1" y="1" width="594" height="589" rx="19" stroke="#404040" stroke-width="2"/>
<path d="M69.7045 265C69.5483 264.522 69.3423 264.093 69.0866 263.714C68.8357 263.331 68.535 263.004 68.1847 262.734C67.839 262.464 67.446 262.259 67.0057 262.116C66.5653 261.974 66.0824 261.903 65.5568 261.903C64.6951 261.903 63.9115 262.126 63.206 262.571C62.5005 263.016 61.9394 263.672 61.5227 264.538C61.1061 265.405 60.8977 266.468 60.8977 267.727C60.8977 268.987 61.1084 270.05 61.5298 270.916C61.9512 271.783 62.5218 272.438 63.2415 272.884C63.9612 273.329 64.7708 273.551 65.6705 273.551C66.5038 273.551 67.2377 273.374 67.8722 273.018C68.5114 272.659 69.0085 272.152 69.3636 271.499C69.7235 270.84 69.9034 270.066 69.9034 269.176L70.4432 269.29H66.0682V267.727H71.608V269.29C71.608 270.488 71.3523 271.529 70.8409 272.415C70.3343 273.3 69.6335 273.987 68.7386 274.474C67.8485 274.957 66.8258 275.199 65.6705 275.199C64.3826 275.199 63.2509 274.896 62.2756 274.29C61.3049 273.684 60.5473 272.822 60.0028 271.705C59.4631 270.587 59.1932 269.261 59.1932 267.727C59.1932 266.577 59.3471 265.542 59.6548 264.624C59.9673 263.7 60.4077 262.914 60.9759 262.266C61.544 261.617 62.2164 261.12 62.9929 260.774C63.7694 260.429 64.6241 260.256 65.5568 260.256C66.3239 260.256 67.0388 260.372 67.7017 260.604C68.3693 260.831 68.9635 261.155 69.4844 261.577C70.0099 261.993 70.4479 262.493 70.7983 263.075C71.1487 263.653 71.3902 264.295 71.5227 265H69.7045ZM75.081 275V264.091H76.7571V275H75.081ZM75.9332 262.273C75.6065 262.273 75.3248 262.161 75.0881 261.939C74.8561 261.716 74.7401 261.449 74.7401 261.136C74.7401 260.824 74.8561 260.556 75.0881 260.334C75.3248 260.111 75.6065 260 75.9332 260C76.2599 260 76.5393 260.111 76.7713 260.334C77.008 260.556 77.1264 260.824 77.1264 261.136C77.1264 261.449 77.008 261.716 76.7713 261.939C76.5393 262.161 76.2599 262.273 75.9332 262.273ZM84.5714 264.091V265.511H78.918V264.091H84.5714ZM80.5657 261.477H82.2418V271.875C82.2418 272.348 82.3105 272.704 82.4478 272.94C82.5898 273.172 82.7698 273.329 82.9876 273.409C83.2101 273.485 83.4445 273.523 83.6907 273.523C83.8754 273.523 84.0269 273.513 84.1452 273.494C84.2636 273.471 84.3583 273.452 84.4293 273.438L84.7702 274.943C84.6566 274.986 84.498 275.028 84.2944 275.071C84.0908 275.118 83.8327 275.142 83.5202 275.142C83.0468 275.142 82.5827 275.04 82.1282 274.837C81.6784 274.633 81.3043 274.323 81.006 273.906C80.7125 273.49 80.5657 272.964 80.5657 272.33V261.477ZM89.0032 268.438V275H87.3271V260.455H89.0032V265.795H89.1452C89.4009 265.232 89.7844 264.785 90.2958 264.453C90.8119 264.117 91.4985 263.949 92.3555 263.949C93.0988 263.949 93.7499 264.098 94.3086 264.396C94.8673 264.69 95.3005 265.142 95.6083 265.753C95.9208 266.359 96.0771 267.131 96.0771 268.068V275H94.4009V268.182C94.4009 267.315 94.176 266.645 93.7262 266.172C93.2811 265.694 92.6632 265.455 91.8725 265.455C91.3233 265.455 90.8308 265.571 90.3952 265.803C89.9644 266.035 89.6235 266.373 89.3725 266.818C89.1263 267.263 89.0032 267.803 89.0032 268.438ZM106.018 270.54V264.091H107.695V275H106.018V273.153H105.905C105.649 273.707 105.251 274.179 104.712 274.567C104.172 274.95 103.49 275.142 102.666 275.142C101.984 275.142 101.378 274.993 100.848 274.695C100.318 274.392 99.901 273.937 99.598 273.331C99.295 272.72 99.1435 271.951 99.1435 271.023V264.091H100.82V270.909C100.82 271.705 101.042 272.339 101.487 272.812C101.937 273.286 102.51 273.523 103.206 273.523C103.623 273.523 104.046 273.416 104.477 273.203C104.913 272.99 105.277 272.663 105.571 272.223C105.869 271.783 106.018 271.222 106.018 270.54ZM110.992 275V260.455H112.668V265.824H112.81C112.933 265.634 113.104 265.393 113.321 265.099C113.544 264.801 113.861 264.536 114.273 264.304C114.69 264.067 115.253 263.949 115.963 263.949C116.882 263.949 117.692 264.179 118.392 264.638C119.093 265.097 119.64 265.748 120.033 266.591C120.426 267.434 120.623 268.428 120.623 269.574C120.623 270.729 120.426 271.731 120.033 272.578C119.64 273.421 119.096 274.074 118.4 274.538C117.703 274.998 116.901 275.227 115.992 275.227C115.291 275.227 114.73 275.111 114.309 274.879C113.887 274.643 113.563 274.375 113.336 274.077C113.108 273.774 112.933 273.523 112.81 273.324H112.611V275H110.992ZM112.64 269.545C112.64 270.369 112.76 271.096 113.002 271.726C113.243 272.351 113.596 272.841 114.06 273.196C114.524 273.546 115.092 273.722 115.765 273.722C116.465 273.722 117.05 273.537 117.519 273.168C117.992 272.794 118.347 272.292 118.584 271.662C118.826 271.027 118.946 270.322 118.946 269.545C118.946 268.778 118.828 268.087 118.591 267.472C118.359 266.851 118.007 266.361 117.533 266.001C117.064 265.637 116.475 265.455 115.765 265.455C115.083 265.455 114.51 265.627 114.046 265.973C113.582 266.314 113.231 266.792 112.995 267.408C112.758 268.018 112.64 268.731 112.64 269.545Z" fill="black"/>
<path d="M45.483 76.1818C45.483 78.2976 45.0866 80.1097 44.294 81.6183C43.5078 83.1204 42.4339 84.271 41.0724 85.07C39.7173 85.869 38.18 86.2685 36.4606 86.2685C34.7411 86.2685 33.2006 85.869 31.8391 85.07C30.484 84.2646 29.4102 83.1108 28.6175 81.6087C27.8313 80.1001 27.4382 78.2912 27.4382 76.1818C27.4382 74.0661 27.8313 72.2571 28.6175 70.755C29.4102 69.2464 30.484 68.0927 31.8391 67.2937C33.2006 66.4947 34.7411 66.0952 36.4606 66.0952C38.18 66.0952 39.7173 66.4947 41.0724 67.2937C42.4339 68.0927 43.5078 69.2464 44.294 70.755C45.0866 72.2571 45.483 74.0661 45.483 76.1818ZM41.9066 76.1818C41.9066 74.6925 41.6733 73.4364 41.2067 72.4137C40.7464 71.3846 40.1072 70.608 39.2891 70.0838C38.4709 69.5533 37.5281 69.288 36.4606 69.288C35.3931 69.288 34.4503 69.5533 33.6321 70.0838C32.8139 70.608 32.1715 71.3846 31.7049 72.4137C31.2447 73.4364 31.0146 74.6925 31.0146 76.1818C31.0146 77.6712 31.2447 78.9304 31.7049 79.9595C32.1715 80.9822 32.8139 81.7589 33.6321 82.2894C34.4503 82.8136 35.3931 83.0756 36.4606 83.0756C37.5281 83.0756 38.4709 82.8136 39.2891 82.2894C40.1072 81.7589 40.7464 80.9822 41.2067 79.9595C41.6733 78.9304 41.9066 77.6712 41.9066 76.1818ZM56.0466 71.2727V73.9574H47.5803V71.2727H56.0466ZM49.6705 67.7443H53.1414V81.5703C53.1414 82.0369 53.2117 82.3949 53.3524 82.6442C53.4994 82.8871 53.6911 83.0533 53.9276 83.1428C54.1642 83.2322 54.4262 83.277 54.7139 83.277C54.9312 83.277 55.1294 83.261 55.3083 83.229C55.4937 83.1971 55.6343 83.1683 55.7302 83.1428L56.3151 85.8562C56.1297 85.9201 55.8644 85.9904 55.5193 86.0671C55.1805 86.1438 54.765 86.1886 54.2728 86.2013C53.4035 86.2269 52.6205 86.0959 51.9237 85.8082C51.227 85.5142 50.6741 85.0604 50.265 84.4467C49.8623 83.8331 49.6642 83.0661 49.6705 82.1456V67.7443ZM62.7367 77.3707V86H59.2658V66.3636H62.66V73.7752H62.8326C63.1777 72.9442 63.7115 72.2891 64.4338 71.8097C65.1625 71.3239 66.0893 71.081 67.2143 71.081C68.237 71.081 69.1287 71.2951 69.8894 71.7234C70.65 72.1516 71.2381 72.7781 71.6536 73.6026C72.0755 74.4272 72.2864 75.4339 72.2864 76.6229V86H68.8155V77.1598C68.8155 76.169 68.5598 75.3988 68.0485 74.8491C67.5435 74.293 66.834 74.0149 65.9199 74.0149C65.3063 74.0149 64.7566 74.1491 64.2708 74.4176C63.7914 74.6797 63.4142 75.06 63.1394 75.5586C62.8709 76.0572 62.7367 76.6612 62.7367 77.3707ZM82.3443 86.2876C80.8677 86.2876 79.5925 85.9808 78.5186 85.3672C77.4512 84.7472 76.6298 83.8714 76.0545 82.7401C75.4792 81.6023 75.1916 80.2631 75.1916 78.7227C75.1916 77.2077 75.4792 75.8782 76.0545 74.734C76.6362 73.5835 77.448 72.6886 78.4899 72.0494C79.5318 71.4038 80.7559 71.081 82.1621 71.081C83.0698 71.081 83.9263 71.228 84.7317 71.522C85.5435 71.8097 86.2594 72.2571 86.8794 72.8643C87.5059 73.4716 87.998 74.245 88.356 75.1847C88.714 76.1179 88.8929 77.2301 88.8929 78.5213V79.5856H76.8216V77.2461H85.5659C85.5595 76.5813 85.4157 75.9901 85.1344 75.4723C84.8532 74.9482 84.4601 74.5359 83.9551 74.2354C83.4565 73.935 82.8748 73.7848 82.21 73.7848C81.5005 73.7848 80.8773 73.9574 80.3404 74.3026C79.8034 74.6413 79.3848 75.0888 79.0843 75.6449C78.7903 76.1946 78.6401 76.7987 78.6337 77.457V79.4993C78.6337 80.3558 78.7903 81.0909 79.1035 81.7045C79.4167 82.3118 79.8546 82.7784 80.4171 83.1044C80.9796 83.424 81.638 83.5838 82.3922 83.5838C82.8972 83.5838 83.3542 83.5135 83.7633 83.3729C84.1724 83.2259 84.5272 83.0117 84.8276 82.7305C85.128 82.4492 85.3549 82.1009 85.5083 81.6854L88.7491 82.0497C88.5446 82.9062 88.1547 83.6541 87.5794 84.2933C87.0105 84.9261 86.2818 85.4183 85.3933 85.7699C84.5048 86.1151 83.4885 86.2876 82.3443 86.2876ZM91.8293 86V71.2727H95.1947V73.7273H95.3481C95.6166 72.8771 96.0768 72.2219 96.7288 71.7617C97.3872 71.2951 98.1382 71.0618 98.982 71.0618C99.1737 71.0618 99.3879 71.0714 99.6244 71.0906C99.8673 71.1033 100.069 71.1257 100.228 71.1577V74.3505C100.081 74.2994 99.8481 74.2546 99.5285 74.2163C99.2153 74.1715 98.9117 74.1491 98.6176 74.1491C97.9848 74.1491 97.4159 74.2866 96.911 74.5614C96.4124 74.8299 96.0193 75.2038 95.7316 75.6832C95.444 76.1626 95.3002 76.7156 95.3002 77.342V86H91.8293ZM108.522 69.3455V66.3636H124.189V69.3455H118.12V86H114.591V69.3455H108.522ZM131.344 86.2876C129.906 86.2876 128.659 85.9712 127.605 85.3384C126.55 84.7056 125.732 83.8203 125.15 82.6825C124.575 81.5447 124.287 80.2152 124.287 78.6939C124.287 77.1726 124.575 75.8398 125.15 74.6957C125.732 73.5515 126.55 72.663 127.605 72.0302C128.659 71.3974 129.906 71.081 131.344 71.081C132.782 71.081 134.029 71.3974 135.083 72.0302C136.138 72.663 136.953 73.5515 137.528 74.6957C138.11 75.8398 138.401 77.1726 138.401 78.6939C138.401 80.2152 138.11 81.5447 137.528 82.6825C136.953 83.8203 136.138 84.7056 135.083 85.3384C134.029 85.9712 132.782 86.2876 131.344 86.2876ZM131.363 83.5071C132.143 83.5071 132.795 83.293 133.319 82.8647C133.843 82.43 134.233 81.8484 134.489 81.1197C134.751 80.391 134.882 79.5792 134.882 78.6843C134.882 77.783 134.751 76.968 134.489 76.2393C134.233 75.5043 133.843 74.9194 133.319 74.4847C132.795 74.0501 132.143 73.8327 131.363 73.8327C130.564 73.8327 129.9 74.0501 129.369 74.4847C128.845 74.9194 128.452 75.5043 128.19 76.2393C127.934 76.968 127.806 77.783 127.806 78.6843C127.806 79.5792 127.934 80.391 128.19 81.1197C128.452 81.8484 128.845 82.43 129.369 82.8647C129.9 83.293 130.564 83.5071 131.363 83.5071ZM147.771 86.2876C146.333 86.2876 145.086 85.9712 144.032 85.3384C142.977 84.7056 142.159 83.8203 141.577 82.6825C141.002 81.5447 140.714 80.2152 140.714 78.6939C140.714 77.1726 141.002 75.8398 141.577 74.6957C142.159 73.5515 142.977 72.663 144.032 72.0302C145.086 71.3974 146.333 71.081 147.771 71.081C149.209 71.081 150.456 71.3974 151.51 72.0302C152.565 72.663 153.38 73.5515 153.955 74.6957C154.537 75.8398 154.828 77.1726 154.828 78.6939C154.828 80.2152 154.537 81.5447 153.955 82.6825C153.38 83.8203 152.565 84.7056 151.51 85.3384C150.456 85.9712 149.209 86.2876 147.771 86.2876ZM147.79 83.5071C148.57 83.5071 149.222 83.293 149.746 82.8647C150.27 82.43 150.66 81.8484 150.916 81.1197C151.178 80.391 151.309 79.5792 151.309 78.6843C151.309 77.783 151.178 76.968 150.916 76.2393C150.66 75.5043 150.27 74.9194 149.746 74.4847C149.222 74.0501 148.57 73.8327 147.79 73.8327C146.991 73.8327 146.326 74.0501 145.796 74.4847C145.272 74.9194 144.878 75.5043 144.616 76.2393C144.361 76.968 144.233 77.783 144.233 78.6843C144.233 79.5792 144.361 80.391 144.616 81.1197C144.878 81.8484 145.272 82.43 145.796 82.8647C146.326 83.293 146.991 83.5071 147.79 83.5071ZM161.244 66.3636V86H157.774V66.3636H161.244ZM176.454 75.1655L173.29 75.5107C173.2 75.1911 173.043 74.8906 172.82 74.6094C172.602 74.3281 172.308 74.1012 171.938 73.9286C171.567 73.756 171.113 73.6697 170.576 73.6697C169.854 73.6697 169.247 73.8263 168.754 74.1396C168.269 74.4528 168.029 74.8587 168.035 75.3572C168.029 75.7855 168.185 76.1339 168.505 76.4023C168.831 76.6708 169.368 76.8913 170.116 77.0639L172.628 77.6009C174.021 77.9013 175.057 78.3775 175.734 79.0295C176.418 79.6815 176.764 80.5348 176.77 81.5895C176.764 82.5163 176.492 83.3345 175.955 84.044C175.424 84.7472 174.686 85.2969 173.74 85.6932C172.794 86.0895 171.707 86.2876 170.48 86.2876C168.678 86.2876 167.227 85.9105 166.127 85.1562C165.028 84.3956 164.373 83.3377 164.162 81.9826L167.546 81.6566C167.7 82.3214 168.026 82.8232 168.524 83.1619C169.023 83.5007 169.672 83.6701 170.471 83.6701C171.295 83.6701 171.957 83.5007 172.455 83.1619C172.96 82.8232 173.213 82.4045 173.213 81.9059C173.213 81.484 173.05 81.1357 172.724 80.8608C172.404 80.5859 171.906 80.375 171.228 80.228L168.716 79.7006C167.303 79.4066 166.258 78.9112 165.581 78.2145C164.903 77.5114 164.568 76.6229 164.574 75.549C164.568 74.6413 164.814 73.8551 165.312 73.1903C165.817 72.5192 166.517 72.0014 167.412 71.6371C168.313 71.2663 169.352 71.081 170.528 71.081C172.254 71.081 173.612 71.4485 174.603 72.1836C175.6 72.9187 176.217 73.9126 176.454 75.1655Z" fill="black"/>
<path d="M27.9368 367V347.364H31.494V364.018H40.1424V367H27.9368ZM47.3143 367.297C46.381 367.297 45.5405 367.131 44.7926 366.799C44.0511 366.46 43.4631 365.961 43.0284 365.303C42.6001 364.645 42.386 363.833 42.386 362.868C42.386 362.037 42.5394 361.349 42.8462 360.806C43.1531 360.263 43.5717 359.828 44.1023 359.502C44.6328 359.176 45.2305 358.93 45.8952 358.764C46.5664 358.591 47.2599 358.467 47.9759 358.39C48.8388 358.3 49.5387 358.221 50.0756 358.15C50.6126 358.074 51.0025 357.958 51.2454 357.805C51.4947 357.645 51.6193 357.399 51.6193 357.067V357.009C51.6193 356.287 51.4052 355.728 50.9769 355.331C50.5487 354.935 49.9318 354.737 49.1264 354.737C48.2763 354.737 47.6019 354.922 47.1033 355.293C46.6112 355.664 46.2788 356.102 46.1062 356.607L42.8654 356.146C43.1211 355.251 43.543 354.504 44.131 353.903C44.7191 353.295 45.4382 352.842 46.2884 352.541C47.1385 352.234 48.0781 352.081 49.1072 352.081C49.8168 352.081 50.5231 352.164 51.2262 352.33C51.9293 352.496 52.5717 352.771 53.1534 353.155C53.7351 353.532 54.2017 354.047 54.5533 354.699C54.9112 355.35 55.0902 356.165 55.0902 357.143V367H51.7536V364.977H51.6385C51.4276 365.386 51.1303 365.77 50.7468 366.127C50.3697 366.479 49.8935 366.763 49.3182 366.981C48.7493 367.192 48.0813 367.297 47.3143 367.297ZM48.2156 364.747C48.9123 364.747 49.5163 364.609 50.0277 364.335C50.5391 364.053 50.9322 363.683 51.207 363.222C51.4883 362.762 51.6289 362.26 51.6289 361.717V359.982C51.5202 360.071 51.3349 360.154 51.0728 360.231C50.8171 360.308 50.5295 360.375 50.2099 360.432C49.8903 360.49 49.5739 360.541 49.2607 360.586C48.9474 360.63 48.6758 360.669 48.4457 360.701C47.9279 360.771 47.4645 360.886 47.0554 361.046C46.6463 361.206 46.3235 361.429 46.087 361.717C45.8505 361.998 45.7322 362.363 45.7322 362.81C45.7322 363.449 45.9656 363.932 46.4322 364.258C46.8988 364.584 47.4933 364.747 48.2156 364.747ZM62.0511 358.371V367H58.5803V352.273H61.8977V354.775H62.0703C62.4091 353.951 62.9492 353.295 63.6907 352.81C64.4386 352.324 65.3622 352.081 66.4616 352.081C67.478 352.081 68.3633 352.298 69.1175 352.733C69.8782 353.168 70.4663 353.797 70.8817 354.622C71.3036 355.446 71.5114 356.447 71.505 357.623V367H68.0341V358.16C68.0341 357.175 67.7784 356.405 67.267 355.849C66.7621 355.293 66.0621 355.015 65.1673 355.015C64.56 355.015 64.0199 355.149 63.5469 355.418C63.0803 355.68 62.7127 356.06 62.4442 356.559C62.1822 357.057 62.0511 357.661 62.0511 358.371ZM81.4382 372.83C80.1918 372.83 79.1211 372.66 78.2262 372.321C77.3313 371.989 76.6122 371.542 76.0689 370.979C75.5256 370.417 75.1484 369.793 74.9375 369.109L78.0632 368.352C78.2038 368.64 78.4084 368.924 78.6768 369.205C78.9453 369.493 79.3065 369.729 79.7603 369.915C80.2205 370.107 80.799 370.202 81.4957 370.202C82.4801 370.202 83.2951 369.963 83.9407 369.483C84.5863 369.01 84.9091 368.23 84.9091 367.144V364.354H84.7365C84.5575 364.712 84.2955 365.079 83.9503 365.456C83.6115 365.833 83.1609 366.15 82.5984 366.406C82.0423 366.661 81.3423 366.789 80.4986 366.789C79.3672 366.789 78.3413 366.524 77.4208 365.993C76.5067 365.456 75.7781 364.657 75.2347 363.596C74.6978 362.529 74.4293 361.193 74.4293 359.588C74.4293 357.971 74.6978 356.607 75.2347 355.494C75.7781 354.376 76.5099 353.529 77.4304 352.953C78.3509 352.372 79.3768 352.081 80.5082 352.081C81.3711 352.081 82.0806 352.228 82.6367 352.522C83.1992 352.81 83.6467 353.158 83.979 353.567C84.3114 353.97 84.5639 354.35 84.7365 354.708H84.9283V352.273H88.3512V367.24C88.3512 368.499 88.0508 369.541 87.4499 370.365C86.8491 371.19 86.0277 371.807 84.9858 372.216C83.9439 372.625 82.7614 372.83 81.4382 372.83ZM81.467 364.066C82.2021 364.066 82.8285 363.887 83.3462 363.529C83.864 363.171 84.2571 362.657 84.5256 361.985C84.794 361.314 84.9283 360.509 84.9283 359.569C84.9283 358.642 84.794 357.831 84.5256 357.134C84.2635 356.437 83.8736 355.897 83.3558 355.513C82.8445 355.124 82.2148 354.929 81.467 354.929C80.6935 354.929 80.0479 355.13 79.5302 355.533C79.0124 355.935 78.6225 356.488 78.3604 357.191C78.0984 357.888 77.9673 358.681 77.9673 359.569C77.9673 360.471 78.0984 361.26 78.3604 361.938C78.6289 362.609 79.022 363.133 79.5398 363.51C80.0639 363.881 80.7063 364.066 81.467 364.066ZM101.295 360.806V352.273H104.766V367H101.401V364.382H101.247C100.915 365.207 100.368 365.881 99.6076 366.406C98.8533 366.93 97.9233 367.192 96.8175 367.192C95.8523 367.192 94.9989 366.978 94.2575 366.549C93.5224 366.115 92.9471 365.485 92.5316 364.661C92.1161 363.83 91.9084 362.826 91.9084 361.65V352.273H95.3793V361.113C95.3793 362.046 95.6349 362.788 96.1463 363.337C96.6577 363.887 97.3288 364.162 98.1598 364.162C98.6712 364.162 99.1665 364.037 99.646 363.788C100.125 363.539 100.518 363.168 100.825 362.676C101.138 362.177 101.295 361.554 101.295 360.806ZM112.573 367.297C111.64 367.297 110.799 367.131 110.051 366.799C109.31 366.46 108.722 365.961 108.287 365.303C107.859 364.645 107.645 363.833 107.645 362.868C107.645 362.037 107.798 361.349 108.105 360.806C108.412 360.263 108.831 359.828 109.361 359.502C109.892 359.176 110.489 358.93 111.154 358.764C111.825 358.591 112.519 358.467 113.235 358.39C114.098 358.3 114.797 358.221 115.334 358.15C115.871 358.074 116.261 357.958 116.504 357.805C116.753 357.645 116.878 357.399 116.878 357.067V357.009C116.878 356.287 116.664 355.728 116.236 355.331C115.807 354.935 115.191 354.737 114.385 354.737C113.535 354.737 112.861 354.922 112.362 355.293C111.87 355.664 111.538 356.102 111.365 356.607L108.124 356.146C108.38 355.251 108.802 354.504 109.39 353.903C109.978 353.295 110.697 352.842 111.547 352.541C112.397 352.234 113.337 352.081 114.366 352.081C115.076 352.081 115.782 352.164 116.485 352.33C117.188 352.496 117.831 352.771 118.412 353.155C118.994 353.532 119.46 354.047 119.812 354.699C120.17 355.35 120.349 356.165 120.349 357.143V367H117.012V364.977H116.897C116.686 365.386 116.389 365.77 116.006 366.127C115.628 366.479 115.152 366.763 114.577 366.981C114.008 367.192 113.34 367.297 112.573 367.297ZM113.474 364.747C114.171 364.747 114.775 364.609 115.286 364.335C115.798 364.053 116.191 363.683 116.466 363.222C116.747 362.762 116.888 362.26 116.888 361.717V359.982C116.779 360.071 116.594 360.154 116.332 360.231C116.076 360.308 115.788 360.375 115.469 360.432C115.149 360.49 114.833 360.541 114.519 360.586C114.206 360.63 113.935 360.669 113.704 360.701C113.187 360.771 112.723 360.886 112.314 361.046C111.905 361.206 111.582 361.429 111.346 361.717C111.109 361.998 110.991 362.363 110.991 362.81C110.991 363.449 111.224 363.932 111.691 364.258C112.158 364.584 112.752 364.747 113.474 364.747ZM130.244 372.83C128.997 372.83 127.927 372.66 127.032 372.321C126.137 371.989 125.418 371.542 124.875 370.979C124.331 370.417 123.954 369.793 123.743 369.109L126.869 368.352C127.009 368.64 127.214 368.924 127.483 369.205C127.751 369.493 128.112 369.729 128.566 369.915C129.026 370.107 129.605 370.202 130.301 370.202C131.286 370.202 132.101 369.963 132.746 369.483C133.392 369.01 133.715 368.23 133.715 367.144V364.354H133.542C133.363 364.712 133.101 365.079 132.756 365.456C132.417 365.833 131.967 366.15 131.404 366.406C130.848 366.661 130.148 366.789 129.304 366.789C128.173 366.789 127.147 366.524 126.226 365.993C125.312 365.456 124.584 364.657 124.04 363.596C123.503 362.529 123.235 361.193 123.235 359.588C123.235 357.971 123.503 356.607 124.04 355.494C124.584 354.376 125.316 353.529 126.236 352.953C127.157 352.372 128.182 352.081 129.314 352.081C130.177 352.081 130.886 352.228 131.442 352.522C132.005 352.81 132.452 353.158 132.785 353.567C133.117 353.97 133.37 354.35 133.542 354.708H133.734V352.273H137.157V367.24C137.157 368.499 136.856 369.541 136.256 370.365C135.655 371.19 134.833 371.807 133.791 372.216C132.75 372.625 131.567 372.83 130.244 372.83ZM130.273 364.066C131.008 364.066 131.634 363.887 132.152 363.529C132.67 363.171 133.063 362.657 133.331 361.985C133.6 361.314 133.734 360.509 133.734 359.569C133.734 358.642 133.6 357.831 133.331 357.134C133.069 356.437 132.679 355.897 132.161 355.513C131.65 355.124 131.021 354.929 130.273 354.929C129.499 354.929 128.854 355.13 128.336 355.533C127.818 355.935 127.428 356.488 127.166 357.191C126.904 357.888 126.773 358.681 126.773 359.569C126.773 360.471 126.904 361.26 127.166 361.938C127.435 362.609 127.828 363.133 128.345 363.51C128.87 363.881 129.512 364.066 130.273 364.066ZM147.234 367.288C145.757 367.288 144.482 366.981 143.408 366.367C142.341 365.747 141.519 364.871 140.944 363.74C140.369 362.602 140.081 361.263 140.081 359.723C140.081 358.208 140.369 356.878 140.944 355.734C141.526 354.583 142.338 353.689 143.38 353.049C144.421 352.404 145.646 352.081 147.052 352.081C147.959 352.081 148.816 352.228 149.621 352.522C150.433 352.81 151.149 353.257 151.769 353.864C152.396 354.472 152.888 355.245 153.246 356.185C153.604 357.118 153.783 358.23 153.783 359.521V360.586H141.711V358.246H150.456C150.449 357.581 150.305 356.99 150.024 356.472C149.743 355.948 149.35 355.536 148.845 355.235C148.346 354.935 147.764 354.785 147.1 354.785C146.39 354.785 145.767 354.957 145.23 355.303C144.693 355.641 144.274 356.089 143.974 356.645C143.68 357.195 143.53 357.799 143.523 358.457V360.499C143.523 361.356 143.68 362.091 143.993 362.705C144.306 363.312 144.744 363.778 145.307 364.104C145.869 364.424 146.528 364.584 147.282 364.584C147.787 364.584 148.244 364.513 148.653 364.373C149.062 364.226 149.417 364.012 149.717 363.73C150.018 363.449 150.245 363.101 150.398 362.685L153.639 363.05C153.434 363.906 153.044 364.654 152.469 365.293C151.9 365.926 151.171 366.418 150.283 366.77C149.394 367.115 148.378 367.288 147.234 367.288ZM168.359 356.165L165.195 356.511C165.105 356.191 164.949 355.891 164.725 355.609C164.508 355.328 164.214 355.101 163.843 354.929C163.472 354.756 163.018 354.67 162.481 354.67C161.759 354.67 161.152 354.826 160.66 355.14C160.174 355.453 159.934 355.859 159.941 356.357C159.934 356.786 160.091 357.134 160.41 357.402C160.736 357.671 161.273 357.891 162.021 358.064L164.533 358.601C165.927 358.901 166.962 359.377 167.64 360.029C168.324 360.681 168.669 361.535 168.675 362.589C168.669 363.516 168.397 364.335 167.86 365.044C167.33 365.747 166.591 366.297 165.645 366.693C164.699 367.089 163.613 367.288 162.385 367.288C160.583 367.288 159.132 366.911 158.032 366.156C156.933 365.396 156.278 364.338 156.067 362.983L159.452 362.657C159.605 363.321 159.931 363.823 160.43 364.162C160.928 364.501 161.577 364.67 162.376 364.67C163.2 364.67 163.862 364.501 164.361 364.162C164.866 363.823 165.118 363.404 165.118 362.906C165.118 362.484 164.955 362.136 164.629 361.861C164.309 361.586 163.811 361.375 163.133 361.228L160.621 360.701C159.209 360.407 158.164 359.911 157.486 359.214C156.808 358.511 156.473 357.623 156.479 356.549C156.473 355.641 156.719 354.855 157.218 354.19C157.722 353.519 158.422 353.001 159.317 352.637C160.219 352.266 161.257 352.081 162.433 352.081C164.159 352.081 165.518 352.449 166.508 353.184C167.506 353.919 168.122 354.913 168.359 356.165Z" fill="black"/>
<path d="M43.4112 525.017V523.455H54.3203V525.017H49.7464V538H47.9851V525.017H43.4112ZM56.641 542.091C56.3569 542.091 56.1036 542.067 55.881 542.02C55.6585 541.977 55.5046 541.935 55.4194 541.892L55.8455 540.415C56.2527 540.519 56.6126 540.557 56.9251 540.528C57.2376 540.5 57.5146 540.36 57.756 540.109C58.0022 539.863 58.2272 539.463 58.4308 538.909L58.7433 538.057L54.7092 527.091H56.5273L59.5387 535.784H59.6523L62.6637 527.091H64.4819L59.8512 539.591C59.6429 540.154 59.3848 540.621 59.0771 540.99C58.7693 541.364 58.4118 541.641 58.0046 541.821C57.6022 542.001 57.1476 542.091 56.641 542.091ZM66.6942 542.091V527.091H68.3136V528.824H68.5124C68.6355 528.634 68.806 528.393 69.0238 528.099C69.2463 527.801 69.5636 527.536 69.9755 527.304C70.3922 527.067 70.9556 526.949 71.6658 526.949C72.5844 526.949 73.3941 527.179 74.0948 527.638C74.7956 528.097 75.3424 528.748 75.7354 529.591C76.1284 530.434 76.3249 531.428 76.3249 532.574C76.3249 533.729 76.1284 534.731 75.7354 535.578C75.3424 536.421 74.7979 537.074 74.1019 537.538C73.4059 537.998 72.6033 538.227 71.6942 538.227C70.9935 538.227 70.4324 538.111 70.011 537.879C69.5896 537.643 69.2653 537.375 69.038 537.077C68.8107 536.774 68.6355 536.523 68.5124 536.324H68.3704V542.091H66.6942ZM68.342 532.545C68.342 533.369 68.4627 534.096 68.7042 534.726C68.9457 535.351 69.2984 535.841 69.7624 536.196C70.2264 536.546 70.7946 536.722 71.467 536.722C72.1677 536.722 72.7525 536.537 73.2212 536.168C73.6947 535.794 74.0498 535.292 74.2866 534.662C74.5281 534.027 74.6488 533.322 74.6488 532.545C74.6488 531.778 74.5304 531.087 74.2937 530.472C74.0617 529.851 73.7089 529.361 73.2354 529.001C72.7667 528.637 72.1772 528.455 71.467 528.455C70.7852 528.455 70.2122 528.627 69.7482 528.973C69.2842 529.314 68.9338 529.792 68.6971 530.408C68.4603 531.018 68.342 531.731 68.342 532.545ZM83.4556 538.227C82.4045 538.227 81.4978 537.995 80.7354 537.531C79.9779 537.062 79.3931 536.409 78.9812 535.571C78.574 534.728 78.3704 533.748 78.3704 532.631C78.3704 531.513 78.574 530.528 78.9812 529.676C79.3931 528.819 79.966 528.152 80.6999 527.673C81.4386 527.19 82.3003 526.949 83.2852 526.949C83.8533 526.949 84.4144 527.044 84.9684 527.233C85.5224 527.422 86.0266 527.73 86.4812 528.156C86.9357 528.578 87.2979 529.136 87.5678 529.832C87.8377 530.528 87.9727 531.385 87.9727 532.403V533.114H79.5636V531.665H86.2681C86.2681 531.049 86.145 530.5 85.8988 530.017C85.6573 529.534 85.3117 529.153 84.8619 528.874C84.4168 528.594 83.8912 528.455 83.2852 528.455C82.6175 528.455 82.0399 528.62 81.5522 528.952C81.0692 529.278 80.6976 529.705 80.4371 530.23C80.1767 530.756 80.0465 531.319 80.0465 531.92V532.886C80.0465 533.71 80.1886 534.409 80.4727 534.982C80.7615 535.55 81.1616 535.983 81.6729 536.281C82.1843 536.575 82.7785 536.722 83.4556 536.722C83.896 536.722 84.2937 536.66 84.6488 536.537C85.0086 536.409 85.3188 536.22 85.5792 535.969C85.8396 535.713 86.0408 535.396 86.1829 535.017L87.8022 535.472C87.6317 536.021 87.3453 536.504 86.9428 536.92C86.5404 537.332 86.0432 537.654 85.4513 537.886C84.8595 538.114 84.1942 538.227 83.4556 538.227ZM98.7042 527.091C98.619 526.371 98.2733 525.812 97.6673 525.415C97.0612 525.017 96.3178 524.818 95.4371 524.818C94.7932 524.818 94.2298 524.922 93.7468 525.131C93.2686 525.339 92.8945 525.625 92.6246 525.99C92.3595 526.355 92.2269 526.769 92.2269 527.233C92.2269 527.621 92.3192 527.955 92.5039 528.234C92.6933 528.509 92.9348 528.739 93.2283 528.923C93.5219 529.103 93.8297 529.252 94.1516 529.371C94.4736 529.484 94.7695 529.577 95.0394 529.648L96.5167 530.045C96.8955 530.145 97.3169 530.282 97.7809 530.457C98.2496 530.633 98.6971 530.872 99.1232 531.175C99.5541 531.473 99.9092 531.857 100.189 532.325C100.468 532.794 100.608 533.369 100.608 534.051C100.608 534.837 100.402 535.547 99.9897 536.182C99.5825 536.816 98.9859 537.321 98.1999 537.695C97.4187 538.069 96.4693 538.256 95.3519 538.256C94.3103 538.256 93.4083 538.088 92.646 537.751C91.8884 537.415 91.2918 536.946 90.8562 536.345C90.4253 535.744 90.1815 535.045 90.1246 534.25H91.9428C91.9902 534.799 92.1748 535.254 92.4968 535.614C92.8235 535.969 93.2354 536.234 93.7326 536.409C94.2345 536.58 94.7743 536.665 95.3519 536.665C96.0243 536.665 96.628 536.556 97.163 536.338C97.698 536.116 98.1218 535.808 98.4343 535.415C98.7468 535.017 98.9031 534.553 98.9031 534.023C98.9031 533.54 98.7681 533.147 98.4982 532.844C98.2283 532.541 97.8732 532.295 97.4329 532.105C96.9925 531.916 96.5167 531.75 96.0053 531.608L94.2156 531.097C93.0792 530.77 92.1796 530.304 91.5167 529.697C90.8538 529.091 90.5224 528.298 90.5224 527.318C90.5224 526.504 90.7425 525.794 91.1829 525.188C91.628 524.577 92.2246 524.103 92.9727 523.767C93.7255 523.426 94.5659 523.256 95.494 523.256C96.4315 523.256 97.2648 523.424 97.994 523.76C98.7231 524.091 99.3008 524.546 99.7269 525.124C100.158 525.701 100.385 526.357 100.409 527.091H98.7042ZM107.708 538.227C106.685 538.227 105.805 537.986 105.066 537.503C104.327 537.02 103.759 536.355 103.362 535.507C102.964 534.66 102.765 533.691 102.765 532.602C102.765 531.494 102.969 530.517 103.376 529.669C103.788 528.817 104.361 528.152 105.094 527.673C105.833 527.19 106.695 526.949 107.68 526.949C108.447 526.949 109.138 527.091 109.754 527.375C110.369 527.659 110.873 528.057 111.266 528.568C111.659 529.08 111.903 529.676 111.998 530.358H110.322C110.194 529.861 109.91 529.42 109.469 529.037C109.034 528.649 108.447 528.455 107.708 528.455C107.055 528.455 106.482 528.625 105.989 528.966C105.502 529.302 105.121 529.778 104.846 530.393C104.576 531.004 104.441 531.722 104.441 532.545C104.441 533.388 104.574 534.122 104.839 534.747C105.109 535.372 105.487 535.857 105.975 536.203C106.468 536.549 107.045 536.722 107.708 536.722C108.144 536.722 108.539 536.646 108.894 536.494C109.249 536.343 109.55 536.125 109.796 535.841C110.042 535.557 110.218 535.216 110.322 534.818H111.998C111.903 535.462 111.669 536.042 111.295 536.558C110.925 537.07 110.435 537.477 109.825 537.78C109.219 538.078 108.513 538.227 107.708 538.227ZM114.448 538V527.091H116.067V528.739H116.181C116.38 528.199 116.74 527.761 117.261 527.425C117.781 527.089 118.369 526.92 119.022 526.92C119.145 526.92 119.299 526.923 119.484 526.928C119.668 526.932 119.808 526.939 119.903 526.949V528.653C119.846 528.639 119.716 528.618 119.512 528.589C119.313 528.556 119.103 528.54 118.88 528.54C118.35 528.54 117.876 528.651 117.46 528.874C117.048 529.091 116.721 529.394 116.479 529.783C116.243 530.166 116.124 530.604 116.124 531.097V538H114.448ZM121.89 538V527.091H123.566V538H121.89ZM122.742 525.273C122.415 525.273 122.133 525.161 121.897 524.939C121.665 524.716 121.549 524.449 121.549 524.136C121.549 523.824 121.665 523.556 121.897 523.334C122.133 523.111 122.415 523 122.742 523C123.069 523 123.348 523.111 123.58 523.334C123.817 523.556 123.935 523.824 123.935 524.136C123.935 524.449 123.817 524.716 123.58 524.939C123.348 525.161 123.069 525.273 122.742 525.273ZM126.636 542.091V527.091H128.255V528.824H128.454C128.577 528.634 128.747 528.393 128.965 528.099C129.188 527.801 129.505 527.536 129.917 527.304C130.334 527.067 130.897 526.949 131.607 526.949C132.526 526.949 133.335 527.179 134.036 527.638C134.737 528.097 135.284 528.748 135.677 529.591C136.07 530.434 136.266 531.428 136.266 532.574C136.266 533.729 136.07 534.731 135.677 535.578C135.284 536.421 134.739 537.074 134.043 537.538C133.347 537.998 132.545 538.227 131.636 538.227C130.935 538.227 130.374 538.111 129.952 537.879C129.531 537.643 129.207 537.375 128.979 537.077C128.752 536.774 128.577 536.523 128.454 536.324H128.312V542.091H126.636ZM128.283 532.545C128.283 533.369 128.404 534.096 128.646 534.726C128.887 535.351 129.24 535.841 129.704 536.196C130.168 536.546 130.736 536.722 131.408 536.722C132.109 536.722 132.694 536.537 133.163 536.168C133.636 535.794 133.991 535.292 134.228 534.662C134.469 534.027 134.59 533.322 134.59 532.545C134.59 531.778 134.472 531.087 134.235 530.472C134.003 529.851 133.65 529.361 133.177 529.001C132.708 528.637 132.119 528.455 131.408 528.455C130.727 528.455 130.154 528.627 129.69 528.973C129.226 529.314 128.875 529.792 128.638 530.408C128.402 531.018 128.283 531.731 128.283 532.545ZM143.567 527.091V528.511H137.914V527.091H143.567ZM139.562 524.477H141.238V534.875C141.238 535.348 141.307 535.704 141.444 535.94C141.586 536.172 141.766 536.329 141.984 536.409C142.206 536.485 142.441 536.523 142.687 536.523C142.871 536.523 143.023 536.513 143.141 536.494C143.26 536.471 143.354 536.452 143.425 536.438L143.766 537.943C143.653 537.986 143.494 538.028 143.29 538.071C143.087 538.118 142.829 538.142 142.516 538.142C142.043 538.142 141.579 538.04 141.124 537.837C140.674 537.633 140.3 537.323 140.002 536.906C139.709 536.49 139.562 535.964 139.562 535.33V524.477Z" fill="black"/>
<path d="M186.358 260.455L190.676 272.699H190.847L195.165 260.455H197.011L191.67 275H189.852L184.511 260.455H186.358ZM207.232 264.091C207.146 263.371 206.801 262.812 206.195 262.415C205.589 262.017 204.845 261.818 203.964 261.818C203.321 261.818 202.757 261.922 202.274 262.131C201.796 262.339 201.422 262.625 201.152 262.99C200.887 263.355 200.754 263.769 200.754 264.233C200.754 264.621 200.847 264.955 201.031 265.234C201.221 265.509 201.462 265.739 201.756 265.923C202.049 266.103 202.357 266.252 202.679 266.371C203.001 266.484 203.297 266.577 203.567 266.648L205.044 267.045C205.423 267.145 205.844 267.282 206.308 267.457C206.777 267.633 207.224 267.872 207.651 268.175C208.081 268.473 208.437 268.857 208.716 269.325C208.995 269.794 209.135 270.369 209.135 271.051C209.135 271.837 208.929 272.547 208.517 273.182C208.11 273.816 207.513 274.321 206.727 274.695C205.946 275.069 204.997 275.256 203.879 275.256C202.838 275.256 201.936 275.088 201.173 274.751C200.416 274.415 199.819 273.946 199.384 273.345C198.953 272.744 198.709 272.045 198.652 271.25H200.47C200.518 271.799 200.702 272.254 201.024 272.614C201.351 272.969 201.763 273.234 202.26 273.409C202.762 273.58 203.302 273.665 203.879 273.665C204.552 273.665 205.155 273.556 205.69 273.338C206.225 273.116 206.649 272.808 206.962 272.415C207.274 272.017 207.43 271.553 207.43 271.023C207.43 270.54 207.295 270.147 207.026 269.844C206.756 269.541 206.401 269.295 205.96 269.105C205.52 268.916 205.044 268.75 204.533 268.608L202.743 268.097C201.607 267.77 200.707 267.304 200.044 266.697C199.381 266.091 199.05 265.298 199.05 264.318C199.05 263.504 199.27 262.794 199.71 262.188C200.155 261.577 200.752 261.103 201.5 260.767C202.253 260.426 203.093 260.256 204.021 260.256C204.959 260.256 205.792 260.424 206.521 260.76C207.25 261.091 207.828 261.546 208.254 262.124C208.685 262.701 208.912 263.357 208.936 264.091H207.232ZM229.36 265H227.599C227.495 264.493 227.313 264.048 227.052 263.665C226.797 263.281 226.484 262.959 226.115 262.699C225.75 262.434 225.345 262.235 224.9 262.102C224.455 261.97 223.991 261.903 223.508 261.903C222.627 261.903 221.83 262.126 221.115 262.571C220.404 263.016 219.839 263.672 219.417 264.538C219.001 265.405 218.792 266.468 218.792 267.727C218.792 268.987 219.001 270.05 219.417 270.916C219.839 271.783 220.404 272.438 221.115 272.884C221.83 273.329 222.627 273.551 223.508 273.551C223.991 273.551 224.455 273.485 224.9 273.352C225.345 273.22 225.75 273.023 226.115 272.763C226.484 272.498 226.797 272.173 227.052 271.79C227.313 271.402 227.495 270.956 227.599 270.455H229.36C229.228 271.198 228.986 271.863 228.636 272.45C228.286 273.037 227.85 273.537 227.329 273.949C226.808 274.356 226.224 274.666 225.575 274.879C224.931 275.092 224.242 275.199 223.508 275.199C222.268 275.199 221.164 274.896 220.199 274.29C219.233 273.684 218.473 272.822 217.919 271.705C217.365 270.587 217.088 269.261 217.088 267.727C217.088 266.193 217.365 264.867 217.919 263.75C218.473 262.633 219.233 261.771 220.199 261.165C221.164 260.559 222.268 260.256 223.508 260.256C224.242 260.256 224.931 260.362 225.575 260.575C226.224 260.788 226.808 261.101 227.329 261.513C227.85 261.92 228.286 262.417 228.636 263.004C228.986 263.587 229.228 264.252 229.36 265ZM236.411 275.227C235.426 275.227 234.562 274.993 233.819 274.524C233.08 274.055 232.503 273.4 232.086 272.557C231.674 271.714 231.468 270.729 231.468 269.602C231.468 268.466 231.674 267.474 232.086 266.626C232.503 265.779 233.08 265.121 233.819 264.652C234.562 264.183 235.426 263.949 236.411 263.949C237.396 263.949 238.258 264.183 238.996 264.652C239.74 265.121 240.317 265.779 240.729 266.626C241.146 267.474 241.354 268.466 241.354 269.602C241.354 270.729 241.146 271.714 240.729 272.557C240.317 273.4 239.74 274.055 238.996 274.524C238.258 274.993 237.396 275.227 236.411 275.227ZM236.411 273.722C237.159 273.722 237.775 273.53 238.258 273.146C238.741 272.763 239.098 272.259 239.33 271.634C239.562 271.009 239.678 270.331 239.678 269.602C239.678 268.873 239.562 268.194 239.33 267.564C239.098 266.934 238.741 266.425 238.258 266.037C237.775 265.649 237.159 265.455 236.411 265.455C235.663 265.455 235.048 265.649 234.565 266.037C234.082 266.425 233.724 266.934 233.492 267.564C233.26 268.194 233.144 268.873 233.144 269.602C233.144 270.331 233.26 271.009 233.492 271.634C233.724 272.259 234.082 272.763 234.565 273.146C235.048 273.53 235.663 273.722 236.411 273.722ZM248.032 275.227C247.123 275.227 246.321 274.998 245.625 274.538C244.929 274.074 244.384 273.421 243.991 272.578C243.598 271.731 243.402 270.729 243.402 269.574C243.402 268.428 243.598 267.434 243.991 266.591C244.384 265.748 244.931 265.097 245.632 264.638C246.333 264.179 247.142 263.949 248.061 263.949C248.771 263.949 249.332 264.067 249.744 264.304C250.161 264.536 250.478 264.801 250.696 265.099C250.918 265.393 251.091 265.634 251.214 265.824H251.356V260.455H253.032V275H251.413V273.324H251.214C251.091 273.523 250.916 273.774 250.689 274.077C250.461 274.375 250.137 274.643 249.716 274.879C249.294 275.111 248.733 275.227 248.032 275.227ZM248.26 273.722C248.932 273.722 249.5 273.546 249.964 273.196C250.428 272.841 250.781 272.351 251.022 271.726C251.264 271.096 251.385 270.369 251.385 269.545C251.385 268.731 251.266 268.018 251.029 267.408C250.793 266.792 250.442 266.314 249.978 265.973C249.514 265.627 248.941 265.455 248.26 265.455C247.549 265.455 246.958 265.637 246.484 266.001C246.015 266.361 245.663 266.851 245.426 267.472C245.194 268.087 245.078 268.778 245.078 269.545C245.078 270.322 245.196 271.027 245.433 271.662C245.674 272.292 246.029 272.794 246.498 273.168C246.972 273.537 247.559 273.722 248.26 273.722ZM260.909 275.227C259.858 275.227 258.951 274.995 258.189 274.531C257.431 274.062 256.846 273.409 256.434 272.571C256.027 271.728 255.824 270.748 255.824 269.631C255.824 268.513 256.027 267.528 256.434 266.676C256.846 265.819 257.419 265.152 258.153 264.673C258.892 264.19 259.753 263.949 260.738 263.949C261.306 263.949 261.868 264.044 262.422 264.233C262.975 264.422 263.48 264.73 263.934 265.156C264.389 265.578 264.751 266.136 265.021 266.832C265.291 267.528 265.426 268.385 265.426 269.403V270.114H257.017V268.665H263.721C263.721 268.049 263.598 267.5 263.352 267.017C263.11 266.534 262.765 266.153 262.315 265.874C261.87 265.594 261.344 265.455 260.738 265.455C260.071 265.455 259.493 265.62 259.005 265.952C258.522 266.278 258.151 266.705 257.89 267.23C257.63 267.756 257.5 268.319 257.5 268.92V269.886C257.5 270.71 257.642 271.409 257.926 271.982C258.215 272.55 258.615 272.983 259.126 273.281C259.637 273.575 260.232 273.722 260.909 273.722C261.349 273.722 261.747 273.66 262.102 273.537C262.462 273.409 262.772 273.22 263.032 272.969C263.293 272.713 263.494 272.396 263.636 272.017L265.255 272.472C265.085 273.021 264.798 273.504 264.396 273.92C263.993 274.332 263.496 274.654 262.904 274.886C262.313 275.114 261.647 275.227 260.909 275.227Z" fill="black"/>
<path d="M200.642 523.455H202.403V533.852C202.403 534.78 202.233 535.569 201.892 536.217C201.551 536.866 201.071 537.358 200.45 537.695C199.83 538.031 199.098 538.199 198.256 538.199C197.46 538.199 196.752 538.054 196.132 537.766C195.512 537.472 195.024 537.055 194.669 536.516C194.314 535.976 194.136 535.334 194.136 534.591H195.869C195.869 535.003 195.971 535.363 196.175 535.67C196.383 535.973 196.667 536.21 197.027 536.381C197.387 536.551 197.796 536.636 198.256 536.636C198.762 536.636 199.193 536.53 199.548 536.317C199.903 536.104 200.173 535.791 200.358 535.379C200.547 534.963 200.642 534.454 200.642 533.852V523.455ZM208.916 538.256C208.225 538.256 207.598 538.125 207.034 537.865C206.471 537.6 206.023 537.219 205.692 536.722C205.36 536.22 205.195 535.614 205.195 534.903C205.195 534.278 205.318 533.772 205.564 533.384C205.81 532.991 206.139 532.683 206.551 532.46C206.963 532.238 207.418 532.072 207.915 531.963C208.417 531.849 208.921 531.759 209.428 531.693C210.09 531.608 210.628 531.544 211.04 531.501C211.456 531.454 211.759 531.376 211.949 531.267C212.143 531.158 212.24 530.969 212.24 530.699V530.642C212.24 529.941 212.048 529.397 211.665 529.009C211.286 528.62 210.711 528.426 209.939 528.426C209.139 528.426 208.511 528.601 208.057 528.952C207.602 529.302 207.283 529.676 207.098 530.074L205.507 529.506C205.791 528.843 206.17 528.327 206.643 527.957C207.122 527.583 207.643 527.323 208.206 527.176C208.774 527.025 209.333 526.949 209.882 526.949C210.232 526.949 210.635 526.991 211.089 527.077C211.549 527.157 211.991 527.325 212.418 527.581C212.848 527.837 213.206 528.223 213.49 528.739C213.774 529.255 213.916 529.946 213.916 530.812V538H212.24V536.523H212.155C212.041 536.759 211.852 537.013 211.587 537.283C211.321 537.553 210.969 537.782 210.528 537.972C210.088 538.161 209.551 538.256 208.916 538.256ZM209.172 536.75C209.835 536.75 210.393 536.62 210.848 536.359C211.307 536.099 211.653 535.763 211.885 535.351C212.122 534.939 212.24 534.506 212.24 534.051V532.517C212.169 532.602 212.013 532.68 211.771 532.751C211.535 532.818 211.26 532.877 210.947 532.929C210.64 532.976 210.339 533.019 210.045 533.057C209.757 533.09 209.522 533.118 209.342 533.142C208.907 533.199 208.5 533.291 208.121 533.419C207.747 533.542 207.444 533.729 207.212 533.98C206.984 534.226 206.871 534.562 206.871 534.989C206.871 535.571 207.086 536.011 207.517 536.31C207.953 536.603 208.504 536.75 209.172 536.75ZM225.505 527.091L221.471 538H219.767L215.733 527.091H217.551L220.562 535.784H220.676L223.687 527.091H225.505ZM230.596 538.256C229.905 538.256 229.277 538.125 228.714 537.865C228.15 537.6 227.703 537.219 227.371 536.722C227.04 536.22 226.874 535.614 226.874 534.903C226.874 534.278 226.997 533.772 227.244 533.384C227.49 532.991 227.819 532.683 228.231 532.46C228.643 532.238 229.097 532.072 229.594 531.963C230.096 531.849 230.601 531.759 231.107 531.693C231.77 531.608 232.308 531.544 232.719 531.501C233.136 531.454 233.439 531.376 233.629 531.267C233.823 531.158 233.92 530.969 233.92 530.699V530.642C233.92 529.941 233.728 529.397 233.344 529.009C232.966 528.62 232.39 528.426 231.619 528.426C230.818 528.426 230.191 528.601 229.737 528.952C229.282 529.302 228.962 529.676 228.778 530.074L227.187 529.506C227.471 528.843 227.85 528.327 228.323 527.957C228.801 527.583 229.322 527.323 229.886 527.176C230.454 527.025 231.013 526.949 231.562 526.949C231.912 526.949 232.315 526.991 232.769 527.077C233.228 527.157 233.671 527.325 234.097 527.581C234.528 527.837 234.886 528.223 235.17 528.739C235.454 529.255 235.596 529.946 235.596 530.812V538H233.92V536.523H233.835C233.721 536.759 233.531 537.013 233.266 537.283C233.001 537.553 232.648 537.782 232.208 537.972C231.768 538.161 231.23 538.256 230.596 538.256ZM230.852 536.75C231.514 536.75 232.073 536.62 232.528 536.359C232.987 536.099 233.333 535.763 233.565 535.351C233.801 534.939 233.92 534.506 233.92 534.051V532.517C233.849 532.602 233.692 532.68 233.451 532.751C233.214 532.818 232.94 532.877 232.627 532.929C232.319 532.976 232.019 533.019 231.725 533.057C231.436 533.09 231.202 533.118 231.022 533.142C230.586 533.199 230.179 533.291 229.8 533.419C229.426 533.542 229.123 533.729 228.891 533.98C228.664 534.226 228.55 534.562 228.55 534.989C228.55 535.571 228.766 536.011 229.197 536.31C229.632 536.603 230.184 536.75 230.852 536.75ZM246.837 527.091C246.752 526.371 246.406 525.812 245.8 525.415C245.194 525.017 244.451 524.818 243.57 524.818C242.926 524.818 242.363 524.922 241.88 525.131C241.401 525.339 241.027 525.625 240.757 525.99C240.492 526.355 240.36 526.769 240.36 527.233C240.36 527.621 240.452 527.955 240.637 528.234C240.826 528.509 241.068 528.739 241.361 528.923C241.655 529.103 241.962 529.252 242.284 529.371C242.606 529.484 242.902 529.577 243.172 529.648L244.65 530.045C245.028 530.145 245.45 530.282 245.914 530.457C246.382 530.633 246.83 530.872 247.256 531.175C247.687 531.473 248.042 531.857 248.321 532.325C248.601 532.794 248.74 533.369 248.74 534.051C248.74 534.837 248.534 535.547 248.123 536.182C247.715 536.816 247.119 537.321 246.333 537.695C245.551 538.069 244.602 538.256 243.485 538.256C242.443 538.256 241.541 538.088 240.779 537.751C240.021 537.415 239.425 536.946 238.989 536.345C238.558 535.744 238.314 535.045 238.257 534.25H240.076C240.123 534.799 240.308 535.254 240.63 535.614C240.956 535.969 241.368 536.234 241.865 536.409C242.367 536.58 242.907 536.665 243.485 536.665C244.157 536.665 244.761 536.556 245.296 536.338C245.831 536.116 246.255 535.808 246.567 535.415C246.88 535.017 247.036 534.553 247.036 534.023C247.036 533.54 246.901 533.147 246.631 532.844C246.361 532.541 246.006 532.295 245.566 532.105C245.125 531.916 244.65 531.75 244.138 531.608L242.348 531.097C241.212 530.77 240.312 530.304 239.65 529.697C238.987 529.091 238.655 528.298 238.655 527.318C238.655 526.504 238.875 525.794 239.316 525.188C239.761 524.577 240.357 524.103 241.105 523.767C241.858 523.426 242.699 523.256 243.627 523.256C244.564 523.256 245.398 523.424 246.127 523.76C246.856 524.091 247.434 524.546 247.86 525.124C248.291 525.701 248.518 526.357 248.542 527.091H246.837ZM255.841 538.227C254.818 538.227 253.938 537.986 253.199 537.503C252.46 537.02 251.892 536.355 251.494 535.507C251.097 534.66 250.898 533.691 250.898 532.602C250.898 531.494 251.101 530.517 251.509 529.669C251.92 528.817 252.493 528.152 253.227 527.673C253.966 527.19 254.828 526.949 255.812 526.949C256.58 526.949 257.271 527.091 257.886 527.375C258.502 527.659 259.006 528.057 259.399 528.568C259.792 529.08 260.036 529.676 260.131 530.358H258.455C258.327 529.861 258.043 529.42 257.602 529.037C257.167 528.649 256.58 528.455 255.841 528.455C255.188 528.455 254.615 528.625 254.122 528.966C253.634 529.302 253.253 529.778 252.979 530.393C252.709 531.004 252.574 531.722 252.574 532.545C252.574 533.388 252.706 534.122 252.972 534.747C253.241 535.372 253.62 535.857 254.108 536.203C254.6 536.549 255.178 536.722 255.841 536.722C256.277 536.722 256.672 536.646 257.027 536.494C257.382 536.343 257.683 536.125 257.929 535.841C258.175 535.557 258.35 535.216 258.455 534.818H260.131C260.036 535.462 259.802 536.042 259.428 536.558C259.058 537.07 258.568 537.477 257.957 537.78C257.351 538.078 256.646 538.227 255.841 538.227ZM262.581 538V527.091H264.2V528.739H264.314C264.513 528.199 264.873 527.761 265.393 527.425C265.914 527.089 266.501 526.92 267.155 526.92C267.278 526.92 267.432 526.923 267.616 526.928C267.801 526.932 267.941 526.939 268.036 526.949V528.653C267.979 528.639 267.848 528.618 267.645 528.589C267.446 528.556 267.235 528.54 267.013 528.54C266.482 528.54 266.009 528.651 265.592 528.874C265.18 529.091 264.854 529.394 264.612 529.783C264.375 530.166 264.257 530.604 264.257 531.097V538H262.581ZM270.022 538V527.091H271.699V538H270.022ZM270.875 525.273C270.548 525.273 270.266 525.161 270.029 524.939C269.797 524.716 269.681 524.449 269.681 524.136C269.681 523.824 269.797 523.556 270.029 523.334C270.266 523.111 270.548 523 270.875 523C271.201 523 271.481 523.111 271.713 523.334C271.949 523.556 272.068 523.824 272.068 524.136C272.068 524.449 271.949 524.716 271.713 524.939C271.481 525.161 271.201 525.273 270.875 525.273ZM274.768 542.091V527.091H276.388V528.824H276.587C276.71 528.634 276.88 528.393 277.098 528.099C277.321 527.801 277.638 527.536 278.05 527.304C278.466 527.067 279.03 526.949 279.74 526.949C280.659 526.949 281.468 527.179 282.169 527.638C282.87 528.097 283.417 528.748 283.81 529.591C284.203 530.434 284.399 531.428 284.399 532.574C284.399 533.729 284.203 534.731 283.81 535.578C283.417 536.421 282.872 537.074 282.176 537.538C281.48 537.998 280.678 538.227 279.768 538.227C279.068 538.227 278.507 538.111 278.085 537.879C277.664 537.643 277.339 537.375 277.112 537.077C276.885 536.774 276.71 536.523 276.587 536.324H276.445V542.091H274.768ZM276.416 532.545C276.416 533.369 276.537 534.096 276.778 534.726C277.02 535.351 277.373 535.841 277.837 536.196C278.301 536.546 278.869 536.722 279.541 536.722C280.242 536.722 280.827 536.537 281.295 536.168C281.769 535.794 282.124 535.292 282.361 534.662C282.602 534.027 282.723 533.322 282.723 532.545C282.723 531.778 282.605 531.087 282.368 530.472C282.136 529.851 281.783 529.361 281.31 529.001C280.841 528.637 280.251 528.455 279.541 528.455C278.859 528.455 278.286 528.627 277.822 528.973C277.358 529.314 277.008 529.792 276.771 530.408C276.535 531.018 276.416 531.731 276.416 532.545ZM291.7 527.091V528.511H286.047V527.091H291.7ZM287.695 524.477H289.371V534.875C289.371 535.348 289.439 535.704 289.577 535.94C289.719 536.172 289.899 536.329 290.116 536.409C290.339 536.485 290.573 536.523 290.82 536.523C291.004 536.523 291.156 536.513 291.274 536.494C291.393 536.471 291.487 536.452 291.558 536.438L291.899 537.943C291.786 537.986 291.627 538.028 291.423 538.071C291.22 538.118 290.962 538.142 290.649 538.142C290.176 538.142 289.712 538.04 289.257 537.837C288.807 537.633 288.433 537.323 288.135 536.906C287.841 536.49 287.695 535.964 287.695 535.33V524.477Z" fill="black"/>
<path d="M340.034 267.727C340.034 269.261 339.757 270.587 339.203 271.705C338.649 272.822 337.889 273.684 336.923 274.29C335.957 274.896 334.854 275.199 333.614 275.199C332.373 275.199 331.27 274.896 330.304 274.29C329.338 273.684 328.578 272.822 328.024 271.705C327.47 270.587 327.193 269.261 327.193 267.727C327.193 266.193 327.47 264.867 328.024 263.75C328.578 262.633 329.338 261.771 330.304 261.165C331.27 260.559 332.373 260.256 333.614 260.256C334.854 260.256 335.957 260.559 336.923 261.165C337.889 261.771 338.649 262.633 339.203 263.75C339.757 264.867 340.034 266.193 340.034 267.727ZM338.33 267.727C338.33 266.468 338.119 265.405 337.697 264.538C337.281 263.672 336.715 263.016 336 262.571C335.29 262.126 334.494 261.903 333.614 261.903C332.733 261.903 331.935 262.126 331.22 262.571C330.51 263.016 329.944 263.672 329.523 264.538C329.106 265.405 328.898 266.468 328.898 267.727C328.898 268.987 329.106 270.05 329.523 270.916C329.944 271.783 330.51 272.438 331.22 272.884C331.935 273.329 332.733 273.551 333.614 273.551C334.494 273.551 335.29 273.329 336 272.884C336.715 272.438 337.281 271.783 337.697 270.916C338.119 270.05 338.33 268.987 338.33 267.727ZM342.768 279.091V264.091H344.388V265.824H344.587C344.71 265.634 344.88 265.393 345.098 265.099C345.321 264.801 345.638 264.536 346.05 264.304C346.466 264.067 347.03 263.949 347.74 263.949C348.659 263.949 349.468 264.179 350.169 264.638C350.87 265.097 351.417 265.748 351.81 266.591C352.203 267.434 352.399 268.428 352.399 269.574C352.399 270.729 352.203 271.731 351.81 272.578C351.417 273.421 350.872 274.074 350.176 274.538C349.48 274.998 348.678 275.227 347.768 275.227C347.068 275.227 346.507 275.111 346.085 274.879C345.664 274.643 345.339 274.375 345.112 274.077C344.885 273.774 344.71 273.523 344.587 273.324H344.445V279.091H342.768ZM344.416 269.545C344.416 270.369 344.537 271.096 344.778 271.726C345.02 272.351 345.373 272.841 345.837 273.196C346.301 273.546 346.869 273.722 347.541 273.722C348.242 273.722 348.827 273.537 349.295 273.168C349.769 272.794 350.124 272.292 350.361 271.662C350.602 271.027 350.723 270.322 350.723 269.545C350.723 268.778 350.605 268.087 350.368 267.472C350.136 266.851 349.783 266.361 349.31 266.001C348.841 265.637 348.251 265.455 347.541 265.455C346.859 265.455 346.286 265.627 345.822 265.973C345.358 266.314 345.008 266.792 344.771 267.408C344.535 268.018 344.416 268.731 344.416 269.545ZM359.53 275.227C358.479 275.227 357.572 274.995 356.81 274.531C356.052 274.062 355.467 273.409 355.055 272.571C354.648 271.728 354.445 270.748 354.445 269.631C354.445 268.513 354.648 267.528 355.055 266.676C355.467 265.819 356.04 265.152 356.774 264.673C357.513 264.19 358.375 263.949 359.359 263.949C359.928 263.949 360.489 264.044 361.043 264.233C361.597 264.422 362.101 264.73 362.555 265.156C363.01 265.578 363.372 266.136 363.642 266.832C363.912 267.528 364.047 268.385 364.047 269.403V270.114H355.638V268.665H362.342C362.342 268.049 362.219 267.5 361.973 267.017C361.732 266.534 361.386 266.153 360.936 265.874C360.491 265.594 359.965 265.455 359.359 265.455C358.692 265.455 358.114 265.62 357.626 265.952C357.143 266.278 356.772 266.705 356.511 267.23C356.251 267.756 356.121 268.319 356.121 268.92V269.886C356.121 270.71 356.263 271.409 356.547 271.982C356.836 272.55 357.236 272.983 357.747 273.281C358.259 273.575 358.853 273.722 359.53 273.722C359.97 273.722 360.368 273.66 360.723 273.537C361.083 273.409 361.393 273.22 361.653 272.969C361.914 272.713 362.115 272.396 362.257 272.017L363.876 272.472C363.706 273.021 363.42 273.504 363.017 273.92C362.615 274.332 362.117 274.654 361.526 274.886C360.934 275.114 360.268 275.227 359.53 275.227ZM368.273 268.438V275H366.597V264.091H368.216V265.795H368.358C368.614 265.241 369.002 264.796 369.523 264.46C370.044 264.119 370.716 263.949 371.54 263.949C372.278 263.949 372.925 264.1 373.479 264.403C374.033 264.702 374.464 265.156 374.771 265.767C375.079 266.373 375.233 267.14 375.233 268.068V275H373.557V268.182C373.557 267.325 373.334 266.657 372.889 266.179C372.444 265.696 371.833 265.455 371.057 265.455C370.522 265.455 370.044 265.571 369.622 265.803C369.205 266.035 368.876 266.373 368.635 266.818C368.393 267.263 368.273 267.803 368.273 268.438ZM379.12 275H377.273L382.614 260.455H384.432L389.773 275H387.926L383.58 262.756H383.466L379.12 275ZM379.801 269.318H387.245V270.881H379.801V269.318ZM393.8 260.455V275H392.039V260.455H393.8Z" fill="black"/>
<path d="M480.716 264.091C480.631 263.371 480.285 262.812 479.679 262.415C479.073 262.017 478.33 261.818 477.449 261.818C476.805 261.818 476.241 261.922 475.759 262.131C475.28 262.339 474.906 262.625 474.636 262.99C474.371 263.355 474.239 263.769 474.239 264.233C474.239 264.621 474.331 264.955 474.516 265.234C474.705 265.509 474.946 265.739 475.24 265.923C475.534 266.103 475.841 266.252 476.163 266.371C476.485 266.484 476.781 266.577 477.051 266.648L478.528 267.045C478.907 267.145 479.329 267.282 479.793 267.457C480.261 267.633 480.709 267.872 481.135 268.175C481.566 268.473 481.921 268.857 482.2 269.325C482.48 269.794 482.619 270.369 482.619 271.051C482.619 271.837 482.413 272.547 482.001 273.182C481.594 273.816 480.998 274.321 480.212 274.695C479.43 275.069 478.481 275.256 477.364 275.256C476.322 275.256 475.42 275.088 474.658 274.751C473.9 274.415 473.304 273.946 472.868 273.345C472.437 272.744 472.193 272.045 472.136 271.25H473.955C474.002 271.799 474.187 272.254 474.509 272.614C474.835 272.969 475.247 273.234 475.744 273.409C476.246 273.58 476.786 273.665 477.364 273.665C478.036 273.665 478.64 273.556 479.175 273.338C479.71 273.116 480.134 272.808 480.446 272.415C480.759 272.017 480.915 271.553 480.915 271.023C480.915 270.54 480.78 270.147 480.51 269.844C480.24 269.541 479.885 269.295 479.445 269.105C479.004 268.916 478.528 268.75 478.017 268.608L476.227 268.097C475.091 267.77 474.191 267.304 473.528 266.697C472.866 266.091 472.534 265.298 472.534 264.318C472.534 263.504 472.754 262.794 473.195 262.188C473.64 261.577 474.236 261.103 474.984 260.767C475.737 260.426 476.578 260.256 477.506 260.256C478.443 260.256 479.277 260.424 480.006 260.76C480.735 261.091 481.313 261.546 481.739 262.124C482.17 262.701 482.397 263.357 482.42 264.091H480.716ZM490.032 264.091V265.511H484.379V264.091H490.032ZM486.027 261.477H487.703V271.875C487.703 272.348 487.771 272.704 487.909 272.94C488.051 273.172 488.231 273.329 488.449 273.409C488.671 273.485 488.905 273.523 489.152 273.523C489.336 273.523 489.488 273.513 489.606 273.494C489.725 273.471 489.819 273.452 489.89 273.438L490.231 274.943C490.118 274.986 489.959 275.028 489.755 275.071C489.552 275.118 489.294 275.142 488.981 275.142C488.508 275.142 488.044 275.04 487.589 274.837C487.139 274.633 486.765 274.323 486.467 273.906C486.173 273.49 486.027 272.964 486.027 272.33V261.477ZM492.554 275V264.091H494.173V265.739H494.287C494.485 265.199 494.845 264.761 495.366 264.425C495.887 264.089 496.474 263.92 497.127 263.92C497.251 263.92 497.404 263.923 497.589 263.928C497.774 263.932 497.913 263.939 498.008 263.949V265.653C497.951 265.639 497.821 265.618 497.618 265.589C497.419 265.556 497.208 265.54 496.985 265.54C496.455 265.54 495.982 265.651 495.565 265.874C495.153 266.091 494.826 266.394 494.585 266.783C494.348 267.166 494.23 267.604 494.23 268.097V275H492.554ZM499.995 275V264.091H501.671V275H499.995ZM500.847 262.273C500.521 262.273 500.239 262.161 500.002 261.939C499.77 261.716 499.654 261.449 499.654 261.136C499.654 260.824 499.77 260.556 500.002 260.334C500.239 260.111 500.521 260 500.847 260C501.174 260 501.453 260.111 501.685 260.334C501.922 260.556 502.04 260.824 502.04 261.136C502.04 261.449 501.922 261.716 501.685 261.939C501.453 262.161 501.174 262.273 500.847 262.273ZM504.741 279.091V264.091H506.36V265.824H506.559C506.682 265.634 506.853 265.393 507.071 265.099C507.293 264.801 507.61 264.536 508.022 264.304C508.439 264.067 509.002 263.949 509.713 263.949C510.631 263.949 511.441 264.179 512.142 264.638C512.842 265.097 513.389 265.748 513.782 266.591C514.175 267.434 514.372 268.428 514.372 269.574C514.372 270.729 514.175 271.731 513.782 272.578C513.389 273.421 512.845 274.074 512.149 274.538C511.453 274.998 510.65 275.227 509.741 275.227C509.04 275.227 508.479 275.111 508.058 274.879C507.636 274.643 507.312 274.375 507.085 274.077C506.858 273.774 506.682 273.523 506.559 273.324H506.417V279.091H504.741ZM506.389 269.545C506.389 270.369 506.51 271.096 506.751 271.726C506.993 272.351 507.345 272.841 507.809 273.196C508.273 273.546 508.842 273.722 509.514 273.722C510.215 273.722 510.799 273.537 511.268 273.168C511.742 272.794 512.097 272.292 512.333 271.662C512.575 271.027 512.696 270.322 512.696 269.545C512.696 268.778 512.577 268.087 512.341 267.472C512.109 266.851 511.756 266.361 511.282 266.001C510.814 265.637 510.224 265.455 509.514 265.455C508.832 265.455 508.259 265.627 507.795 265.973C507.331 266.314 506.981 266.792 506.744 267.408C506.507 268.018 506.389 268.731 506.389 269.545ZM521.502 275.227C520.451 275.227 519.545 274.995 518.782 274.531C518.025 274.062 517.44 273.409 517.028 272.571C516.621 271.728 516.417 270.748 516.417 269.631C516.417 268.513 516.621 267.528 517.028 266.676C517.44 265.819 518.013 265.152 518.747 264.673C519.485 264.19 520.347 263.949 521.332 263.949C521.9 263.949 522.461 264.044 523.015 264.233C523.569 264.422 524.074 264.73 524.528 265.156C524.983 265.578 525.345 266.136 525.615 266.832C525.885 267.528 526.02 268.385 526.02 269.403V270.114H517.61V268.665H524.315C524.315 268.049 524.192 267.5 523.946 267.017C523.704 266.534 523.359 266.153 522.909 265.874C522.464 265.594 521.938 265.455 521.332 265.455C520.664 265.455 520.087 265.62 519.599 265.952C519.116 266.278 518.744 266.705 518.484 267.23C518.224 267.756 518.093 268.319 518.093 268.92V269.886C518.093 270.71 518.235 271.409 518.52 271.982C518.808 272.55 519.208 272.983 519.72 273.281C520.231 273.575 520.825 273.722 521.502 273.722C521.943 273.722 522.341 273.66 522.696 273.537C523.056 273.409 523.366 273.22 523.626 272.969C523.886 272.713 524.088 272.396 524.23 272.017L525.849 272.472C525.679 273.021 525.392 273.504 524.99 273.92C524.587 274.332 524.09 274.654 523.498 274.886C522.906 275.114 522.241 275.227 521.502 275.227Z" fill="black"/>
<path d="M26 26C30.4183 26 34 22.4183 34 18C34 13.5817 30.4183 10 26 10C21.5817 10 18 13.5817 18 18C18 22.4183 21.5817 26 26 26Z" fill="#404040"/>
<path d="M50 26C54.4183 26 58 22.4183 58 18C58 13.5817 54.4183 10 50 10C45.5817 10 42 13.5817 42 18C42 22.4183 45.5817 26 50 26Z" fill="#404040"/>
<path d="M74 26C78.4183 26 82 22.4183 82 18C82 13.5817 78.4183 10 74 10C69.5817 10 66 13.5817 66 18C66 22.4183 69.5817 26 74 26Z" fill="#404040"/>
<rect x="2.78784" y="34" width="590.424" height="2" fill="#404040"/>
<g clip-path="url(#clip0_130_2)">
<path fill-rule="evenodd" clip-rule="evenodd" d="M90 138C112.092 138 130 156.36 130 179.012C130 197.128 118.552 212.496 102.668 217.924C100.64 218.328 99.92 217.047 99.92 215.955C99.92 214.603 99.968 210.187 99.968 204.699C99.968 200.875 98.688 198.379 97.252 197.107C106.16 196.091 115.52 192.623 115.52 176.871C115.52 172.391 113.968 168.735 111.4 165.863C111.816 164.827 113.188 160.656 111.008 155.008C111.008 155.008 107.656 153.909 100.02 159.213C96.824 158.305 93.4 157.848 90 157.832C86.6 157.848 83.18 158.305 79.988 159.213C72.344 153.909 68.984 155.008 68.984 155.008C66.812 160.656 68.184 164.827 68.596 165.863C66.04 168.735 64.476 172.391 64.476 176.871C64.476 192.583 73.816 196.105 82.7 197.141C81.556 198.165 80.52 199.971 80.16 202.623C77.88 203.671 72.088 205.485 68.52 199.217C68.52 199.217 66.404 195.276 62.388 194.988C62.388 194.988 58.488 194.936 62.116 197.48C62.116 197.48 64.736 198.74 66.556 203.48C66.556 203.48 68.904 210.8 80.032 208.32C80.052 211.748 80.088 214.979 80.088 215.955C80.088 217.039 79.352 218.308 77.356 217.928C61.46 212.508 50 197.132 50 179.012C50 156.36 67.912 138 90 138Z" fill="black"/>
</g>
<g clip-path="url(#clip1_130_2)">
<path d="M236.504 145.792C236.504 143.595 234.044 143.595 232.95 143.869C234.481 142.661 236.276 142.954 236.914 143.32L251.697 150.569C253.106 151.259 253.999 152.697 253.999 154.271V201.958C253.999 203.554 253.082 205.006 251.645 205.686L237.734 212.264C236.777 212.675 234.7 213.692 232.95 212.263C235.137 212.675 236.322 211.119 236.504 210.066V145.792Z" fill="url(#paint0_linear_130_2)"/>
<path d="M233.128 143.83C234.289 143.6 236.505 143.707 236.505 145.792V162.206L191.684 196.113C190.901 196.706 189.798 196.607 189.131 195.885L184.511 190.887C183.788 190.104 183.838 188.878 184.624 188.158L232.951 143.869L233.128 143.83Z" fill="url(#paint1_linear_130_2)"/>
<path d="M236.505 193.927L191.684 160.02C190.901 159.427 189.798 159.526 189.131 160.248L184.511 165.246C183.788 166.029 183.838 167.255 184.624 167.975L232.951 212.264C235.138 212.676 236.322 211.119 236.505 210.066V193.927Z" fill="url(#paint2_linear_130_2)"/>
</g>
<g clip-path="url(#clip2_130_2)">
<path d="M395.273 170.737C396.167 168.043 396.477 165.19 396.18 162.367C395.884 159.544 394.989 156.817 393.554 154.368C391.427 150.666 388.18 147.735 384.28 145.998C380.38 144.26 376.029 143.806 371.855 144.701C369.483 142.063 366.459 140.095 363.086 138.996C359.713 137.896 356.111 137.704 352.64 138.437C349.169 139.17 345.952 140.804 343.313 143.174C340.673 145.544 338.704 148.567 337.602 151.939C334.821 152.51 332.194 153.667 329.896 155.334C327.598 157.001 325.682 159.139 324.277 161.606C322.127 165.302 321.208 169.585 321.653 173.838C322.098 178.09 323.884 182.091 326.752 185.261C325.855 187.954 325.542 190.807 325.836 193.63C326.13 196.453 327.023 199.18 328.456 201.63C330.585 205.334 333.835 208.265 337.738 210.003C341.641 211.74 345.994 212.193 350.171 211.297C352.055 213.419 354.37 215.115 356.962 216.271C359.554 217.426 362.362 218.016 365.2 218C369.478 218.004 373.648 216.648 377.106 214.128C380.564 211.608 383.132 208.055 384.439 203.981C387.22 203.409 389.847 202.252 392.145 200.585C394.443 198.918 396.358 196.78 397.765 194.314C399.889 190.623 400.792 186.356 400.345 182.121C399.897 177.887 398.122 173.902 395.273 170.737ZM365.2 212.764C361.695 212.77 358.301 211.541 355.612 209.295L356.085 209.027L372.012 199.833C372.409 199.6 372.738 199.269 372.967 198.87C373.197 198.472 373.319 198.021 373.321 197.562V175.105L380.055 179.001C380.088 179.018 380.117 179.042 380.139 179.072C380.161 179.102 380.175 179.137 380.181 179.174V197.783C380.173 201.753 378.592 205.559 375.784 208.367C372.976 211.175 369.17 212.756 365.2 212.764ZM332.997 199.013C331.24 195.978 330.609 192.421 331.215 188.967L331.689 189.251L347.632 198.445C348.026 198.677 348.476 198.799 348.933 198.799C349.39 198.799 349.839 198.677 350.234 198.445L369.71 187.217V194.991C369.708 195.032 369.697 195.071 369.678 195.107C369.659 195.142 369.632 195.173 369.599 195.196L353.467 204.501C350.024 206.484 345.934 207.02 342.097 205.991C338.259 204.962 334.986 202.452 332.997 199.013ZM328.803 164.319C330.572 161.265 333.365 158.935 336.688 157.743V176.667C336.682 177.124 336.798 177.574 337.026 177.971C337.253 178.368 337.583 178.696 337.981 178.922L357.362 190.103L350.628 193.998C350.592 194.017 350.551 194.027 350.51 194.027C350.469 194.027 350.428 194.017 350.392 193.998L334.291 184.709C330.854 182.717 328.347 179.445 327.319 175.608C326.29 171.772 326.824 167.684 328.803 164.24V164.319ZM384.124 177.171L364.679 165.88L371.397 162C371.434 161.981 371.474 161.971 371.516 161.971C371.557 161.971 371.598 161.981 371.634 162L387.735 171.304C390.197 172.725 392.204 174.816 393.522 177.335C394.839 179.853 395.413 182.694 395.177 185.527C394.941 188.359 393.903 191.066 392.186 193.331C390.469 195.596 388.143 197.326 385.48 198.318V179.394C385.466 178.938 385.334 178.493 385.096 178.103C384.858 177.713 384.523 177.393 384.124 177.171ZM390.826 167.094L390.353 166.81L374.441 157.538C374.044 157.305 373.592 157.182 373.132 157.182C372.672 157.182 372.22 157.305 371.823 157.538L352.363 168.766V160.991C352.359 160.952 352.366 160.912 352.382 160.876C352.399 160.84 352.425 160.809 352.458 160.786L368.559 151.498C371.027 150.076 373.848 149.386 376.693 149.51C379.539 149.633 382.29 150.563 384.626 152.193C386.962 153.822 388.785 156.083 389.883 158.71C390.981 161.338 391.308 164.224 390.826 167.031L390.826 167.094ZM348.688 180.877L341.955 176.997C341.921 176.977 341.892 176.95 341.871 176.917C341.849 176.884 341.834 176.847 341.828 176.808V158.247C341.832 155.4 342.646 152.612 344.176 150.211C345.705 147.809 347.887 145.892 350.466 144.685C353.045 143.477 355.914 143.029 358.738 143.392C361.562 143.755 364.225 144.915 366.414 146.735L365.941 147.003L350.013 156.197C349.617 156.429 349.288 156.761 349.058 157.159C348.829 157.557 348.707 158.008 348.704 158.468L348.688 180.877ZM352.347 172.992L361.02 167.993L369.71 172.992V182.99L361.052 187.989L352.363 182.99L352.347 172.992Z" fill="black"/>
</g>
<g clip-path="url(#clip3_130_2)">
<path d="M500 228C524.853 228 545 207.853 545 183C545 158.147 524.853 138 500 138C475.147 138 455 158.147 455 183C455 207.853 475.147 228 500 228Z" fill="#635BFF"/>
<path d="M523.701 183.33C523.701 179.959 522.068 177.299 518.948 177.299C515.828 177.299 513.918 179.958 513.918 183.303C513.918 187.266 516.157 189.268 519.368 189.268C520.935 189.268 522.119 188.917 523.015 188.412V185.776C522.119 186.223 521.093 186.5 519.789 186.5C518.512 186.5 517.379 186.052 517.235 184.499H523.674C523.675 184.33 523.701 183.645 523.701 183.33ZM517.198 182.079C517.198 180.591 518.106 179.97 518.936 179.97C519.739 179.97 520.595 180.585 520.595 182.079H517.198ZM508.836 177.299C507.875 177.295 506.95 177.663 506.255 178.326L506.084 177.509H503.183V192.862L506.475 192.164L506.488 188.438C506.962 188.781 507.66 189.268 508.819 189.268C511.176 189.268 513.322 187.372 513.322 183.198C513.312 179.379 511.139 177.299 508.836 177.299ZM508.045 186.371C507.268 186.371 506.807 186.094 506.491 185.755L506.478 180.87C506.82 180.489 507.294 180.225 508.045 180.225C509.243 180.225 510.072 181.568 510.072 183.294C510.073 185.054 509.257 186.371 508.045 186.371H508.045ZM498.657 176.522L501.962 175.811V173.138L498.657 173.836V176.522ZM498.657 177.523H501.962V189.044H498.657V177.523ZM495.115 178.497L494.902 177.523H492.06V189.043H495.351V181.235C496.128 180.221 497.445 180.405 497.853 180.551V177.523C497.433 177.364 495.892 177.074 495.115 178.497ZM488.531 174.665L485.322 175.354L485.309 185.9C485.309 187.849 486.771 189.284 488.719 189.284C489.799 189.284 490.589 189.086 491.024 188.85V186.174C490.603 186.345 488.522 186.951 488.522 185.002V180.327H491.024V177.523H488.518L488.531 174.665ZM479.63 180.867C479.63 180.354 480.051 180.156 480.749 180.156C481.888 180.18 483.006 180.468 484.014 180.999V177.902C482.976 177.493 481.868 177.288 480.752 177.299C478.079 177.299 476.301 178.694 476.301 181.025C476.301 184.659 481.305 184.08 481.305 185.646C481.305 186.252 480.777 186.45 480.041 186.45C478.948 186.45 477.552 186.002 476.446 185.395V188.529C477.581 189.02 478.804 189.276 480.041 189.28C482.78 189.28 484.662 187.924 484.662 185.566C484.647 181.644 479.63 182.342 479.63 180.867Z" fill="white"/>
</g>
<path d="M125.72 424H62.28C60.4685 424 59 425.469 59 427.28V490.72C59 492.531 60.4685 494 62.28 494H125.72C127.531 494 129 492.531 129 490.72V427.28C129 425.469 127.531 424 125.72 424Z" fill="#3178C6"/>
<path fill-rule="evenodd" clip-rule="evenodd" d="M99.6125 478.398V486.068C101.006 486.755 102.491 487.239 104.022 487.505C105.792 487.832 107.588 487.992 109.387 487.985C111.141 487.993 112.891 487.817 114.607 487.458C116.149 487.146 117.619 486.553 118.945 485.708C120.176 484.913 121.19 483.825 121.897 482.542C123.164 479.886 123.331 476.837 122.362 474.058C121.954 473.018 121.345 472.069 120.57 471.265C119.738 470.41 118.794 469.672 117.762 469.073C116.575 468.377 115.341 467.764 114.07 467.238C113.07 466.823 112.17 466.419 111.37 466.028C110.659 465.687 109.979 465.287 109.337 464.83C108.835 464.478 108.398 464.039 108.047 463.535C107.745 463.077 107.587 462.539 107.595 461.99C107.588 461.485 107.729 460.989 108 460.563C108.294 460.116 108.687 459.743 109.147 459.472C109.711 459.141 110.323 458.902 110.962 458.765C111.747 458.591 112.549 458.507 113.352 458.515C114.028 458.517 114.703 458.566 115.372 458.66C116.095 458.758 116.81 458.906 117.512 459.103C118.227 459.3 118.925 459.551 119.602 459.853C120.26 460.145 120.888 460.499 121.48 460.908V453.75C120.248 453.284 118.97 452.949 117.667 452.75C116.095 452.521 114.507 452.413 112.917 452.428C111.18 452.418 109.448 452.615 107.757 453.015C106.229 453.364 104.776 453.985 103.467 454.848C102.252 455.657 101.248 456.747 100.54 458.025C99.7899 459.444 99.4188 461.033 99.4625 462.638C99.4071 464.759 100.106 466.832 101.435 468.488C103.065 470.323 105.121 471.73 107.422 472.585C108.472 473.018 109.452 473.443 110.36 473.858C111.18 474.222 111.967 474.654 112.715 475.15C113.318 475.542 113.848 476.037 114.28 476.613C114.66 477.134 114.862 477.765 114.855 478.41C114.858 478.894 114.734 479.37 114.495 479.79C114.229 480.242 113.855 480.62 113.407 480.893C112.847 481.234 112.234 481.481 111.592 481.623C110.757 481.809 109.903 481.897 109.047 481.885C107.368 481.882 105.702 481.586 104.125 481.01C102.477 480.415 100.949 479.531 99.6125 478.398ZM86.7275 459.303H96.7275V452.985H68.845V459.303H78.8V487.438H86.7275V459.303Z" fill="white"/>
<g clip-path="url(#clip4_130_2)">
<path d="M197 419H277V499H197V419Z" fill="#F7DF1E"/>
<path d="M218.035 485.854L224.157 482.149C225.338 484.243 226.412 486.015 228.99 486.015C231.46 486.015 233.018 485.048 233.018 481.29V455.728H240.536V481.396C240.536 489.183 235.971 492.727 229.312 492.727C223.298 492.727 219.807 489.612 218.035 485.853M244.619 485.048L250.74 481.504C252.352 484.136 254.446 486.069 258.151 486.069C261.267 486.069 263.253 484.511 263.253 482.363C263.253 479.786 261.212 478.873 257.775 477.369L255.896 476.563C250.472 474.255 246.874 471.355 246.874 465.233C246.874 459.594 251.17 455.298 257.883 455.298C262.662 455.298 266.099 456.963 268.569 461.313L262.716 465.072C261.427 462.763 260.031 461.85 257.883 461.85C255.681 461.85 254.285 463.246 254.285 465.072C254.285 467.327 255.681 468.241 258.903 469.637L260.782 470.442C267.173 473.181 270.771 475.973 270.771 482.256C270.771 489.023 265.454 492.728 258.312 492.728C251.331 492.728 246.82 489.398 244.619 485.048" fill="black"/>
</g>
<defs>
<linearGradient id="paint0_linear_130_2" x1="243.475" y1="143" x2="243.475" y2="213" gradientUnits="userSpaceOnUse">
<stop stop-color="#32B5F1"/>
<stop offset="1" stop-color="#2B9FED"/>
</linearGradient>
<linearGradient id="paint1_linear_130_2" x1="236.505" y1="151.835" x2="186.554" y2="193.763" gradientUnits="userSpaceOnUse">
<stop stop-color="#0F6FB3"/>
<stop offset="0.270551" stop-color="#1279B7"/>
<stop offset="0.421376" stop-color="#1176B5"/>
<stop offset="0.618197" stop-color="#0E69AC"/>
<stop offset="0.855344" stop-color="#0F70AF"/>
<stop offset="1" stop-color="#0F6DAD"/>
</linearGradient>
<linearGradient id="paint2_linear_130_2" x1="186.888" y1="162.96" x2="236.698" y2="204.202" gradientUnits="userSpaceOnUse">
<stop stop-color="#1791D2"/>
<stop offset="1" stop-color="#1173C5"/>
</linearGradient>
<clipPath id="clip0_130_2">
<rect width="80" height="80" fill="white" transform="translate(50 138)"/>
</clipPath>
<clipPath id="clip1_130_2">
<rect width="80" height="80" fill="white" transform="translate(184 138)"/>
</clipPath>
<clipPath id="clip2_130_2">
<rect width="80" height="80" fill="white" transform="translate(321 138)"/>
</clipPath>
<clipPath id="clip3_130_2">
<rect width="90" height="90" fill="white" transform="translate(455 138)"/>
</clipPath>
<clipPath id="clip4_130_2">
<rect width="80" height="80" fill="white" transform="translate(197 419)"/>
</clipPath>
</defs>
</svg>
