<svg width="596" height="615" viewBox="0 0 596 615" fill="none" xmlns="http://www.w3.org/2000/svg">
<rect x="1" y="1" width="594" height="613" rx="19" fill="#E0E0E0"/>
<rect x="1" y="1" width="594" height="613" rx="19" stroke="#404040" stroke-width="2"/>
<path d="M53.7045 264C53.5483 263.522 53.3423 263.093 53.0866 262.714C52.8357 262.331 52.535 262.004 52.1847 261.734C51.839 261.464 51.446 261.259 51.0057 261.116C50.5653 260.974 50.0824 260.903 49.5568 260.903C48.6951 260.903 47.9115 261.126 47.206 261.571C46.5005 262.016 45.9394 262.672 45.5227 263.538C45.1061 264.405 44.8977 265.468 44.8977 266.727C44.8977 267.987 45.1084 269.05 45.5298 269.916C45.9512 270.783 46.5218 271.438 47.2415 271.884C47.9612 272.329 48.7708 272.551 49.6705 272.551C50.5038 272.551 51.2377 272.374 51.8722 272.018C52.5114 271.659 53.0085 271.152 53.3636 270.499C53.7235 269.84 53.9034 269.066 53.9034 268.176L54.4432 268.29H50.0682V266.727H55.608V268.29C55.608 269.488 55.3523 270.529 54.8409 271.415C54.3343 272.3 53.6335 272.987 52.7386 273.474C51.8485 273.957 50.8258 274.199 49.6705 274.199C48.3826 274.199 47.2509 273.896 46.2756 273.29C45.3049 272.684 44.5473 271.822 44.0028 270.705C43.4631 269.587 43.1932 268.261 43.1932 266.727C43.1932 265.577 43.3471 264.542 43.6548 263.624C43.9673 262.7 44.4077 261.914 44.9759 261.266C45.544 260.617 46.2164 260.12 46.9929 259.774C47.7694 259.429 48.6241 259.256 49.5568 259.256C50.3239 259.256 51.0388 259.372 51.7017 259.604C52.3693 259.831 52.9635 260.155 53.4844 260.577C54.0099 260.993 54.4479 261.493 54.7983 262.075C55.1487 262.653 55.3902 263.295 55.5227 264H53.7045ZM59.081 274V263.091H60.7571V274H59.081ZM59.9332 261.273C59.6065 261.273 59.3248 261.161 59.0881 260.939C58.8561 260.716 58.7401 260.449 58.7401 260.136C58.7401 259.824 58.8561 259.556 59.0881 259.334C59.3248 259.111 59.6065 259 59.9332 259C60.2599 259 60.5393 259.111 60.7713 259.334C61.008 259.556 61.1264 259.824 61.1264 260.136C61.1264 260.449 61.008 260.716 60.7713 260.939C60.5393 261.161 60.2599 261.273 59.9332 261.273ZM68.5714 263.091V264.511H62.918V263.091H68.5714ZM64.5657 260.477H66.2418V270.875C66.2418 271.348 66.3105 271.704 66.4478 271.94C66.5898 272.172 66.7698 272.329 66.9876 272.409C67.2101 272.485 67.4445 272.523 67.6907 272.523C67.8754 272.523 68.0269 272.513 68.1452 272.494C68.2636 272.471 68.3583 272.452 68.4293 272.438L68.7702 273.943C68.6566 273.986 68.498 274.028 68.2944 274.071C68.0908 274.118 67.8327 274.142 67.5202 274.142C67.0468 274.142 66.5827 274.04 66.1282 273.837C65.6784 273.633 65.3043 273.323 65.006 272.906C64.7125 272.49 64.5657 271.964 64.5657 271.33V260.477ZM73.0032 267.438V274H71.3271V259.455H73.0032V264.795H73.1452C73.4009 264.232 73.7844 263.785 74.2958 263.453C74.8119 263.117 75.4985 262.949 76.3555 262.949C77.0988 262.949 77.7499 263.098 78.3086 263.396C78.8673 263.69 79.3005 264.142 79.6083 264.753C79.9208 265.359 80.0771 266.131 80.0771 267.068V274H78.4009V267.182C78.4009 266.315 78.176 265.645 77.7262 265.172C77.2811 264.694 76.6632 264.455 75.8725 264.455C75.3233 264.455 74.8308 264.571 74.3952 264.803C73.9644 265.035 73.6235 265.373 73.3725 265.818C73.1263 266.263 73.0032 266.803 73.0032 267.438ZM90.0185 269.54V263.091H91.6946V274H90.0185V272.153H89.9048C89.6491 272.707 89.2514 273.179 88.7116 273.567C88.1719 273.95 87.4901 274.142 86.6662 274.142C85.9844 274.142 85.3783 273.993 84.848 273.695C84.3177 273.392 83.901 272.937 83.598 272.331C83.295 271.72 83.1435 270.951 83.1435 270.023V263.091H84.8196V269.909C84.8196 270.705 85.0421 271.339 85.4872 271.812C85.937 272.286 86.5099 272.523 87.206 272.523C87.6226 272.523 88.0464 272.416 88.4773 272.203C88.9129 271.99 89.2775 271.663 89.571 271.223C89.8693 270.783 90.0185 270.222 90.0185 269.54ZM94.9918 274V259.455H96.668V264.824H96.81C96.9331 264.634 97.1036 264.393 97.3214 264.099C97.5439 263.801 97.8612 263.536 98.2731 263.304C98.6897 263.067 99.2532 262.949 99.9634 262.949C100.882 262.949 101.692 263.179 102.392 263.638C103.093 264.097 103.64 264.748 104.033 265.591C104.426 266.434 104.623 267.428 104.623 268.574C104.623 269.729 104.426 270.731 104.033 271.578C103.64 272.421 103.096 273.074 102.4 273.538C101.703 273.998 100.901 274.227 99.9918 274.227C99.2911 274.227 98.73 274.111 98.3086 273.879C97.8872 273.643 97.5629 273.375 97.3356 273.077C97.1083 272.774 96.9331 272.523 96.81 272.324H96.6112V274H94.9918ZM96.6396 268.545C96.6396 269.369 96.7603 270.096 97.0018 270.726C97.2433 271.351 97.596 271.841 98.06 272.196C98.524 272.546 99.0922 272.722 99.7646 272.722C100.465 272.722 101.05 272.537 101.519 272.168C101.992 271.794 102.347 271.292 102.584 270.662C102.826 270.027 102.946 269.322 102.946 268.545C102.946 267.778 102.828 267.087 102.591 266.472C102.359 265.851 102.007 265.361 101.533 265.001C101.064 264.637 100.475 264.455 99.7646 264.455C99.0827 264.455 98.5098 264.627 98.0458 264.973C97.5818 265.314 97.2314 265.792 96.9947 266.408C96.7579 267.018 96.6396 267.731 96.6396 268.545Z" fill="black"/>
<path d="M45.483 76.1818C45.483 78.2976 45.0866 80.1097 44.294 81.6183C43.5078 83.1204 42.4339 84.271 41.0724 85.07C39.7173 85.869 38.18 86.2685 36.4606 86.2685C34.7411 86.2685 33.2006 85.869 31.8391 85.07C30.484 84.2646 29.4102 83.1108 28.6175 81.6087C27.8313 80.1001 27.4382 78.2912 27.4382 76.1818C27.4382 74.0661 27.8313 72.2571 28.6175 70.755C29.4102 69.2464 30.484 68.0927 31.8391 67.2937C33.2006 66.4947 34.7411 66.0952 36.4606 66.0952C38.18 66.0952 39.7173 66.4947 41.0724 67.2937C42.4339 68.0927 43.5078 69.2464 44.294 70.755C45.0866 72.2571 45.483 74.0661 45.483 76.1818ZM41.9066 76.1818C41.9066 74.6925 41.6733 73.4364 41.2067 72.4137C40.7464 71.3846 40.1072 70.608 39.2891 70.0838C38.4709 69.5533 37.5281 69.288 36.4606 69.288C35.3931 69.288 34.4503 69.5533 33.6321 70.0838C32.8139 70.608 32.1715 71.3846 31.7049 72.4137C31.2447 73.4364 31.0146 74.6925 31.0146 76.1818C31.0146 77.6712 31.2447 78.9304 31.7049 79.9595C32.1715 80.9822 32.8139 81.7589 33.6321 82.2894C34.4503 82.8136 35.3931 83.0756 36.4606 83.0756C37.5281 83.0756 38.4709 82.8136 39.2891 82.2894C40.1072 81.7589 40.7464 80.9822 41.2067 79.9595C41.6733 78.9304 41.9066 77.6712 41.9066 76.1818ZM56.0466 71.2727V73.9574H47.5803V71.2727H56.0466ZM49.6705 67.7443H53.1414V81.5703C53.1414 82.0369 53.2117 82.3949 53.3524 82.6442C53.4994 82.8871 53.6911 83.0533 53.9276 83.1428C54.1642 83.2322 54.4262 83.277 54.7139 83.277C54.9312 83.277 55.1294 83.261 55.3083 83.229C55.4937 83.1971 55.6343 83.1683 55.7302 83.1428L56.3151 85.8562C56.1297 85.9201 55.8644 85.9904 55.5193 86.0671C55.1805 86.1438 54.765 86.1886 54.2728 86.2013C53.4035 86.2269 52.6205 86.0959 51.9237 85.8082C51.227 85.5142 50.6741 85.0604 50.265 84.4467C49.8623 83.8331 49.6642 83.0661 49.6705 82.1456V67.7443ZM62.7367 77.3707V86H59.2658V66.3636H62.66V73.7752H62.8326C63.1777 72.9442 63.7115 72.2891 64.4338 71.8097C65.1625 71.3239 66.0893 71.081 67.2143 71.081C68.237 71.081 69.1287 71.2951 69.8894 71.7234C70.65 72.1516 71.2381 72.7781 71.6536 73.6026C72.0755 74.4272 72.2864 75.4339 72.2864 76.6229V86H68.8155V77.1598C68.8155 76.169 68.5598 75.3988 68.0485 74.8491C67.5435 74.293 66.834 74.0149 65.9199 74.0149C65.3063 74.0149 64.7566 74.1491 64.2708 74.4176C63.7914 74.6797 63.4142 75.06 63.1394 75.5586C62.8709 76.0572 62.7367 76.6612 62.7367 77.3707ZM82.3443 86.2876C80.8677 86.2876 79.5925 85.9808 78.5186 85.3672C77.4512 84.7472 76.6298 83.8714 76.0545 82.7401C75.4792 81.6023 75.1916 80.2631 75.1916 78.7227C75.1916 77.2077 75.4792 75.8782 76.0545 74.734C76.6362 73.5835 77.448 72.6886 78.4899 72.0494C79.5318 71.4038 80.7559 71.081 82.1621 71.081C83.0698 71.081 83.9263 71.228 84.7317 71.522C85.5435 71.8097 86.2594 72.2571 86.8794 72.8643C87.5059 73.4716 87.998 74.245 88.356 75.1847C88.714 76.1179 88.8929 77.2301 88.8929 78.5213V79.5856H76.8216V77.2461H85.5659C85.5595 76.5813 85.4157 75.9901 85.1344 75.4723C84.8532 74.9482 84.4601 74.5359 83.9551 74.2354C83.4565 73.935 82.8748 73.7848 82.21 73.7848C81.5005 73.7848 80.8773 73.9574 80.3404 74.3026C79.8034 74.6413 79.3848 75.0888 79.0843 75.6449C78.7903 76.1946 78.6401 76.7987 78.6337 77.457V79.4993C78.6337 80.3558 78.7903 81.0909 79.1035 81.7045C79.4167 82.3118 79.8546 82.7784 80.4171 83.1044C80.9796 83.424 81.638 83.5838 82.3922 83.5838C82.8972 83.5838 83.3542 83.5135 83.7633 83.3729C84.1724 83.2259 84.5272 83.0117 84.8276 82.7305C85.128 82.4492 85.3549 82.1009 85.5083 81.6854L88.7491 82.0497C88.5446 82.9062 88.1547 83.6541 87.5794 84.2933C87.0105 84.9261 86.2818 85.4183 85.3933 85.7699C84.5048 86.1151 83.4885 86.2876 82.3443 86.2876ZM91.8293 86V71.2727H95.1947V73.7273H95.3481C95.6166 72.8771 96.0768 72.2219 96.7288 71.7617C97.3872 71.2951 98.1382 71.0618 98.982 71.0618C99.1737 71.0618 99.3879 71.0714 99.6244 71.0906C99.8673 71.1033 100.069 71.1257 100.228 71.1577V74.3505C100.081 74.2994 99.8481 74.2546 99.5285 74.2163C99.2153 74.1715 98.9117 74.1491 98.6176 74.1491C97.9848 74.1491 97.4159 74.2866 96.911 74.5614C96.4124 74.8299 96.0193 75.2038 95.7316 75.6832C95.444 76.1626 95.3002 76.7156 95.3002 77.342V86H91.8293ZM108.522 69.3455V66.3636H124.189V69.3455H118.12V86H114.591V69.3455H108.522ZM131.344 86.2876C129.906 86.2876 128.659 85.9712 127.605 85.3384C126.55 84.7056 125.732 83.8203 125.15 82.6825C124.575 81.5447 124.287 80.2152 124.287 78.6939C124.287 77.1726 124.575 75.8398 125.15 74.6957C125.732 73.5515 126.55 72.663 127.605 72.0302C128.659 71.3974 129.906 71.081 131.344 71.081C132.782 71.081 134.029 71.3974 135.083 72.0302C136.138 72.663 136.953 73.5515 137.528 74.6957C138.11 75.8398 138.401 77.1726 138.401 78.6939C138.401 80.2152 138.11 81.5447 137.528 82.6825C136.953 83.8203 136.138 84.7056 135.083 85.3384C134.029 85.9712 132.782 86.2876 131.344 86.2876ZM131.363 83.5071C132.143 83.5071 132.795 83.293 133.319 82.8647C133.843 82.43 134.233 81.8484 134.489 81.1197C134.751 80.391 134.882 79.5792 134.882 78.6843C134.882 77.783 134.751 76.968 134.489 76.2393C134.233 75.5043 133.843 74.9194 133.319 74.4847C132.795 74.0501 132.143 73.8327 131.363 73.8327C130.564 73.8327 129.9 74.0501 129.369 74.4847C128.845 74.9194 128.452 75.5043 128.19 76.2393C127.934 76.968 127.806 77.783 127.806 78.6843C127.806 79.5792 127.934 80.391 128.19 81.1197C128.452 81.8484 128.845 82.43 129.369 82.8647C129.9 83.293 130.564 83.5071 131.363 83.5071ZM147.771 86.2876C146.333 86.2876 145.086 85.9712 144.032 85.3384C142.977 84.7056 142.159 83.8203 141.577 82.6825C141.002 81.5447 140.714 80.2152 140.714 78.6939C140.714 77.1726 141.002 75.8398 141.577 74.6957C142.159 73.5515 142.977 72.663 144.032 72.0302C145.086 71.3974 146.333 71.081 147.771 71.081C149.209 71.081 150.456 71.3974 151.51 72.0302C152.565 72.663 153.38 73.5515 153.955 74.6957C154.537 75.8398 154.828 77.1726 154.828 78.6939C154.828 80.2152 154.537 81.5447 153.955 82.6825C153.38 83.8203 152.565 84.7056 151.51 85.3384C150.456 85.9712 149.209 86.2876 147.771 86.2876ZM147.79 83.5071C148.57 83.5071 149.222 83.293 149.746 82.8647C150.27 82.43 150.66 81.8484 150.916 81.1197C151.178 80.391 151.309 79.5792 151.309 78.6843C151.309 77.783 151.178 76.968 150.916 76.2393C150.66 75.5043 150.27 74.9194 149.746 74.4847C149.222 74.0501 148.57 73.8327 147.79 73.8327C146.991 73.8327 146.326 74.0501 145.796 74.4847C145.272 74.9194 144.878 75.5043 144.616 76.2393C144.361 76.968 144.233 77.783 144.233 78.6843C144.233 79.5792 144.361 80.391 144.616 81.1197C144.878 81.8484 145.272 82.43 145.796 82.8647C146.326 83.293 146.991 83.5071 147.79 83.5071ZM161.244 66.3636V86H157.774V66.3636H161.244ZM176.454 75.1655L173.29 75.5107C173.2 75.1911 173.043 74.8906 172.82 74.6094C172.602 74.3281 172.308 74.1012 171.938 73.9286C171.567 73.756 171.113 73.6697 170.576 73.6697C169.854 73.6697 169.247 73.8263 168.754 74.1396C168.269 74.4528 168.029 74.8587 168.035 75.3572C168.029 75.7855 168.185 76.1339 168.505 76.4023C168.831 76.6708 169.368 76.8913 170.116 77.0639L172.628 77.6009C174.021 77.9013 175.057 78.3775 175.734 79.0295C176.418 79.6815 176.764 80.5348 176.77 81.5895C176.764 82.5163 176.492 83.3345 175.955 84.044C175.424 84.7472 174.686 85.2969 173.74 85.6932C172.794 86.0895 171.707 86.2876 170.48 86.2876C168.678 86.2876 167.227 85.9105 166.127 85.1562C165.028 84.3956 164.373 83.3377 164.162 81.9826L167.546 81.6566C167.7 82.3214 168.026 82.8232 168.524 83.1619C169.023 83.5007 169.672 83.6701 170.471 83.6701C171.295 83.6701 171.957 83.5007 172.455 83.1619C172.96 82.8232 173.213 82.4045 173.213 81.9059C173.213 81.484 173.05 81.1357 172.724 80.8608C172.404 80.5859 171.906 80.375 171.228 80.228L168.716 79.7006C167.303 79.4066 166.258 78.9112 165.581 78.2145C164.903 77.5114 164.568 76.6229 164.574 75.549C164.568 74.6413 164.814 73.8551 165.312 73.1903C165.817 72.5192 166.517 72.0014 167.412 71.6371C168.313 71.2663 169.352 71.081 170.528 71.081C172.254 71.081 173.612 71.4485 174.603 72.1836C175.6 72.9187 176.217 73.9126 176.454 75.1655Z" fill="black"/>
<path d="M27.9368 367V347.364H31.494V364.018H40.1424V367H27.9368ZM47.3143 367.297C46.381 367.297 45.5405 367.131 44.7926 366.799C44.0511 366.46 43.4631 365.961 43.0284 365.303C42.6001 364.645 42.386 363.833 42.386 362.868C42.386 362.037 42.5394 361.349 42.8462 360.806C43.1531 360.263 43.5717 359.828 44.1023 359.502C44.6328 359.176 45.2305 358.93 45.8952 358.764C46.5664 358.591 47.2599 358.467 47.9759 358.39C48.8388 358.3 49.5387 358.221 50.0756 358.15C50.6126 358.074 51.0025 357.958 51.2454 357.805C51.4947 357.645 51.6193 357.399 51.6193 357.067V357.009C51.6193 356.287 51.4052 355.728 50.9769 355.331C50.5487 354.935 49.9318 354.737 49.1264 354.737C48.2763 354.737 47.6019 354.922 47.1033 355.293C46.6112 355.664 46.2788 356.102 46.1062 356.607L42.8654 356.146C43.1211 355.251 43.543 354.504 44.131 353.903C44.7191 353.295 45.4382 352.842 46.2884 352.541C47.1385 352.234 48.0781 352.081 49.1072 352.081C49.8168 352.081 50.5231 352.164 51.2262 352.33C51.9293 352.496 52.5717 352.771 53.1534 353.155C53.7351 353.532 54.2017 354.047 54.5533 354.699C54.9112 355.35 55.0902 356.165 55.0902 357.143V367H51.7536V364.977H51.6385C51.4276 365.386 51.1303 365.77 50.7468 366.127C50.3697 366.479 49.8935 366.763 49.3182 366.981C48.7493 367.192 48.0813 367.297 47.3143 367.297ZM48.2156 364.747C48.9123 364.747 49.5163 364.609 50.0277 364.335C50.5391 364.053 50.9322 363.683 51.207 363.222C51.4883 362.762 51.6289 362.26 51.6289 361.717V359.982C51.5202 360.071 51.3349 360.154 51.0728 360.231C50.8171 360.308 50.5295 360.375 50.2099 360.432C49.8903 360.49 49.5739 360.541 49.2607 360.586C48.9474 360.63 48.6758 360.669 48.4457 360.701C47.9279 360.771 47.4645 360.886 47.0554 361.046C46.6463 361.206 46.3235 361.429 46.087 361.717C45.8505 361.998 45.7322 362.363 45.7322 362.81C45.7322 363.449 45.9656 363.932 46.4322 364.258C46.8988 364.584 47.4933 364.747 48.2156 364.747ZM62.0511 358.371V367H58.5803V352.273H61.8977V354.775H62.0703C62.4091 353.951 62.9492 353.295 63.6907 352.81C64.4386 352.324 65.3622 352.081 66.4616 352.081C67.478 352.081 68.3633 352.298 69.1175 352.733C69.8782 353.168 70.4663 353.797 70.8817 354.622C71.3036 355.446 71.5114 356.447 71.505 357.623V367H68.0341V358.16C68.0341 357.175 67.7784 356.405 67.267 355.849C66.7621 355.293 66.0621 355.015 65.1673 355.015C64.56 355.015 64.0199 355.149 63.5469 355.418C63.0803 355.68 62.7127 356.06 62.4442 356.559C62.1822 357.057 62.0511 357.661 62.0511 358.371ZM81.4382 372.83C80.1918 372.83 79.1211 372.66 78.2262 372.321C77.3313 371.989 76.6122 371.542 76.0689 370.979C75.5256 370.417 75.1484 369.793 74.9375 369.109L78.0632 368.352C78.2038 368.64 78.4084 368.924 78.6768 369.205C78.9453 369.493 79.3065 369.729 79.7603 369.915C80.2205 370.107 80.799 370.202 81.4957 370.202C82.4801 370.202 83.2951 369.963 83.9407 369.483C84.5863 369.01 84.9091 368.23 84.9091 367.144V364.354H84.7365C84.5575 364.712 84.2955 365.079 83.9503 365.456C83.6115 365.833 83.1609 366.15 82.5984 366.406C82.0423 366.661 81.3423 366.789 80.4986 366.789C79.3672 366.789 78.3413 366.524 77.4208 365.993C76.5067 365.456 75.7781 364.657 75.2347 363.596C74.6978 362.529 74.4293 361.193 74.4293 359.588C74.4293 357.971 74.6978 356.607 75.2347 355.494C75.7781 354.376 76.5099 353.529 77.4304 352.953C78.3509 352.372 79.3768 352.081 80.5082 352.081C81.3711 352.081 82.0806 352.228 82.6367 352.522C83.1992 352.81 83.6467 353.158 83.979 353.567C84.3114 353.97 84.5639 354.35 84.7365 354.708H84.9283V352.273H88.3512V367.24C88.3512 368.499 88.0508 369.541 87.4499 370.365C86.8491 371.19 86.0277 371.807 84.9858 372.216C83.9439 372.625 82.7614 372.83 81.4382 372.83ZM81.467 364.066C82.2021 364.066 82.8285 363.887 83.3462 363.529C83.864 363.171 84.2571 362.657 84.5256 361.985C84.794 361.314 84.9283 360.509 84.9283 359.569C84.9283 358.642 84.794 357.831 84.5256 357.134C84.2635 356.437 83.8736 355.897 83.3558 355.513C82.8445 355.124 82.2148 354.929 81.467 354.929C80.6935 354.929 80.0479 355.13 79.5302 355.533C79.0124 355.935 78.6225 356.488 78.3604 357.191C78.0984 357.888 77.9673 358.681 77.9673 359.569C77.9673 360.471 78.0984 361.26 78.3604 361.938C78.6289 362.609 79.022 363.133 79.5398 363.51C80.0639 363.881 80.7063 364.066 81.467 364.066ZM101.295 360.806V352.273H104.766V367H101.401V364.382H101.247C100.915 365.207 100.368 365.881 99.6076 366.406C98.8533 366.93 97.9233 367.192 96.8175 367.192C95.8523 367.192 94.9989 366.978 94.2575 366.549C93.5224 366.115 92.9471 365.485 92.5316 364.661C92.1161 363.83 91.9084 362.826 91.9084 361.65V352.273H95.3793V361.113C95.3793 362.046 95.6349 362.788 96.1463 363.337C96.6577 363.887 97.3288 364.162 98.1598 364.162C98.6712 364.162 99.1665 364.037 99.646 363.788C100.125 363.539 100.518 363.168 100.825 362.676C101.138 362.177 101.295 361.554 101.295 360.806ZM112.573 367.297C111.64 367.297 110.799 367.131 110.051 366.799C109.31 366.46 108.722 365.961 108.287 365.303C107.859 364.645 107.645 363.833 107.645 362.868C107.645 362.037 107.798 361.349 108.105 360.806C108.412 360.263 108.831 359.828 109.361 359.502C109.892 359.176 110.489 358.93 111.154 358.764C111.825 358.591 112.519 358.467 113.235 358.39C114.098 358.3 114.797 358.221 115.334 358.15C115.871 358.074 116.261 357.958 116.504 357.805C116.753 357.645 116.878 357.399 116.878 357.067V357.009C116.878 356.287 116.664 355.728 116.236 355.331C115.807 354.935 115.191 354.737 114.385 354.737C113.535 354.737 112.861 354.922 112.362 355.293C111.87 355.664 111.538 356.102 111.365 356.607L108.124 356.146C108.38 355.251 108.802 354.504 109.39 353.903C109.978 353.295 110.697 352.842 111.547 352.541C112.397 352.234 113.337 352.081 114.366 352.081C115.076 352.081 115.782 352.164 116.485 352.33C117.188 352.496 117.831 352.771 118.412 353.155C118.994 353.532 119.46 354.047 119.812 354.699C120.17 355.35 120.349 356.165 120.349 357.143V367H117.012V364.977H116.897C116.686 365.386 116.389 365.77 116.006 366.127C115.628 366.479 115.152 366.763 114.577 366.981C114.008 367.192 113.34 367.297 112.573 367.297ZM113.474 364.747C114.171 364.747 114.775 364.609 115.286 364.335C115.798 364.053 116.191 363.683 116.466 363.222C116.747 362.762 116.888 362.26 116.888 361.717V359.982C116.779 360.071 116.594 360.154 116.332 360.231C116.076 360.308 115.788 360.375 115.469 360.432C115.149 360.49 114.833 360.541 114.519 360.586C114.206 360.63 113.935 360.669 113.704 360.701C113.187 360.771 112.723 360.886 112.314 361.046C111.905 361.206 111.582 361.429 111.346 361.717C111.109 361.998 110.991 362.363 110.991 362.81C110.991 363.449 111.224 363.932 111.691 364.258C112.158 364.584 112.752 364.747 113.474 364.747ZM130.244 372.83C128.997 372.83 127.927 372.66 127.032 372.321C126.137 371.989 125.418 371.542 124.875 370.979C124.331 370.417 123.954 369.793 123.743 369.109L126.869 368.352C127.009 368.64 127.214 368.924 127.483 369.205C127.751 369.493 128.112 369.729 128.566 369.915C129.026 370.107 129.605 370.202 130.301 370.202C131.286 370.202 132.101 369.963 132.746 369.483C133.392 369.01 133.715 368.23 133.715 367.144V364.354H133.542C133.363 364.712 133.101 365.079 132.756 365.456C132.417 365.833 131.967 366.15 131.404 366.406C130.848 366.661 130.148 366.789 129.304 366.789C128.173 366.789 127.147 366.524 126.226 365.993C125.312 365.456 124.584 364.657 124.04 363.596C123.503 362.529 123.235 361.193 123.235 359.588C123.235 357.971 123.503 356.607 124.04 355.494C124.584 354.376 125.316 353.529 126.236 352.953C127.157 352.372 128.182 352.081 129.314 352.081C130.177 352.081 130.886 352.228 131.442 352.522C132.005 352.81 132.452 353.158 132.785 353.567C133.117 353.97 133.37 354.35 133.542 354.708H133.734V352.273H137.157V367.24C137.157 368.499 136.856 369.541 136.256 370.365C135.655 371.19 134.833 371.807 133.791 372.216C132.75 372.625 131.567 372.83 130.244 372.83ZM130.273 364.066C131.008 364.066 131.634 363.887 132.152 363.529C132.67 363.171 133.063 362.657 133.331 361.985C133.6 361.314 133.734 360.509 133.734 359.569C133.734 358.642 133.6 357.831 133.331 357.134C133.069 356.437 132.679 355.897 132.161 355.513C131.65 355.124 131.021 354.929 130.273 354.929C129.499 354.929 128.854 355.13 128.336 355.533C127.818 355.935 127.428 356.488 127.166 357.191C126.904 357.888 126.773 358.681 126.773 359.569C126.773 360.471 126.904 361.26 127.166 361.938C127.435 362.609 127.828 363.133 128.345 363.51C128.87 363.881 129.512 364.066 130.273 364.066ZM147.234 367.288C145.757 367.288 144.482 366.981 143.408 366.367C142.341 365.747 141.519 364.871 140.944 363.74C140.369 362.602 140.081 361.263 140.081 359.723C140.081 358.208 140.369 356.878 140.944 355.734C141.526 354.583 142.338 353.689 143.38 353.049C144.421 352.404 145.646 352.081 147.052 352.081C147.959 352.081 148.816 352.228 149.621 352.522C150.433 352.81 151.149 353.257 151.769 353.864C152.396 354.472 152.888 355.245 153.246 356.185C153.604 357.118 153.783 358.23 153.783 359.521V360.586H141.711V358.246H150.456C150.449 357.581 150.305 356.99 150.024 356.472C149.743 355.948 149.35 355.536 148.845 355.235C148.346 354.935 147.764 354.785 147.1 354.785C146.39 354.785 145.767 354.957 145.23 355.303C144.693 355.641 144.274 356.089 143.974 356.645C143.68 357.195 143.53 357.799 143.523 358.457V360.499C143.523 361.356 143.68 362.091 143.993 362.705C144.306 363.312 144.744 363.778 145.307 364.104C145.869 364.424 146.528 364.584 147.282 364.584C147.787 364.584 148.244 364.513 148.653 364.373C149.062 364.226 149.417 364.012 149.717 363.73C150.018 363.449 150.245 363.101 150.398 362.685L153.639 363.05C153.434 363.906 153.044 364.654 152.469 365.293C151.9 365.926 151.171 366.418 150.283 366.77C149.394 367.115 148.378 367.288 147.234 367.288ZM168.359 356.165L165.195 356.511C165.105 356.191 164.949 355.891 164.725 355.609C164.508 355.328 164.214 355.101 163.843 354.929C163.472 354.756 163.018 354.67 162.481 354.67C161.759 354.67 161.152 354.826 160.66 355.14C160.174 355.453 159.934 355.859 159.941 356.357C159.934 356.786 160.091 357.134 160.41 357.402C160.736 357.671 161.273 357.891 162.021 358.064L164.533 358.601C165.927 358.901 166.962 359.377 167.64 360.029C168.324 360.681 168.669 361.535 168.675 362.589C168.669 363.516 168.397 364.335 167.86 365.044C167.33 365.747 166.591 366.297 165.645 366.693C164.699 367.089 163.613 367.288 162.385 367.288C160.583 367.288 159.132 366.911 158.032 366.156C156.933 365.396 156.278 364.338 156.067 362.983L159.452 362.657C159.605 363.321 159.931 363.823 160.43 364.162C160.928 364.501 161.577 364.67 162.376 364.67C163.2 364.67 163.862 364.501 164.361 364.162C164.866 363.823 165.118 363.404 165.118 362.906C165.118 362.484 164.955 362.136 164.629 361.861C164.309 361.586 163.811 361.375 163.133 361.228L160.621 360.701C159.209 360.407 158.164 359.911 157.486 359.214C156.808 358.511 156.473 357.623 156.479 356.549C156.473 355.641 156.719 354.855 157.218 354.19C157.722 353.519 158.422 353.001 159.317 352.637C160.219 352.266 161.257 352.081 162.433 352.081C164.159 352.081 165.518 352.449 166.508 353.184C167.506 353.919 168.122 354.913 168.359 356.165Z" fill="black"/>
<path d="M27.4112 524.017V522.455H38.3203V524.017H33.7464V537H31.9851V524.017H27.4112ZM40.641 541.091C40.3569 541.091 40.1036 541.067 39.881 541.02C39.6585 540.977 39.5046 540.935 39.4194 540.892L39.8455 539.415C40.2527 539.519 40.6126 539.557 40.9251 539.528C41.2376 539.5 41.5146 539.36 41.756 539.109C42.0022 538.863 42.2272 538.463 42.4308 537.909L42.7433 537.057L38.7092 526.091H40.5273L43.5387 534.784H43.6523L46.6637 526.091H48.4819L43.8512 538.591C43.6429 539.154 43.3848 539.621 43.0771 539.99C42.7693 540.364 42.4118 540.641 42.0046 540.821C41.6022 541.001 41.1476 541.091 40.641 541.091ZM50.6942 541.091V526.091H52.3136V527.824H52.5124C52.6355 527.634 52.806 527.393 53.0238 527.099C53.2463 526.801 53.5636 526.536 53.9755 526.304C54.3922 526.067 54.9556 525.949 55.6658 525.949C56.5844 525.949 57.3941 526.179 58.0948 526.638C58.7956 527.097 59.3424 527.748 59.7354 528.591C60.1284 529.434 60.3249 530.428 60.3249 531.574C60.3249 532.729 60.1284 533.731 59.7354 534.578C59.3424 535.421 58.7979 536.074 58.1019 536.538C57.4059 536.998 56.6033 537.227 55.6942 537.227C54.9935 537.227 54.4324 537.111 54.011 536.879C53.5896 536.643 53.2653 536.375 53.038 536.077C52.8107 535.774 52.6355 535.523 52.5124 535.324H52.3704V541.091H50.6942ZM52.342 531.545C52.342 532.369 52.4627 533.096 52.7042 533.726C52.9457 534.351 53.2984 534.841 53.7624 535.196C54.2264 535.546 54.7946 535.722 55.467 535.722C56.1677 535.722 56.7525 535.537 57.2212 535.168C57.6947 534.794 58.0498 534.292 58.2866 533.662C58.5281 533.027 58.6488 532.322 58.6488 531.545C58.6488 530.778 58.5304 530.087 58.2937 529.472C58.0617 528.851 57.7089 528.361 57.2354 528.001C56.7667 527.637 56.1772 527.455 55.467 527.455C54.7852 527.455 54.2122 527.627 53.7482 527.973C53.2842 528.314 52.9338 528.792 52.6971 529.408C52.4603 530.018 52.342 530.731 52.342 531.545ZM67.4556 537.227C66.4045 537.227 65.4978 536.995 64.7354 536.531C63.9779 536.062 63.3931 535.409 62.9812 534.571C62.574 533.728 62.3704 532.748 62.3704 531.631C62.3704 530.513 62.574 529.528 62.9812 528.676C63.3931 527.819 63.966 527.152 64.6999 526.673C65.4386 526.19 66.3003 525.949 67.2852 525.949C67.8533 525.949 68.4144 526.044 68.9684 526.233C69.5224 526.422 70.0266 526.73 70.4812 527.156C70.9357 527.578 71.2979 528.136 71.5678 528.832C71.8377 529.528 71.9727 530.385 71.9727 531.403V532.114H63.5636V530.665H70.2681C70.2681 530.049 70.145 529.5 69.8988 529.017C69.6573 528.534 69.3117 528.153 68.8619 527.874C68.4168 527.594 67.8912 527.455 67.2852 527.455C66.6175 527.455 66.0399 527.62 65.5522 527.952C65.0692 528.278 64.6976 528.705 64.4371 529.23C64.1767 529.756 64.0465 530.319 64.0465 530.92V531.886C64.0465 532.71 64.1886 533.409 64.4727 533.982C64.7615 534.55 65.1616 534.983 65.6729 535.281C66.1843 535.575 66.7785 535.722 67.4556 535.722C67.896 535.722 68.2937 535.66 68.6488 535.537C69.0086 535.409 69.3188 535.22 69.5792 534.969C69.8396 534.713 70.0408 534.396 70.1829 534.017L71.8022 534.472C71.6317 535.021 71.3453 535.504 70.9428 535.92C70.5404 536.332 70.0432 536.654 69.4513 536.886C68.8595 537.114 68.1942 537.227 67.4556 537.227ZM82.7042 526.091C82.619 525.371 82.2733 524.812 81.6673 524.415C81.0612 524.017 80.3178 523.818 79.4371 523.818C78.7932 523.818 78.2298 523.922 77.7468 524.131C77.2686 524.339 76.8945 524.625 76.6246 524.99C76.3595 525.355 76.2269 525.769 76.2269 526.233C76.2269 526.621 76.3192 526.955 76.5039 527.234C76.6933 527.509 76.9348 527.739 77.2283 527.923C77.5219 528.103 77.8297 528.252 78.1516 528.371C78.4736 528.484 78.7695 528.577 79.0394 528.648L80.5167 529.045C80.8955 529.145 81.3169 529.282 81.7809 529.457C82.2496 529.633 82.6971 529.872 83.1232 530.175C83.5541 530.473 83.9092 530.857 84.1886 531.325C84.4679 531.794 84.6076 532.369 84.6076 533.051C84.6076 533.837 84.4016 534.547 83.9897 535.182C83.5825 535.816 82.9859 536.321 82.1999 536.695C81.4187 537.069 80.4693 537.256 79.3519 537.256C78.3103 537.256 77.4083 537.088 76.646 536.751C75.8884 536.415 75.2918 535.946 74.8562 535.345C74.4253 534.744 74.1815 534.045 74.1246 533.25H75.9428C75.9902 533.799 76.1748 534.254 76.4968 534.614C76.8235 534.969 77.2354 535.234 77.7326 535.409C78.2345 535.58 78.7743 535.665 79.3519 535.665C80.0243 535.665 80.628 535.556 81.163 535.338C81.698 535.116 82.1218 534.808 82.4343 534.415C82.7468 534.017 82.9031 533.553 82.9031 533.023C82.9031 532.54 82.7681 532.147 82.4982 531.844C82.2283 531.541 81.8732 531.295 81.4329 531.105C80.9925 530.916 80.5167 530.75 80.0053 530.608L78.2156 530.097C77.0792 529.77 76.1796 529.304 75.5167 528.697C74.8538 528.091 74.5224 527.298 74.5224 526.318C74.5224 525.504 74.7425 524.794 75.1829 524.188C75.628 523.577 76.2246 523.103 76.9727 522.767C77.7255 522.426 78.5659 522.256 79.494 522.256C80.4315 522.256 81.2648 522.424 81.994 522.76C82.7231 523.091 83.3008 523.546 83.7269 524.124C84.1578 524.701 84.3851 525.357 84.4087 526.091H82.7042ZM91.7081 537.227C90.6854 537.227 89.8047 536.986 89.0661 536.503C88.3274 536.02 87.7592 535.355 87.3615 534.507C86.9638 533.66 86.7649 532.691 86.7649 531.602C86.7649 530.494 86.9685 529.517 87.3757 528.669C87.7876 527.817 88.3606 527.152 89.0945 526.673C89.8331 526.19 90.6948 525.949 91.6797 525.949C92.4467 525.949 93.138 526.091 93.7536 526.375C94.3691 526.659 94.8733 527.057 95.2663 527.568C95.6593 528.08 95.9032 528.676 95.9979 529.358H94.3217C94.1939 528.861 93.9098 528.42 93.4695 528.037C93.0339 527.649 92.4467 527.455 91.7081 527.455C91.0547 527.455 90.4818 527.625 89.9893 527.966C89.5017 528.302 89.1205 528.778 88.8459 529.393C88.576 530.004 88.4411 530.722 88.4411 531.545C88.4411 532.388 88.5736 533.122 88.8388 533.747C89.1087 534.372 89.4875 534.857 89.9751 535.203C90.4676 535.549 91.0452 535.722 91.7081 535.722C92.1437 535.722 92.5391 535.646 92.8942 535.494C93.2493 535.343 93.55 535.125 93.7962 534.841C94.0424 534.557 94.2176 534.216 94.3217 533.818H95.9979C95.9032 534.462 95.6688 535.042 95.2947 535.558C94.9254 536.07 94.4354 536.477 93.8246 536.78C93.2185 537.078 92.513 537.227 91.7081 537.227ZM98.4482 537V526.091H100.067V527.739H100.181C100.38 527.199 100.74 526.761 101.261 526.425C101.781 526.089 102.369 525.92 103.022 525.92C103.145 525.92 103.299 525.923 103.484 525.928C103.668 525.932 103.808 525.939 103.903 525.949V527.653C103.846 527.639 103.716 527.618 103.512 527.589C103.313 527.556 103.103 527.54 102.88 527.54C102.35 527.54 101.876 527.651 101.46 527.874C101.048 528.091 100.721 528.394 100.479 528.783C100.243 529.166 100.124 529.604 100.124 530.097V537H98.4482ZM105.89 537V526.091H107.566V537H105.89ZM106.742 524.273C106.415 524.273 106.133 524.161 105.897 523.939C105.665 523.716 105.549 523.449 105.549 523.136C105.549 522.824 105.665 522.556 105.897 522.334C106.133 522.111 106.415 522 106.742 522C107.069 522 107.348 522.111 107.58 522.334C107.817 522.556 107.935 522.824 107.935 523.136C107.935 523.449 107.817 523.716 107.58 523.939C107.348 524.161 107.069 524.273 106.742 524.273ZM110.636 541.091V526.091H112.255V527.824H112.454C112.577 527.634 112.747 527.393 112.965 527.099C113.188 526.801 113.505 526.536 113.917 526.304C114.334 526.067 114.897 525.949 115.607 525.949C116.526 525.949 117.335 526.179 118.036 526.638C118.737 527.097 119.284 527.748 119.677 528.591C120.07 529.434 120.266 530.428 120.266 531.574C120.266 532.729 120.07 533.731 119.677 534.578C119.284 535.421 118.739 536.074 118.043 536.538C117.347 536.998 116.545 537.227 115.636 537.227C114.935 537.227 114.374 537.111 113.952 536.879C113.531 536.643 113.207 536.375 112.979 536.077C112.752 535.774 112.577 535.523 112.454 535.324H112.312V541.091H110.636ZM112.283 531.545C112.283 532.369 112.404 533.096 112.646 533.726C112.887 534.351 113.24 534.841 113.704 535.196C114.168 535.546 114.736 535.722 115.408 535.722C116.109 535.722 116.694 535.537 117.163 535.168C117.636 534.794 117.991 534.292 118.228 533.662C118.469 533.027 118.59 532.322 118.59 531.545C118.59 530.778 118.472 530.087 118.235 529.472C118.003 528.851 117.65 528.361 117.177 528.001C116.708 527.637 116.119 527.455 115.408 527.455C114.727 527.455 114.154 527.627 113.69 527.973C113.226 528.314 112.875 528.792 112.638 529.408C112.402 530.018 112.283 530.731 112.283 531.545ZM127.567 526.091V527.511H121.914V526.091H127.567ZM123.562 523.477H125.238V533.875C125.238 534.348 125.307 534.704 125.444 534.94C125.586 535.172 125.766 535.329 125.984 535.409C126.206 535.485 126.441 535.523 126.687 535.523C126.871 535.523 127.023 535.513 127.141 535.494C127.26 535.471 127.354 535.452 127.425 535.438L127.766 536.943C127.653 536.986 127.494 537.028 127.29 537.071C127.087 537.118 126.829 537.142 126.516 537.142C126.043 537.142 125.579 537.04 125.124 536.837C124.674 536.633 124.3 536.323 124.002 535.906C123.709 535.49 123.562 534.964 123.562 534.33V523.477Z" fill="black"/>
<path d="M170.358 259.455L174.676 271.699H174.847L179.165 259.455H181.011L175.67 274H173.852L168.511 259.455H170.358ZM191.232 263.091C191.146 262.371 190.801 261.812 190.195 261.415C189.589 261.017 188.845 260.818 187.964 260.818C187.321 260.818 186.757 260.922 186.274 261.131C185.796 261.339 185.422 261.625 185.152 261.99C184.887 262.355 184.754 262.769 184.754 263.233C184.754 263.621 184.847 263.955 185.031 264.234C185.221 264.509 185.462 264.739 185.756 264.923C186.049 265.103 186.357 265.252 186.679 265.371C187.001 265.484 187.297 265.577 187.567 265.648L189.044 266.045C189.423 266.145 189.844 266.282 190.308 266.457C190.777 266.633 191.224 266.872 191.651 267.175C192.081 267.473 192.437 267.857 192.716 268.325C192.995 268.794 193.135 269.369 193.135 270.051C193.135 270.837 192.929 271.547 192.517 272.182C192.11 272.816 191.513 273.321 190.727 273.695C189.946 274.069 188.997 274.256 187.879 274.256C186.838 274.256 185.936 274.088 185.173 273.751C184.416 273.415 183.819 272.946 183.384 272.345C182.953 271.744 182.709 271.045 182.652 270.25H184.47C184.518 270.799 184.702 271.254 185.024 271.614C185.351 271.969 185.763 272.234 186.26 272.409C186.762 272.58 187.302 272.665 187.879 272.665C188.552 272.665 189.155 272.556 189.69 272.338C190.225 272.116 190.649 271.808 190.962 271.415C191.274 271.017 191.43 270.553 191.43 270.023C191.43 269.54 191.295 269.147 191.026 268.844C190.756 268.541 190.401 268.295 189.96 268.105C189.52 267.916 189.044 267.75 188.533 267.608L186.743 267.097C185.607 266.77 184.707 266.304 184.044 265.697C183.381 265.091 183.05 264.298 183.05 263.318C183.05 262.504 183.27 261.794 183.71 261.188C184.155 260.577 184.752 260.103 185.5 259.767C186.253 259.426 187.093 259.256 188.021 259.256C188.959 259.256 189.792 259.424 190.521 259.76C191.25 260.091 191.828 260.546 192.254 261.124C192.685 261.701 192.912 262.357 192.936 263.091H191.232ZM213.36 264H211.599C211.495 263.493 211.313 263.048 211.052 262.665C210.797 262.281 210.484 261.959 210.115 261.699C209.75 261.434 209.345 261.235 208.9 261.102C208.455 260.97 207.991 260.903 207.508 260.903C206.627 260.903 205.83 261.126 205.115 261.571C204.404 262.016 203.839 262.672 203.417 263.538C203.001 264.405 202.792 265.468 202.792 266.727C202.792 267.987 203.001 269.05 203.417 269.916C203.839 270.783 204.404 271.438 205.115 271.884C205.83 272.329 206.627 272.551 207.508 272.551C207.991 272.551 208.455 272.485 208.9 272.352C209.345 272.22 209.75 272.023 210.115 271.763C210.484 271.498 210.797 271.173 211.052 270.79C211.313 270.402 211.495 269.956 211.599 269.455H213.36C213.228 270.198 212.986 270.863 212.636 271.45C212.286 272.037 211.85 272.537 211.329 272.949C210.808 273.356 210.224 273.666 209.575 273.879C208.931 274.092 208.242 274.199 207.508 274.199C206.268 274.199 205.164 273.896 204.199 273.29C203.233 272.684 202.473 271.822 201.919 270.705C201.365 269.587 201.088 268.261 201.088 266.727C201.088 265.193 201.365 263.867 201.919 262.75C202.473 261.633 203.233 260.771 204.199 260.165C205.164 259.559 206.268 259.256 207.508 259.256C208.242 259.256 208.931 259.362 209.575 259.575C210.224 259.788 210.808 260.101 211.329 260.513C211.85 260.92 212.286 261.417 212.636 262.004C212.986 262.587 213.228 263.252 213.36 264ZM220.411 274.227C219.426 274.227 218.562 273.993 217.819 273.524C217.08 273.055 216.503 272.4 216.086 271.557C215.674 270.714 215.468 269.729 215.468 268.602C215.468 267.466 215.674 266.474 216.086 265.626C216.503 264.779 217.08 264.121 217.819 263.652C218.562 263.183 219.426 262.949 220.411 262.949C221.396 262.949 222.258 263.183 222.996 263.652C223.74 264.121 224.317 264.779 224.729 265.626C225.146 266.474 225.354 267.466 225.354 268.602C225.354 269.729 225.146 270.714 224.729 271.557C224.317 272.4 223.74 273.055 222.996 273.524C222.258 273.993 221.396 274.227 220.411 274.227ZM220.411 272.722C221.159 272.722 221.775 272.53 222.258 272.146C222.741 271.763 223.098 271.259 223.33 270.634C223.562 270.009 223.678 269.331 223.678 268.602C223.678 267.873 223.562 267.194 223.33 266.564C223.098 265.934 222.741 265.425 222.258 265.037C221.775 264.649 221.159 264.455 220.411 264.455C219.663 264.455 219.048 264.649 218.565 265.037C218.082 265.425 217.724 265.934 217.492 266.564C217.26 267.194 217.144 267.873 217.144 268.602C217.144 269.331 217.26 270.009 217.492 270.634C217.724 271.259 218.082 271.763 218.565 272.146C219.048 272.53 219.663 272.722 220.411 272.722ZM232.032 274.227C231.123 274.227 230.321 273.998 229.625 273.538C228.929 273.074 228.384 272.421 227.991 271.578C227.598 270.731 227.402 269.729 227.402 268.574C227.402 267.428 227.598 266.434 227.991 265.591C228.384 264.748 228.931 264.097 229.632 263.638C230.333 263.179 231.142 262.949 232.061 262.949C232.771 262.949 233.332 263.067 233.744 263.304C234.161 263.536 234.478 263.801 234.696 264.099C234.918 264.393 235.091 264.634 235.214 264.824H235.356V259.455H237.032V274H235.413V272.324H235.214C235.091 272.523 234.916 272.774 234.689 273.077C234.461 273.375 234.137 273.643 233.716 273.879C233.294 274.111 232.733 274.227 232.032 274.227ZM232.26 272.722C232.932 272.722 233.5 272.546 233.964 272.196C234.428 271.841 234.781 271.351 235.022 270.726C235.264 270.096 235.385 269.369 235.385 268.545C235.385 267.731 235.266 267.018 235.029 266.408C234.793 265.792 234.442 265.314 233.978 264.973C233.514 264.627 232.941 264.455 232.26 264.455C231.549 264.455 230.958 264.637 230.484 265.001C230.015 265.361 229.663 265.851 229.426 266.472C229.194 267.087 229.078 267.778 229.078 268.545C229.078 269.322 229.196 270.027 229.433 270.662C229.674 271.292 230.029 271.794 230.498 272.168C230.972 272.537 231.559 272.722 232.26 272.722ZM244.909 274.227C243.858 274.227 242.951 273.995 242.189 273.531C241.431 273.062 240.846 272.409 240.434 271.571C240.027 270.728 239.824 269.748 239.824 268.631C239.824 267.513 240.027 266.528 240.434 265.676C240.846 264.819 241.419 264.152 242.153 263.673C242.892 263.19 243.753 262.949 244.738 262.949C245.306 262.949 245.868 263.044 246.422 263.233C246.975 263.422 247.48 263.73 247.934 264.156C248.389 264.578 248.751 265.136 249.021 265.832C249.291 266.528 249.426 267.385 249.426 268.403V269.114H241.017V267.665H247.721C247.721 267.049 247.598 266.5 247.352 266.017C247.11 265.534 246.765 265.153 246.315 264.874C245.87 264.594 245.344 264.455 244.738 264.455C244.071 264.455 243.493 264.62 243.005 264.952C242.522 265.278 242.151 265.705 241.89 266.23C241.63 266.756 241.5 267.319 241.5 267.92V268.886C241.5 269.71 241.642 270.409 241.926 270.982C242.215 271.55 242.615 271.983 243.126 272.281C243.637 272.575 244.232 272.722 244.909 272.722C245.349 272.722 245.747 272.66 246.102 272.537C246.462 272.409 246.772 272.22 247.032 271.969C247.293 271.713 247.494 271.396 247.636 271.017L249.255 271.472C249.085 272.021 248.798 272.504 248.396 272.92C247.993 273.332 247.496 273.654 246.904 273.886C246.313 274.114 245.647 274.227 244.909 274.227Z" fill="black"/>
<path d="M167.642 522.455H169.403V532.852C169.403 533.78 169.233 534.569 168.892 535.217C168.551 535.866 168.071 536.358 167.45 536.695C166.83 537.031 166.098 537.199 165.256 537.199C164.46 537.199 163.752 537.054 163.132 536.766C162.512 536.472 162.024 536.055 161.669 535.516C161.314 534.976 161.136 534.334 161.136 533.591H162.869C162.869 534.003 162.971 534.363 163.175 534.67C163.383 534.973 163.667 535.21 164.027 535.381C164.387 535.551 164.796 535.636 165.256 535.636C165.762 535.636 166.193 535.53 166.548 535.317C166.903 535.104 167.173 534.791 167.358 534.379C167.547 533.963 167.642 533.454 167.642 532.852V522.455ZM175.916 537.256C175.225 537.256 174.598 537.125 174.034 536.865C173.471 536.6 173.023 536.219 172.692 535.722C172.36 535.22 172.195 534.614 172.195 533.903C172.195 533.278 172.318 532.772 172.564 532.384C172.81 531.991 173.139 531.683 173.551 531.46C173.963 531.238 174.418 531.072 174.915 530.963C175.417 530.849 175.921 530.759 176.428 530.693C177.09 530.608 177.628 530.544 178.04 530.501C178.456 530.454 178.759 530.376 178.949 530.267C179.143 530.158 179.24 529.969 179.24 529.699V529.642C179.24 528.941 179.048 528.397 178.665 528.009C178.286 527.62 177.711 527.426 176.939 527.426C176.139 527.426 175.511 527.601 175.057 527.952C174.602 528.302 174.283 528.676 174.098 529.074L172.507 528.506C172.791 527.843 173.17 527.327 173.643 526.957C174.122 526.583 174.643 526.323 175.206 526.176C175.774 526.025 176.333 525.949 176.882 525.949C177.232 525.949 177.635 525.991 178.089 526.077C178.549 526.157 178.991 526.325 179.418 526.581C179.848 526.837 180.206 527.223 180.49 527.739C180.774 528.255 180.916 528.946 180.916 529.812V537H179.24V535.523H179.155C179.041 535.759 178.852 536.013 178.587 536.283C178.321 536.553 177.969 536.782 177.528 536.972C177.088 537.161 176.551 537.256 175.916 537.256ZM176.172 535.75C176.835 535.75 177.393 535.62 177.848 535.359C178.307 535.099 178.653 534.763 178.885 534.351C179.122 533.939 179.24 533.506 179.24 533.051V531.517C179.169 531.602 179.013 531.68 178.771 531.751C178.535 531.818 178.26 531.877 177.947 531.929C177.64 531.976 177.339 532.019 177.045 532.057C176.757 532.09 176.522 532.118 176.342 532.142C175.907 532.199 175.5 532.291 175.121 532.419C174.747 532.542 174.444 532.729 174.212 532.98C173.984 533.226 173.871 533.562 173.871 533.989C173.871 534.571 174.086 535.011 174.517 535.31C174.953 535.603 175.504 535.75 176.172 535.75ZM192.505 526.091L188.471 537H186.767L182.733 526.091H184.551L187.562 534.784H187.676L190.687 526.091H192.505ZM197.596 537.256C196.905 537.256 196.277 537.125 195.714 536.865C195.15 536.6 194.703 536.219 194.371 535.722C194.04 535.22 193.874 534.614 193.874 533.903C193.874 533.278 193.997 532.772 194.244 532.384C194.49 531.991 194.819 531.683 195.231 531.46C195.643 531.238 196.097 531.072 196.594 530.963C197.096 530.849 197.601 530.759 198.107 530.693C198.77 530.608 199.308 530.544 199.719 530.501C200.136 530.454 200.439 530.376 200.629 530.267C200.823 530.158 200.92 529.969 200.92 529.699V529.642C200.92 528.941 200.728 528.397 200.344 528.009C199.966 527.62 199.39 527.426 198.619 527.426C197.818 527.426 197.191 527.601 196.737 527.952C196.282 528.302 195.962 528.676 195.778 529.074L194.187 528.506C194.471 527.843 194.85 527.327 195.323 526.957C195.801 526.583 196.322 526.323 196.886 526.176C197.454 526.025 198.013 525.949 198.562 525.949C198.912 525.949 199.315 525.991 199.769 526.077C200.228 526.157 200.671 526.325 201.097 526.581C201.528 526.837 201.886 527.223 202.17 527.739C202.454 528.255 202.596 528.946 202.596 529.812V537H200.92V535.523H200.835C200.721 535.759 200.531 536.013 200.266 536.283C200.001 536.553 199.648 536.782 199.208 536.972C198.768 537.161 198.23 537.256 197.596 537.256ZM197.852 535.75C198.514 535.75 199.073 535.62 199.528 535.359C199.987 535.099 200.333 534.763 200.565 534.351C200.801 533.939 200.92 533.506 200.92 533.051V531.517C200.849 531.602 200.692 531.68 200.451 531.751C200.214 531.818 199.94 531.877 199.627 531.929C199.319 531.976 199.019 532.019 198.725 532.057C198.436 532.09 198.202 532.118 198.022 532.142C197.586 532.199 197.179 532.291 196.8 532.419C196.426 532.542 196.123 532.729 195.891 532.98C195.664 533.226 195.55 533.562 195.55 533.989C195.55 534.571 195.766 535.011 196.197 535.31C196.632 535.603 197.184 535.75 197.852 535.75ZM213.837 526.091C213.752 525.371 213.406 524.812 212.8 524.415C212.194 524.017 211.451 523.818 210.57 523.818C209.926 523.818 209.363 523.922 208.88 524.131C208.401 524.339 208.027 524.625 207.757 524.99C207.492 525.355 207.36 525.769 207.36 526.233C207.36 526.621 207.452 526.955 207.637 527.234C207.826 527.509 208.068 527.739 208.361 527.923C208.655 528.103 208.962 528.252 209.284 528.371C209.606 528.484 209.902 528.577 210.172 528.648L211.65 529.045C212.028 529.145 212.45 529.282 212.914 529.457C213.382 529.633 213.83 529.872 214.256 530.175C214.687 530.473 215.042 530.857 215.321 531.325C215.601 531.794 215.74 532.369 215.74 533.051C215.74 533.837 215.534 534.547 215.123 535.182C214.715 535.816 214.119 536.321 213.333 536.695C212.551 537.069 211.602 537.256 210.485 537.256C209.443 537.256 208.541 537.088 207.779 536.751C207.021 536.415 206.425 535.946 205.989 535.345C205.558 534.744 205.314 534.045 205.257 533.25H207.076C207.123 533.799 207.308 534.254 207.63 534.614C207.956 534.969 208.368 535.234 208.865 535.409C209.367 535.58 209.907 535.665 210.485 535.665C211.157 535.665 211.761 535.556 212.296 535.338C212.831 535.116 213.255 534.808 213.567 534.415C213.88 534.017 214.036 533.553 214.036 533.023C214.036 532.54 213.901 532.147 213.631 531.844C213.361 531.541 213.006 531.295 212.566 531.105C212.125 530.916 211.65 530.75 211.138 530.608L209.348 530.097C208.212 529.77 207.312 529.304 206.65 528.697C205.987 528.091 205.655 527.298 205.655 526.318C205.655 525.504 205.875 524.794 206.316 524.188C206.761 523.577 207.357 523.103 208.105 522.767C208.858 522.426 209.699 522.256 210.627 522.256C211.564 522.256 212.398 522.424 213.127 522.76C213.856 523.091 214.434 523.546 214.86 524.124C215.291 524.701 215.518 525.357 215.542 526.091H213.837ZM222.841 537.227C221.818 537.227 220.938 536.986 220.199 536.503C219.46 536.02 218.892 535.355 218.494 534.507C218.097 533.66 217.898 532.691 217.898 531.602C217.898 530.494 218.101 529.517 218.509 528.669C218.92 527.817 219.493 527.152 220.227 526.673C220.966 526.19 221.828 525.949 222.812 525.949C223.58 525.949 224.271 526.091 224.886 526.375C225.502 526.659 226.006 527.057 226.399 527.568C226.792 528.08 227.036 528.676 227.131 529.358H225.455C225.327 528.861 225.043 528.42 224.602 528.037C224.167 527.649 223.58 527.455 222.841 527.455C222.188 527.455 221.615 527.625 221.122 527.966C220.634 528.302 220.253 528.778 219.979 529.393C219.709 530.004 219.574 530.722 219.574 531.545C219.574 532.388 219.706 533.122 219.972 533.747C220.241 534.372 220.62 534.857 221.108 535.203C221.6 535.549 222.178 535.722 222.841 535.722C223.277 535.722 223.672 535.646 224.027 535.494C224.382 535.343 224.683 535.125 224.929 534.841C225.175 534.557 225.35 534.216 225.455 533.818H227.131C227.036 534.462 226.802 535.042 226.428 535.558C226.058 536.07 225.568 536.477 224.957 536.78C224.351 537.078 223.646 537.227 222.841 537.227ZM229.581 537V526.091H231.2V527.739H231.314C231.513 527.199 231.873 526.761 232.393 526.425C232.914 526.089 233.501 525.92 234.155 525.92C234.278 525.92 234.432 525.923 234.616 525.928C234.801 525.932 234.941 525.939 235.036 525.949V527.653C234.979 527.639 234.848 527.618 234.645 527.589C234.446 527.556 234.235 527.54 234.013 527.54C233.482 527.54 233.009 527.651 232.592 527.874C232.18 528.091 231.854 528.394 231.612 528.783C231.375 529.166 231.257 529.604 231.257 530.097V537H229.581ZM237.022 537V526.091H238.699V537H237.022ZM237.875 524.273C237.548 524.273 237.266 524.161 237.029 523.939C236.797 523.716 236.681 523.449 236.681 523.136C236.681 522.824 236.797 522.556 237.029 522.334C237.266 522.111 237.548 522 237.875 522C238.201 522 238.481 522.111 238.713 522.334C238.949 522.556 239.068 522.824 239.068 523.136C239.068 523.449 238.949 523.716 238.713 523.939C238.481 524.161 238.201 524.273 237.875 524.273ZM241.768 541.091V526.091H243.388V527.824H243.587C243.71 527.634 243.88 527.393 244.098 527.099C244.321 526.801 244.638 526.536 245.05 526.304C245.466 526.067 246.03 525.949 246.74 525.949C247.659 525.949 248.468 526.179 249.169 526.638C249.87 527.097 250.417 527.748 250.81 528.591C251.203 529.434 251.399 530.428 251.399 531.574C251.399 532.729 251.203 533.731 250.81 534.578C250.417 535.421 249.872 536.074 249.176 536.538C248.48 536.998 247.678 537.227 246.768 537.227C246.068 537.227 245.507 537.111 245.085 536.879C244.664 536.643 244.339 536.375 244.112 536.077C243.885 535.774 243.71 535.523 243.587 535.324H243.445V541.091H241.768ZM243.416 531.545C243.416 532.369 243.537 533.096 243.778 533.726C244.02 534.351 244.373 534.841 244.837 535.196C245.301 535.546 245.869 535.722 246.541 535.722C247.242 535.722 247.827 535.537 248.295 535.168C248.769 534.794 249.124 534.292 249.361 533.662C249.602 533.027 249.723 532.322 249.723 531.545C249.723 530.778 249.605 530.087 249.368 529.472C249.136 528.851 248.783 528.361 248.31 528.001C247.841 527.637 247.251 527.455 246.541 527.455C245.859 527.455 245.286 527.627 244.822 527.973C244.358 528.314 244.008 528.792 243.771 529.408C243.535 530.018 243.416 530.731 243.416 531.545ZM258.7 526.091V527.511H253.047V526.091H258.7ZM254.695 523.477H256.371V533.875C256.371 534.348 256.439 534.704 256.577 534.94C256.719 535.172 256.899 535.329 257.116 535.409C257.339 535.485 257.573 535.523 257.82 535.523C258.004 535.523 258.156 535.513 258.274 535.494C258.393 535.471 258.487 535.452 258.558 535.438L258.899 536.943C258.786 536.986 258.627 537.028 258.423 537.071C258.22 537.118 257.962 537.142 257.649 537.142C257.176 537.142 256.712 537.04 256.257 536.837C255.807 536.633 255.433 536.323 255.135 535.906C254.841 535.49 254.695 534.964 254.695 534.33V523.477Z" fill="black"/>
<path d="M324.034 266.727C324.034 268.261 323.757 269.587 323.203 270.705C322.649 271.822 321.889 272.684 320.923 273.29C319.957 273.896 318.854 274.199 317.614 274.199C316.373 274.199 315.27 273.896 314.304 273.29C313.338 272.684 312.578 271.822 312.024 270.705C311.47 269.587 311.193 268.261 311.193 266.727C311.193 265.193 311.47 263.867 312.024 262.75C312.578 261.633 313.338 260.771 314.304 260.165C315.27 259.559 316.373 259.256 317.614 259.256C318.854 259.256 319.957 259.559 320.923 260.165C321.889 260.771 322.649 261.633 323.203 262.75C323.757 263.867 324.034 265.193 324.034 266.727ZM322.33 266.727C322.33 265.468 322.119 264.405 321.697 263.538C321.281 262.672 320.715 262.016 320 261.571C319.29 261.126 318.494 260.903 317.614 260.903C316.733 260.903 315.935 261.126 315.22 261.571C314.51 262.016 313.944 262.672 313.523 263.538C313.106 264.405 312.898 265.468 312.898 266.727C312.898 267.987 313.106 269.05 313.523 269.916C313.944 270.783 314.51 271.438 315.22 271.884C315.935 272.329 316.733 272.551 317.614 272.551C318.494 272.551 319.29 272.329 320 271.884C320.715 271.438 321.281 270.783 321.697 269.916C322.119 269.05 322.33 267.987 322.33 266.727ZM326.768 278.091V263.091H328.388V264.824H328.587C328.71 264.634 328.88 264.393 329.098 264.099C329.321 263.801 329.638 263.536 330.05 263.304C330.466 263.067 331.03 262.949 331.74 262.949C332.659 262.949 333.468 263.179 334.169 263.638C334.87 264.097 335.417 264.748 335.81 265.591C336.203 266.434 336.399 267.428 336.399 268.574C336.399 269.729 336.203 270.731 335.81 271.578C335.417 272.421 334.872 273.074 334.176 273.538C333.48 273.998 332.678 274.227 331.768 274.227C331.068 274.227 330.507 274.111 330.085 273.879C329.664 273.643 329.339 273.375 329.112 273.077C328.885 272.774 328.71 272.523 328.587 272.324H328.445V278.091H326.768ZM328.416 268.545C328.416 269.369 328.537 270.096 328.778 270.726C329.02 271.351 329.373 271.841 329.837 272.196C330.301 272.546 330.869 272.722 331.541 272.722C332.242 272.722 332.827 272.537 333.295 272.168C333.769 271.794 334.124 271.292 334.361 270.662C334.602 270.027 334.723 269.322 334.723 268.545C334.723 267.778 334.605 267.087 334.368 266.472C334.136 265.851 333.783 265.361 333.31 265.001C332.841 264.637 332.251 264.455 331.541 264.455C330.859 264.455 330.286 264.627 329.822 264.973C329.358 265.314 329.008 265.792 328.771 266.408C328.535 267.018 328.416 267.731 328.416 268.545ZM343.53 274.227C342.479 274.227 341.572 273.995 340.81 273.531C340.052 273.062 339.467 272.409 339.055 271.571C338.648 270.728 338.445 269.748 338.445 268.631C338.445 267.513 338.648 266.528 339.055 265.676C339.467 264.819 340.04 264.152 340.774 263.673C341.513 263.19 342.375 262.949 343.359 262.949C343.928 262.949 344.489 263.044 345.043 263.233C345.597 263.422 346.101 263.73 346.555 264.156C347.01 264.578 347.372 265.136 347.642 265.832C347.912 266.528 348.047 267.385 348.047 268.403V269.114H339.638V267.665H346.342C346.342 267.049 346.219 266.5 345.973 266.017C345.732 265.534 345.386 265.153 344.936 264.874C344.491 264.594 343.965 264.455 343.359 264.455C342.692 264.455 342.114 264.62 341.626 264.952C341.143 265.278 340.772 265.705 340.511 266.23C340.251 266.756 340.121 267.319 340.121 267.92V268.886C340.121 269.71 340.263 270.409 340.547 270.982C340.836 271.55 341.236 271.983 341.747 272.281C342.259 272.575 342.853 272.722 343.53 272.722C343.97 272.722 344.368 272.66 344.723 272.537C345.083 272.409 345.393 272.22 345.653 271.969C345.914 271.713 346.115 271.396 346.257 271.017L347.876 271.472C347.706 272.021 347.42 272.504 347.017 272.92C346.615 273.332 346.117 273.654 345.526 273.886C344.934 274.114 344.268 274.227 343.53 274.227ZM352.273 267.438V274H350.597V263.091H352.216V264.795H352.358C352.614 264.241 353.002 263.796 353.523 263.46C354.044 263.119 354.716 262.949 355.54 262.949C356.278 262.949 356.925 263.1 357.479 263.403C358.033 263.702 358.464 264.156 358.771 264.767C359.079 265.373 359.233 266.14 359.233 267.068V274H357.557V267.182C357.557 266.325 357.334 265.657 356.889 265.179C356.444 264.696 355.833 264.455 355.057 264.455C354.522 264.455 354.044 264.571 353.622 264.803C353.205 265.035 352.876 265.373 352.635 265.818C352.393 266.263 352.273 266.803 352.273 267.438ZM363.12 274H361.273L366.614 259.455H368.432L373.773 274H371.926L367.58 261.756H367.466L363.12 274ZM363.801 268.318H371.245V269.881H363.801V268.318ZM377.8 259.455V274H376.039V259.455H377.8Z" fill="black"/>
<path d="M464.716 263.091C464.631 262.371 464.285 261.812 463.679 261.415C463.073 261.017 462.33 260.818 461.449 260.818C460.805 260.818 460.241 260.922 459.759 261.131C459.28 261.339 458.906 261.625 458.636 261.99C458.371 262.355 458.239 262.769 458.239 263.233C458.239 263.621 458.331 263.955 458.516 264.234C458.705 264.509 458.946 264.739 459.24 264.923C459.534 265.103 459.841 265.252 460.163 265.371C460.485 265.484 460.781 265.577 461.051 265.648L462.528 266.045C462.907 266.145 463.329 266.282 463.793 266.457C464.261 266.633 464.709 266.872 465.135 267.175C465.566 267.473 465.921 267.857 466.2 268.325C466.48 268.794 466.619 269.369 466.619 270.051C466.619 270.837 466.413 271.547 466.001 272.182C465.594 272.816 464.998 273.321 464.212 273.695C463.43 274.069 462.481 274.256 461.364 274.256C460.322 274.256 459.42 274.088 458.658 273.751C457.9 273.415 457.304 272.946 456.868 272.345C456.437 271.744 456.193 271.045 456.136 270.25H457.955C458.002 270.799 458.187 271.254 458.509 271.614C458.835 271.969 459.247 272.234 459.744 272.409C460.246 272.58 460.786 272.665 461.364 272.665C462.036 272.665 462.64 272.556 463.175 272.338C463.71 272.116 464.134 271.808 464.446 271.415C464.759 271.017 464.915 270.553 464.915 270.023C464.915 269.54 464.78 269.147 464.51 268.844C464.24 268.541 463.885 268.295 463.445 268.105C463.004 267.916 462.528 267.75 462.017 267.608L460.227 267.097C459.091 266.77 458.191 266.304 457.528 265.697C456.866 265.091 456.534 264.298 456.534 263.318C456.534 262.504 456.754 261.794 457.195 261.188C457.64 260.577 458.236 260.103 458.984 259.767C459.737 259.426 460.578 259.256 461.506 259.256C462.443 259.256 463.277 259.424 464.006 259.76C464.735 260.091 465.313 260.546 465.739 261.124C466.17 261.701 466.397 262.357 466.42 263.091H464.716ZM474.032 263.091V264.511H468.379V263.091H474.032ZM470.027 260.477H471.703V270.875C471.703 271.348 471.771 271.704 471.909 271.94C472.051 272.172 472.231 272.329 472.449 272.409C472.671 272.485 472.905 272.523 473.152 272.523C473.336 272.523 473.488 272.513 473.606 272.494C473.725 272.471 473.819 272.452 473.89 272.438L474.231 273.943C474.118 273.986 473.959 274.028 473.755 274.071C473.552 274.118 473.294 274.142 472.981 274.142C472.508 274.142 472.044 274.04 471.589 273.837C471.139 273.633 470.765 273.323 470.467 272.906C470.173 272.49 470.027 271.964 470.027 271.33V260.477ZM476.554 274V263.091H478.173V264.739H478.287C478.485 264.199 478.845 263.761 479.366 263.425C479.887 263.089 480.474 262.92 481.127 262.92C481.251 262.92 481.404 262.923 481.589 262.928C481.774 262.932 481.913 262.939 482.008 262.949V264.653C481.951 264.639 481.821 264.618 481.618 264.589C481.419 264.556 481.208 264.54 480.985 264.54C480.455 264.54 479.982 264.651 479.565 264.874C479.153 265.091 478.826 265.394 478.585 265.783C478.348 266.166 478.23 266.604 478.23 267.097V274H476.554ZM483.995 274V263.091H485.671V274H483.995ZM484.847 261.273C484.521 261.273 484.239 261.161 484.002 260.939C483.77 260.716 483.654 260.449 483.654 260.136C483.654 259.824 483.77 259.556 484.002 259.334C484.239 259.111 484.521 259 484.847 259C485.174 259 485.453 259.111 485.685 259.334C485.922 259.556 486.04 259.824 486.04 260.136C486.04 260.449 485.922 260.716 485.685 260.939C485.453 261.161 485.174 261.273 484.847 261.273ZM488.741 278.091V263.091H490.36V264.824H490.559C490.682 264.634 490.853 264.393 491.071 264.099C491.293 263.801 491.61 263.536 492.022 263.304C492.439 263.067 493.002 262.949 493.713 262.949C494.631 262.949 495.441 263.179 496.142 263.638C496.842 264.097 497.389 264.748 497.782 265.591C498.175 266.434 498.372 267.428 498.372 268.574C498.372 269.729 498.175 270.731 497.782 271.578C497.389 272.421 496.845 273.074 496.149 273.538C495.453 273.998 494.65 274.227 493.741 274.227C493.04 274.227 492.479 274.111 492.058 273.879C491.636 273.643 491.312 273.375 491.085 273.077C490.858 272.774 490.682 272.523 490.559 272.324H490.417V278.091H488.741ZM490.389 268.545C490.389 269.369 490.51 270.096 490.751 270.726C490.993 271.351 491.345 271.841 491.809 272.196C492.273 272.546 492.842 272.722 493.514 272.722C494.215 272.722 494.799 272.537 495.268 272.168C495.742 271.794 496.097 271.292 496.333 270.662C496.575 270.027 496.696 269.322 496.696 268.545C496.696 267.778 496.577 267.087 496.341 266.472C496.109 265.851 495.756 265.361 495.282 265.001C494.814 264.637 494.224 264.455 493.514 264.455C492.832 264.455 492.259 264.627 491.795 264.973C491.331 265.314 490.981 265.792 490.744 266.408C490.507 267.018 490.389 267.731 490.389 268.545ZM505.502 274.227C504.451 274.227 503.545 273.995 502.782 273.531C502.025 273.062 501.44 272.409 501.028 271.571C500.621 270.728 500.417 269.748 500.417 268.631C500.417 267.513 500.621 266.528 501.028 265.676C501.44 264.819 502.013 264.152 502.747 263.673C503.485 263.19 504.347 262.949 505.332 262.949C505.9 262.949 506.461 263.044 507.015 263.233C507.569 263.422 508.074 263.73 508.528 264.156C508.983 264.578 509.345 265.136 509.615 265.832C509.885 266.528 510.02 267.385 510.02 268.403V269.114H501.61V267.665H508.315C508.315 267.049 508.192 266.5 507.946 266.017C507.704 265.534 507.359 265.153 506.909 264.874C506.464 264.594 505.938 264.455 505.332 264.455C504.664 264.455 504.087 264.62 503.599 264.952C503.116 265.278 502.744 265.705 502.484 266.23C502.224 266.756 502.093 267.319 502.093 267.92V268.886C502.093 269.71 502.235 270.409 502.52 270.982C502.808 271.55 503.208 271.983 503.72 272.281C504.231 272.575 504.825 272.722 505.502 272.722C505.943 272.722 506.341 272.66 506.696 272.537C507.056 272.409 507.366 272.22 507.626 271.969C507.886 271.713 508.088 271.396 508.23 271.017L509.849 271.472C509.679 272.021 509.392 272.504 508.99 272.92C508.587 273.332 508.09 273.654 507.498 273.886C506.906 274.114 506.241 274.227 505.502 274.227Z" fill="black"/>
<path d="M26 26C30.4183 26 34 22.4183 34 18C34 13.5817 30.4183 10 26 10C21.5817 10 18 13.5817 18 18C18 22.4183 21.5817 26 26 26Z" fill="#404040"/>
<path d="M50 26C54.4183 26 58 22.4183 58 18C58 13.5817 54.4183 10 50 10C45.5817 10 42 13.5817 42 18C42 22.4183 45.5817 26 50 26Z" fill="#404040"/>
<path d="M74 26C78.4183 26 82 22.4183 82 18C82 13.5817 78.4183 10 74 10C69.5817 10 66 13.5817 66 18C66 22.4183 69.5817 26 74 26Z" fill="#404040"/>
<rect x="2.78784" y="34" width="590.424" height="2" fill="#404040"/>
<g clip-path="url(#clip0_130_2)">
<path fill-rule="evenodd" clip-rule="evenodd" d="M74 137C96.092 137 114 155.36 114 178.012C114 196.128 102.552 211.496 86.668 216.924C84.64 217.328 83.92 216.047 83.92 214.955C83.92 213.603 83.968 209.187 83.968 203.699C83.968 199.875 82.688 197.379 81.252 196.107C90.16 195.091 99.52 191.623 99.52 175.871C99.52 171.391 97.968 167.735 95.4 164.863C95.816 163.827 97.188 159.656 95.008 154.008C95.008 154.008 91.656 152.909 84.02 158.213C80.824 157.305 77.4 156.848 74 156.832C70.6 156.848 67.18 157.305 63.988 158.213C56.344 152.909 52.984 154.008 52.984 154.008C50.812 159.656 52.184 163.827 52.596 164.863C50.04 167.735 48.476 171.391 48.476 175.871C48.476 191.583 57.816 195.105 66.7 196.141C65.556 197.165 64.52 198.971 64.16 201.623C61.88 202.671 56.088 204.485 52.52 198.217C52.52 198.217 50.404 194.276 46.388 193.988C46.388 193.988 42.488 193.936 46.116 196.48C46.116 196.48 48.736 197.74 50.556 202.48C50.556 202.48 52.904 209.8 64.032 207.32C64.052 210.748 64.088 213.979 64.088 214.955C64.088 216.039 63.352 217.308 61.356 216.928C45.46 211.508 34 196.132 34 178.012C34 155.36 51.912 137 74 137Z" fill="black"/>
</g>
<g clip-path="url(#clip1_130_2)">
<path d="M220.504 144.792C220.504 142.595 218.044 142.595 216.95 142.869C218.481 141.661 220.276 141.954 220.914 142.32L235.697 149.569C237.106 150.259 237.999 151.697 237.999 153.271V200.958C237.999 202.554 237.082 204.006 235.645 204.686L221.734 211.264C220.777 211.675 218.7 212.692 216.95 211.263C219.137 211.675 220.322 210.119 220.504 209.066V144.792Z" fill="url(#paint0_linear_130_2)"/>
<path d="M217.128 142.83C218.289 142.6 220.505 142.707 220.505 144.792V161.206L175.684 195.113C174.901 195.706 173.798 195.607 173.131 194.885L168.511 189.887C167.788 189.104 167.838 187.878 168.624 187.158L216.951 142.869L217.128 142.83Z" fill="url(#paint1_linear_130_2)"/>
<path d="M220.505 192.927L175.684 159.02C174.901 158.427 173.798 158.526 173.131 159.248L168.511 164.246C167.788 165.029 167.838 166.255 168.624 166.975L216.951 211.264C219.138 211.676 220.322 210.119 220.505 209.066V192.927Z" fill="url(#paint2_linear_130_2)"/>
</g>
<g clip-path="url(#clip2_130_2)">
<path d="M379.273 169.737C380.167 167.043 380.477 164.19 380.18 161.367C379.884 158.544 378.989 155.817 377.554 153.368C375.427 149.666 372.18 146.735 368.28 144.998C364.38 143.26 360.029 142.806 355.855 143.701C353.483 141.063 350.459 139.095 347.086 137.996C343.713 136.896 340.111 136.704 336.64 137.437C333.169 138.17 329.952 139.804 327.313 142.174C324.673 144.544 322.704 147.567 321.602 150.939C318.821 151.51 316.194 152.667 313.896 154.334C311.598 156.001 309.682 158.139 308.277 160.606C306.127 164.302 305.208 168.585 305.653 172.838C306.098 177.09 307.884 181.091 310.752 184.261C309.855 186.954 309.542 189.807 309.836 192.63C310.13 195.453 311.023 198.18 312.456 200.63C314.585 204.334 317.835 207.265 321.738 209.003C325.641 210.74 329.994 211.193 334.171 210.297C336.055 212.419 338.37 214.115 340.962 215.271C343.554 216.426 346.362 217.016 349.2 217C353.478 217.004 357.648 215.648 361.106 213.128C364.564 210.608 367.132 207.055 368.439 202.981C371.22 202.409 373.847 201.252 376.145 199.585C378.443 197.918 380.358 195.78 381.765 193.314C383.889 189.623 384.792 185.356 384.345 181.121C383.897 176.887 382.122 172.902 379.273 169.737ZM349.2 211.764C345.695 211.77 342.301 210.541 339.612 208.295L340.085 208.027L356.012 198.833C356.409 198.6 356.738 198.269 356.967 197.87C357.197 197.472 357.319 197.021 357.321 196.562V174.105L364.055 178.001C364.088 178.018 364.117 178.042 364.139 178.072C364.161 178.102 364.175 178.137 364.181 178.174V196.783C364.173 200.753 362.592 204.559 359.784 207.367C356.976 210.175 353.17 211.756 349.2 211.764ZM316.997 198.013C315.24 194.978 314.609 191.421 315.215 187.967L315.689 188.251L331.632 197.445C332.026 197.677 332.476 197.799 332.933 197.799C333.39 197.799 333.839 197.677 334.234 197.445L353.71 186.217V193.991C353.708 194.032 353.697 194.071 353.678 194.107C353.659 194.142 353.632 194.173 353.599 194.196L337.467 203.501C334.024 205.484 329.934 206.02 326.097 204.991C322.259 203.962 318.986 201.452 316.997 198.013ZM312.803 163.319C314.572 160.265 317.365 157.935 320.688 156.743V175.667C320.682 176.124 320.798 176.574 321.026 176.971C321.253 177.368 321.583 177.696 321.981 177.922L341.362 189.103L334.628 192.998C334.592 193.017 334.551 193.027 334.51 193.027C334.469 193.027 334.428 193.017 334.392 192.998L318.291 183.709C314.854 181.717 312.347 178.445 311.319 174.608C310.29 170.772 310.824 166.684 312.803 163.24V163.319ZM368.124 176.171L348.679 164.88L355.397 161C355.434 160.981 355.474 160.971 355.516 160.971C355.557 160.971 355.598 160.981 355.634 161L371.735 170.304C374.197 171.725 376.204 173.816 377.522 176.335C378.839 178.853 379.413 181.694 379.177 184.527C378.941 187.359 377.903 190.066 376.186 192.331C374.469 194.596 372.143 196.326 369.48 197.318V178.394C369.466 177.938 369.334 177.493 369.096 177.103C368.858 176.713 368.523 176.393 368.124 176.171ZM374.826 166.094L374.353 165.81L358.441 156.538C358.044 156.305 357.592 156.182 357.132 156.182C356.672 156.182 356.22 156.305 355.823 156.538L336.363 167.766V159.991C336.359 159.952 336.366 159.912 336.382 159.876C336.399 159.84 336.425 159.809 336.458 159.786L352.559 150.498C355.027 149.076 357.848 148.386 360.693 148.51C363.539 148.633 366.29 149.563 368.626 151.193C370.962 152.822 372.785 155.083 373.883 157.71C374.981 160.338 375.308 163.224 374.826 166.031L374.826 166.094ZM332.688 179.877L325.955 175.997C325.921 175.977 325.892 175.95 325.871 175.917C325.849 175.884 325.834 175.847 325.828 175.808V157.247C325.832 154.4 326.646 151.612 328.176 149.211C329.705 146.809 331.887 144.892 334.466 143.685C337.045 142.477 339.914 142.029 342.738 142.392C345.562 142.755 348.225 143.915 350.414 145.735L349.941 146.003L334.013 155.197C333.617 155.429 333.288 155.761 333.058 156.159C332.829 156.557 332.707 157.008 332.704 157.468L332.688 179.877ZM336.347 171.992L345.02 166.993L353.71 171.992V181.99L345.052 186.989L336.363 181.99L336.347 171.992Z" fill="black"/>
</g>
<g clip-path="url(#clip3_130_2)">
<path d="M484 227C508.853 227 529 206.853 529 182C529 157.147 508.853 137 484 137C459.147 137 439 157.147 439 182C439 206.853 459.147 227 484 227Z" fill="#635BFF"/>
<path d="M507.701 182.33C507.701 178.959 506.068 176.299 502.948 176.299C499.828 176.299 497.918 178.958 497.918 182.303C497.918 186.266 500.157 188.268 503.368 188.268C504.935 188.268 506.119 187.917 507.015 187.412V184.776C506.119 185.223 505.093 185.5 503.789 185.5C502.512 185.5 501.379 185.052 501.235 183.499H507.674C507.675 183.33 507.701 182.645 507.701 182.33ZM501.198 181.079C501.198 179.591 502.106 178.97 502.936 178.97C503.739 178.97 504.595 179.585 504.595 181.079H501.198ZM492.836 176.299C491.875 176.295 490.95 176.663 490.255 177.326L490.084 176.509H487.183V191.862L490.475 191.164L490.488 187.438C490.962 187.781 491.66 188.268 492.819 188.268C495.176 188.268 497.322 186.372 497.322 182.198C497.312 178.379 495.139 176.299 492.836 176.299ZM492.045 185.371C491.268 185.371 490.807 185.094 490.491 184.755L490.478 179.87C490.82 179.489 491.294 179.225 492.045 179.225C493.243 179.225 494.072 180.568 494.072 182.294C494.073 184.054 493.257 185.371 492.045 185.371H492.045ZM482.657 175.522L485.962 174.811V172.138L482.657 172.836V175.522ZM482.657 176.523H485.962V188.044H482.657V176.523ZM479.115 177.497L478.902 176.523H476.06V188.043H479.351V180.235C480.128 179.221 481.445 179.405 481.853 179.551V176.523C481.433 176.364 479.892 176.074 479.115 177.497ZM472.531 173.665L469.322 174.354L469.309 184.9C469.309 186.849 470.771 188.284 472.719 188.284C473.799 188.284 474.589 188.086 475.024 187.85V185.174C474.603 185.345 472.522 185.951 472.522 184.002V179.327H475.024V176.523H472.518L472.531 173.665ZM463.63 179.867C463.63 179.354 464.051 179.156 464.749 179.156C465.888 179.18 467.006 179.468 468.014 179.999V176.902C466.976 176.493 465.868 176.288 464.752 176.299C462.079 176.299 460.301 177.694 460.301 180.025C460.301 183.659 465.305 183.08 465.305 184.646C465.305 185.252 464.777 185.45 464.041 185.45C462.948 185.45 461.552 185.002 460.446 184.395V187.529C461.581 188.02 462.804 188.276 464.041 188.28C466.78 188.28 468.662 186.924 468.662 184.566C468.647 180.644 463.63 181.342 463.63 179.867Z" fill="white"/>
</g>
<path d="M109.72 423H46.28C44.4685 423 43 424.469 43 426.28V489.72C43 491.531 44.4685 493 46.28 493H109.72C111.531 493 113 491.531 113 489.72V426.28C113 424.469 111.531 423 109.72 423Z" fill="#3178C6"/>
<path fill-rule="evenodd" clip-rule="evenodd" d="M83.6125 477.398V485.068C85.0061 485.755 86.4912 486.239 88.0225 486.505C89.792 486.832 91.5881 486.992 93.3875 486.985C95.1412 486.993 96.8909 486.817 98.6075 486.458C100.149 486.146 101.619 485.553 102.945 484.708C104.176 483.913 105.19 482.825 105.897 481.542C107.164 478.886 107.331 475.837 106.362 473.058C105.954 472.018 105.345 471.069 104.57 470.265C103.738 469.41 102.794 468.672 101.762 468.073C100.575 467.377 99.3413 466.764 98.07 466.238C97.07 465.823 96.17 465.419 95.37 465.028C94.6594 464.687 93.9794 464.287 93.3375 463.83C92.8347 463.478 92.398 463.039 92.0475 462.535C91.7446 462.077 91.5869 461.539 91.595 460.99C91.5883 460.485 91.729 459.989 92 459.563C92.2942 459.116 92.6868 458.743 93.1475 458.472C93.7106 458.141 94.3235 457.902 94.9625 457.765C95.747 457.591 96.5489 457.507 97.3525 457.515C98.0283 457.517 98.7032 457.566 99.3725 457.66C100.095 457.758 100.81 457.906 101.512 458.103C102.227 458.3 102.925 458.551 103.602 458.853C104.26 459.145 104.888 459.499 105.48 459.908V452.75C104.248 452.284 102.97 451.949 101.667 451.75C100.095 451.521 98.5067 451.413 96.9175 451.428C95.1803 451.418 93.4481 451.615 91.7575 452.015C90.2293 452.364 88.7763 452.985 87.4675 453.848C86.2517 454.657 85.2478 455.747 84.54 457.025C83.7899 458.444 83.4188 460.033 83.4625 461.638C83.4071 463.759 84.106 465.832 85.435 467.488C87.0654 469.323 89.1214 470.73 91.4225 471.585C92.4725 472.018 93.4516 472.443 94.36 472.858C95.1795 473.222 95.9672 473.654 96.715 474.15C97.3181 474.542 97.8477 475.037 98.28 475.613C98.66 476.134 98.8617 476.765 98.855 477.41C98.8584 477.894 98.7342 478.37 98.495 478.79C98.2291 479.242 97.8555 479.62 97.4075 479.893C96.8469 480.234 96.2336 480.481 95.5925 480.623C94.7573 480.809 93.9031 480.897 93.0475 480.885C91.3682 480.882 89.7024 480.586 88.125 480.01C86.477 479.415 84.9488 478.531 83.6125 477.398ZM70.7275 458.303H80.7275V451.985H52.845V458.303H62.8V486.438H70.7275V458.303Z" fill="white"/>
<g clip-path="url(#clip4_130_2)">
<path d="M163 418H243V498H163V418Z" fill="#F7DF1E"/>
<path d="M184.035 484.854L190.157 481.149C191.338 483.243 192.412 485.015 194.99 485.015C197.46 485.015 199.018 484.048 199.018 480.29V454.728H206.536V480.396C206.536 488.183 201.971 491.727 195.312 491.727C189.298 491.727 185.807 488.612 184.035 484.853M210.619 484.048L216.74 480.504C218.352 483.136 220.446 485.069 224.151 485.069C227.267 485.069 229.253 483.511 229.253 481.363C229.253 478.786 227.212 477.873 223.775 476.369L221.896 475.563C216.472 473.255 212.874 470.355 212.874 464.233C212.874 458.594 217.17 454.298 223.883 454.298C228.662 454.298 232.099 455.963 234.569 460.313L228.716 464.072C227.427 461.763 226.031 460.85 223.883 460.85C221.681 460.85 220.285 462.246 220.285 464.072C220.285 466.327 221.681 467.241 224.903 468.637L226.782 469.442C233.173 472.181 236.771 474.973 236.771 481.256C236.771 488.023 231.454 491.728 224.312 491.728C217.331 491.728 212.82 488.398 210.619 484.048" fill="black"/>
</g>
<defs>
<linearGradient id="paint0_linear_130_2" x1="227.475" y1="142" x2="227.475" y2="212" gradientUnits="userSpaceOnUse">
<stop stop-color="#32B5F1"/>
<stop offset="1" stop-color="#2B9FED"/>
</linearGradient>
<linearGradient id="paint1_linear_130_2" x1="220.505" y1="150.835" x2="170.554" y2="192.763" gradientUnits="userSpaceOnUse">
<stop stop-color="#0F6FB3"/>
<stop offset="0.270551" stop-color="#1279B7"/>
<stop offset="0.421376" stop-color="#1176B5"/>
<stop offset="0.618197" stop-color="#0E69AC"/>
<stop offset="0.855344" stop-color="#0F70AF"/>
<stop offset="1" stop-color="#0F6DAD"/>
</linearGradient>
<linearGradient id="paint2_linear_130_2" x1="170.888" y1="161.96" x2="220.698" y2="203.202" gradientUnits="userSpaceOnUse">
<stop stop-color="#1791D2"/>
<stop offset="1" stop-color="#1173C5"/>
</linearGradient>
<clipPath id="clip0_130_2">
<rect width="80" height="80" fill="white" transform="translate(34 137)"/>
</clipPath>
<clipPath id="clip1_130_2">
<rect width="80" height="80" fill="white" transform="translate(168 137)"/>
</clipPath>
<clipPath id="clip2_130_2">
<rect width="80" height="80" fill="white" transform="translate(305 137)"/>
</clipPath>
<clipPath id="clip3_130_2">
<rect width="90" height="90" fill="white" transform="translate(439 137)"/>
</clipPath>
<clipPath id="clip4_130_2">
<rect width="80" height="80" fill="white" transform="translate(163 418)"/>
</clipPath>
</defs>
</svg>
